<svg width="144" height="143" fill="none" xmlns="http://www.w3.org/2000/svg"><g opacity=".3"><path d="M72.052 142.017s-.039-35.494-.083-70.993c.04-35.5.083-70.994.083-70.994s.04 35.5.084 70.994c-.04 35.499-.084 70.993-.084 70.993Z" fill="url(#a)"/><path d="M72.043 142.017s.04.004.097-.034a.714.714 0 0 0 .188-.241c.127-.24.263-.618.398-1.125.272-1.008.557-2.524.854-4.456.596-3.863 1.222-9.414 1.844-16.09a648.707 648.707 0 0 0 1.681-22.834c.46-8.363.828-17.293.823-26.227-.013-8.933-.368-17.867-.819-26.23a647.284 647.284 0 0 0-1.633-22.834c-.608-6.676-1.226-12.227-1.83-16.09-.302-1.932-.596-3.444-.88-4.452C72.62.9 72.48.519 72.346.287a.705.705 0 0 0-.202-.231c-.061-.035-.1-.026-.1-.03 0 0 .039-.005.1.03a.624.624 0 0 1 .202.231c.14.232.28.614.424 1.117.29 1.008.591 2.515.898 4.447.617 3.864 1.278 9.41 1.891 16.086a651.934 651.934 0 0 1 1.673 22.839c.236 4.181.438 8.509.591 12.9.153 4.396.258 8.865.267 13.334-.009 8.939-.39 17.872-.862 26.235a633.24 633.24 0 0 1-1.717 22.835c-.626 6.675-1.291 12.222-1.9 16.086-.306 1.931-.6 3.438-.876 4.451-.14.507-.271.889-.403 1.125a.713.713 0 0 1-.188.241c-.057.038-.096.03-.096.034h-.005Z" fill="url(#b)"/><path d="M72.04 142.017s.152.013.393-.128c.241-.146.517-.46.801-.91.57-.911 1.17-2.366 1.791-4.255 1.248-3.786 2.566-9.329 3.84-16.03 1.27-6.706 2.474-14.579 3.411-23.053.464-4.238.863-8.63 1.152-13.094.284-4.465.46-9.011.45-13.557-.017-9.093-.696-18.177-1.602-26.656-.91-8.479-2.084-16.356-3.328-23.066-1.247-6.706-2.552-12.252-3.818-16.03-.63-1.885-1.252-3.336-1.847-4.225-.298-.446-.591-.742-.837-.875-.127-.056-.223-.1-.297-.095L72.043.03s.036 0 .106.013c.074 0 .17.039.297.095.246.133.548.429.841.871.6.889 1.23 2.335 1.87 4.22 1.278 3.774 2.622 9.316 3.879 16.026 1.252 6.71 2.439 14.588 3.363 23.066.464 4.242.862 8.63 1.151 13.098.29 4.47.482 9.02.49 13.566 0 4.55-.179 9.101-.472 13.57a289.486 289.486 0 0 1-1.17 13.098c-.95 8.479-2.167 16.352-3.445 23.058-1.279 6.702-2.64 12.24-3.901 16.022-.63 1.889-1.244 3.34-1.813 4.246-.285.45-.565.764-.806.91-.24.146-.398.116-.394.128Z" fill="url(#c)"/><path d="M72.035 142.017s.035 0 .11-.008c.074-.009.18-.009.315-.056.276-.073.661-.27 1.073-.635.832-.726 1.777-2.057 2.745-3.855 1.94-3.611 4.028-9.102 5.994-15.829 1.962-6.727 3.814-14.708 5.215-23.354.7-4.323 1.287-8.813 1.703-13.39.412-4.576.657-9.243.644-13.913-.005-4.671-.259-9.338-.679-13.914-.416-4.58-.994-9.067-1.681-13.394-1.38-8.65-3.18-16.64-5.11-23.38-1.93-6.736-3.998-12.235-5.972-15.828C75.41 2.666 74.43 1.357 73.563.67 73.134.326 72.74.142 72.46.086c-.136-.047-.245-.039-.32-.047-.074-.004-.11-.009-.11-.009s.036 0 .11.009c.075.008.184 0 .32.043.28.056.678.236 1.108.584.867.682 1.852 1.996 2.841 3.786 1.984 3.589 4.063 9.088 6.008 15.824 1.944 6.74 3.76 14.725 5.162 23.376.7 4.323 1.287 8.813 1.716 13.394.43 4.58.692 9.251.705 13.922 0 9.355-.994 18.675-2.408 27.32-1.419 8.647-3.293 16.628-5.267 23.355-1.98 6.723-4.081 12.209-6.03 15.82-.972 1.798-1.922 3.129-2.758 3.855-.412.365-.801.562-1.077.635-.136.047-.245.047-.315.056a2.08 2.08 0 0 0-.11.008Z" fill="url(#d)"/><path d="M72.026 142.017s.04 0 .114-.008c.075-.009.189 0 .333-.03.293-.043.718-.168 1.222-.434 1.015-.528 2.28-1.666 3.59-3.331 2.636-3.332 5.539-8.698 8.249-15.425 2.71-6.727 5.254-14.828 7.146-23.685.941-4.43 1.73-9.05 2.272-13.767.543-4.723.854-9.548.84-14.378a126.13 126.13 0 0 0-.88-14.373 153.458 153.458 0 0 0-2.259-13.772c-1.874-8.86-4.347-16.983-7.023-23.723-2.67-6.736-5.552-12.128-8.231-15.425C76.063 2.018 74.759.923 73.72.438a4.514 4.514 0 0 0-1.24-.382c.29.043.723.137 1.24.378 1.037.485 2.351 1.58 3.686 3.224 2.693 3.293 5.583 8.68 8.272 15.416 2.688 6.74 5.184 14.854 7.075 23.719.946 4.435 1.73 9.054 2.29 13.78.565 4.723.893 9.557.91 14.39 0 9.677-1.265 19.315-3.174 28.167-1.909 8.861-4.474 16.958-7.198 23.685-2.723 6.723-5.644 12.085-8.288 15.412-1.314 1.661-2.584 2.799-3.6 3.322-.507.267-.932.391-1.225.434-.145.03-.259.022-.333.03-.075 0-.114.004-.114.004h.004Z" fill="url(#e)"/><path d="M72.022 142.017s.158-.009.464-.021c.302-.043.758-.099 1.318-.305 1.125-.382 2.645-1.288 4.273-2.782 1.638-1.481 3.407-3.512 5.193-6.006 1.791-2.494 3.6-5.456 5.36-8.792 3.511-6.68 6.804-14.897 9.212-24.002a119.377 119.377 0 0 0 2.868-14.223c.674-4.894 1.051-9.913 1.033-14.931a108.248 108.248 0 0 0-1.086-14.927 125.168 125.168 0 0 0-2.868-14.223c-2.39-9.11-5.617-17.352-9.08-24.054-1.73-3.352-3.534-6.319-5.32-8.813-1.787-2.499-3.564-4.52-5.224-5.976C76.51 1.498 74.955.639 73.813.309c-.28-.099-.543-.137-.762-.193.219.056.482.09.762.193 1.143.33 2.701 1.185 4.36 2.644 1.665 1.456 3.451 3.478 5.242 5.972 1.79 2.494 3.599 5.456 5.337 8.81 3.486 6.696 6.726 14.935 9.138 24.049a125.217 125.217 0 0 1 2.899 14.231 108.555 108.555 0 0 1 1.116 14.944c.005 5.027-.381 10.05-1.068 14.948a118.707 118.707 0 0 1-2.903 14.232c-2.43 9.109-5.74 17.326-9.265 23.998-1.764 3.335-3.586 6.293-5.377 8.787-1.795 2.495-3.568 4.521-5.206 6.002-1.633 1.485-3.157 2.391-4.282 2.773-.556.206-1.016.262-1.318.305-.306.013-.464.017-.464.017v-.004Z" fill="url(#f)"/><path d="M72.018 142.017s.166-.004.486-.017c.162-.004.359-.038.59-.06.233-.039.504-.081.806-.159 1.209-.279 2.908-.996 4.817-2.288 1.913-1.288 4.045-3.134 6.222-5.491 2.176-2.352 4.417-5.203 6.594-8.496a91.597 91.597 0 0 0 6.23-11.075 102.727 102.727 0 0 0 5.193-13.184c1.48-4.688 2.693-9.634 3.503-14.725.814-5.092 1.256-10.33 1.243-15.567a97.086 97.086 0 0 0-1.296-15.562 106.216 106.216 0 0 0-3.516-14.725c-2.955-9.38-6.988-17.722-11.296-24.324-2.154-3.302-4.37-6.174-6.555-8.522-2.18-2.352-4.321-4.186-6.257-5.44-1.935-1.27-3.664-1.905-4.877-2.167a9.207 9.207 0 0 0-1.401-.176c.32.013.792.06 1.4.176 1.214.253 2.947.893 4.883 2.155 1.94 1.254 4.09 3.082 6.274 5.43 2.19 2.349 4.414 5.217 6.572 8.518 4.322 6.598 8.376 14.935 11.349 24.32a106.367 106.367 0 0 1 3.551 14.733 97.023 97.023 0 0 1 1.327 15.584c0 5.25-.447 10.492-1.274 15.588a102.495 102.495 0 0 1-3.538 14.734 102.854 102.854 0 0 1-5.224 13.184 91.267 91.267 0 0 1-6.256 11.071c-2.18 3.289-4.427 6.135-6.612 8.488-2.18 2.352-4.317 4.194-6.235 5.477-1.918 1.293-3.617 2.005-4.825 2.284-.298.078-.57.116-.806.159-.236.026-.433.052-.59.06l-.487.013.005.004Z" fill="url(#g)"/><path d="M72.009 142.018s.175 0 .508-.013c.332-.013.832-.056 1.47-.159 1.275-.227 3.123-.764 5.268-1.885 2.15-1.103 4.602-2.751 7.155-4.932 2.557-2.181 5.214-4.899 7.82-8.101 2.61-3.198 5.157-6.886 7.504-10.986a90.77 90.77 0 0 0 6.275-13.437c1.777-4.825 3.227-9.96 4.186-15.27a90.267 90.267 0 0 0 1.458-16.27 89.41 89.41 0 0 0-1.52-16.267 92.946 92.946 0 0 0-4.216-15.266c-3.56-9.664-8.481-18.065-13.644-24.5-2.587-3.216-5.227-5.95-7.784-8.131-2.558-2.181-5.023-3.808-7.19-4.873C77.132.855 75.271.348 73.988.164a9.415 9.415 0 0 0-.854-.099 5.993 5.993 0 0 0-.622-.034c-.332 0-.508-.005-.508-.005s.175 0 .508.005c.167 0 .377.017.622.034.245.013.53.052.854.099 1.283.18 3.144.682 5.315 1.751C81.475 2.98 83.95 4.603 86.51 6.78c2.562 2.177 5.21 4.912 7.807 8.123 5.18 6.43 10.123 14.832 13.701 24.496a93.63 93.63 0 0 1 4.251 15.278 89.538 89.538 0 0 1 1.55 16.288 90.57 90.57 0 0 1-1.493 16.296c-.972 5.32-2.43 10.454-4.221 15.284a90.436 90.436 0 0 1-6.305 13.437c-2.356 4.095-4.913 7.783-7.53 10.977-2.61 3.202-5.281 5.916-7.843 8.092-2.561 2.177-5.013 3.825-7.167 4.924-2.15 1.116-3.998 1.649-5.276 1.876-.64.103-1.139.146-1.472.159l-.508.013.005-.004Z" fill="url(#h)"/><path d="M72.004 142.018s.18-.009.535-.022c.35-.026.875 0 1.545-.124 1.353-.142 3.31-.614 5.662-1.55 2.35-.94 5.087-2.383 7.995-4.375 2.911-1.983 5.968-4.55 9.01-7.633a75.307 75.307 0 0 0 8.819-10.805 83.308 83.308 0 0 0 7.421-13.652c2.12-4.963 3.779-10.308 4.913-15.846a85.198 85.198 0 0 0 1.708-17.026 84.867 84.867 0 0 0-1.765-17.021c-.254-1.391-.626-2.752-.959-4.113-.157-.683-.367-1.352-.56-2.022-.197-.67-.39-1.335-.587-2-.223-.657-.442-1.314-.661-1.967-.228-.648-.425-1.31-.683-1.94-.499-1.275-.955-2.559-1.511-3.787-2.123-4.958-4.606-9.573-7.369-13.682-2.754-4.117-5.727-7.761-8.735-10.874-3.012-3.112-6.086-5.662-8.984-7.659-2.903-1.996-5.653-3.421-8.022-4.323-.297-.111-.582-.231-.862-.33-.29-.09-.565-.176-.837-.258a43.06 43.06 0 0 1-.783-.244c-.254-.082-.504-.12-.745-.18-.481-.1-.92-.224-1.335-.284-.416-.056-.788-.103-1.13-.15-.166-.022-.324-.048-.477-.06-.149 0-.29-.009-.42-.013l-.653-.022C72.184.043 72 .04 72 .04s.18.004.534.017l.653.022c.13 0 .271.008.42.013.149.008.306.038.477.055.337.048.714.095 1.13.15.411.065.854.185 1.335.284.241.06.495.099.745.176.254.077.512.159.783.24.272.082.548.168.837.258.284.099.569.219.867.33 2.368.902 5.122 2.319 8.034 4.31 2.907 1.993 5.986 4.543 9.002 7.65 3.017 3.109 5.994 6.754 8.762 10.87 2.776 4.11 5.267 8.724 7.404 13.687.56 1.228 1.016 2.511 1.519 3.786.258.636.46 1.293.687 1.945.224.657.443 1.31.666 1.966l.591 2c.197.67.407 1.34.565 2.023.333 1.365.709 2.726.968 4.117a84.781 84.781 0 0 1 1.799 17.047c0 5.757-.595 11.506-1.738 17.056-1.143 5.547-2.82 10.896-4.948 15.859a83.489 83.489 0 0 1-7.456 13.656 75.639 75.639 0 0 1-8.845 10.797c-3.047 3.078-6.112 5.641-9.028 7.624-2.912 1.988-5.653 3.426-8.009 4.362-2.355.936-4.313 1.404-5.666 1.541-.67.12-1.195.095-1.545.12-.35.013-.534.022-.534.022l-.005-.004Z" fill="url(#i)"/><path d="M72 142.017s.188-.004.556-.017c.184-.004.412-.013.683-.021.136 0 .285-.009.442-.017.158-.018.324-.035.5-.056.354-.043.748-.086 1.186-.138.433-.064.902-.167 1.41-.257.512-.082 1.046-.228 1.62-.378l.884-.227c.303-.095.61-.194.929-.292 2.535-.799 5.525-2.057 8.752-3.864a64.314 64.314 0 0 0 10.158-7.105 75.626 75.626 0 0 0 10.15-10.552c3.218-4.079 6.156-8.741 8.63-13.828.328-.627.604-1.279.893-1.932.289-.652.578-1.305.867-1.962.263-.67.521-1.339.784-2.018.254-.674.538-1.343.753-2.039.451-1.382.954-2.76 1.322-4.181l.591-2.13c.175-.716.333-1.442.499-2.163 1.305-5.787 1.958-11.81 1.958-17.833a80.532 80.532 0 0 0-2.015-17.83c-.289-1.455-.731-2.867-1.103-4.288l-.144-.532-.167-.524-.341-1.047c-.228-.696-.443-1.392-.683-2.078-1.007-2.73-2.067-5.405-3.328-7.942-1.204-2.563-2.605-4.976-4.011-7.307-.372-.571-.744-1.138-1.112-1.704-.372-.563-.727-1.134-1.125-1.666-.78-1.082-1.528-2.164-2.347-3.173-3.196-4.1-6.607-7.676-10.062-10.625-3.446-2.962-6.892-5.345-10.119-7.16-3.222-1.817-6.226-3.057-8.774-3.821C77.688.545 75.608.228 74.189.112c-.354-.052-.67-.039-.941-.052-.272-.008-.5-.013-.683-.017L72.009.03s.188 0 .556.013c.184 0 .411.009.683.013.271.009.587 0 .941.052 1.423.115 3.503.429 6.056 1.184 2.548.76 5.556 1.997 8.783 3.808 3.227 1.808 6.682 4.186 10.136 7.148 3.464 2.95 6.888 6.521 10.088 10.621.823 1.013 1.572 2.095 2.356 3.177.398.537.757 1.103 1.13 1.666.367.566.739 1.133 1.116 1.704 1.414 2.331 2.82 4.744 4.033 7.307 1.269 2.532 2.333 5.216 3.345 7.946.245.687.46 1.387.687 2.082l.342 1.048.171.523.148.533c.377 1.425.819 2.837 1.117 4.297a80.525 80.525 0 0 1 2.045 17.859c-.013 6.036-.679 12.068-1.993 17.863-.166.721-.324 1.451-.503 2.168l-.6 2.134c-.368 1.43-.876 2.803-1.327 4.19-.214.695-.499 1.365-.757 2.043l-.788 2.018c-.294.657-.583 1.314-.872 1.966-.293.653-.569 1.305-.897 1.932-2.487 5.092-5.438 9.749-8.665 13.828a75.59 75.59 0 0 1-10.176 10.543 64.577 64.577 0 0 1-10.18 7.093c-3.231 1.803-6.226 3.056-8.766 3.855-.315.103-.626.197-.928.292l-.889.227c-.573.15-1.107.292-1.62.374-.508.09-.976.193-1.41.257-.433.052-.831.095-1.186.133-.175.022-.346.039-.5.056l-.442.013c-.271.009-.499.017-.683.021-.367.013-.556.018-.556.018l-.004-.018Z" fill="url(#j)"/><path d="M71.991 142.018s.202-.004.587-.017c.193 0 .433-.009.718-.018.285-.008.617-.008.99-.051l1.243-.116c.114-.013.232-.021.35-.034.118-.017.241-.039.364-.056.25-.039.508-.077.775-.12s.547-.086.832-.129c.289-.052.582-.12.884-.18.302-.065.617-.134.942-.202.162-.035.323-.069.49-.108.162-.042.328-.09.499-.133 2.706-.678 5.928-1.773 9.453-3.4 3.525-1.627 7.352-3.795 11.235-6.572 3.897-2.756 7.79-6.195 11.472-10.222 3.696-4.014 7.071-8.719 9.909-13.935l.538-.979c.184-.326.333-.67.499-1.004.329-.674.657-1.348.985-2.027.171-.335.32-.682.465-1.034.148-.348.293-.696.442-1.044.289-.7.608-1.39.871-2.107.258-.717.521-1.434.784-2.16l.394-1.082.333-1.107c.223-.739.446-1.477.674-2.22.123-.369.201-.751.298-1.124l.276-1.13c1.484-6.044 2.219-12.363 2.224-18.687 0-6.324-.766-12.634-2.273-18.679-1.475-6.049-3.804-11.776-6.633-16.992-2.811-5.237-6.248-9.895-9.878-13.96-3.625-4.079-7.548-7.483-11.397-10.304-3.858-2.807-7.658-5.023-11.192-6.641-3.529-1.631-6.756-2.7-9.466-3.37a39.04 39.04 0 0 0-6.397-.992C73.532.035 72.96.048 72.573.035c.386.013.96 0 1.708.043a39.28 39.28 0 0 1 6.401.983c2.71.665 5.947 1.73 9.476 3.353 3.533 1.614 7.347 3.82 11.209 6.628 3.853 2.812 7.784 6.217 11.423 10.295 3.639 4.065 7.089 8.723 9.913 13.96 2.842 5.221 5.184 10.952 6.673 17.01a77.509 77.509 0 0 1 2.307 18.709c-.013 6.332-.762 12.664-2.259 18.717l-.28 1.133c-.097.378-.175.76-.298 1.13-.228.742-.451 1.48-.674 2.223l-.337 1.108-.395 1.086-.788 2.164c-.262.717-.586 1.408-.875 2.112-.149.352-.298.7-.447 1.047-.144.352-.293.696-.468 1.035-.333.678-.662 1.352-.99 2.026-.171.335-.315.679-.504 1.001-.179.326-.363.652-.542.978-2.851 5.221-6.24 9.922-9.944 13.936-3.691 4.026-7.597 7.457-11.498 10.213-3.892 2.769-7.724 4.932-11.248 6.555-3.534 1.627-6.756 2.713-9.467 3.392-.17.042-.337.085-.499.133-.166.034-.328.073-.49.103-.324.068-.64.133-.942.201-.306.061-.595.134-.884.181-.289.043-.565.086-.832.129l-.775.12c-.123.017-.245.038-.363.056-.118.012-.237.021-.35.034l-1.249.116c-.372.043-.704.043-.989.051-.285.009-.525.013-.718.018l-.587.012v-.008Z" fill="url(#k)"/><path d="M71.987 142.018s.21 0 .613-.013c.407-.017 1.007 0 1.79-.052a50.24 50.24 0 0 0 6.735-.901c2.872-.58 6.31-1.533 10.118-2.979a75.464 75.464 0 0 0 12.247-6.049c.53-.331 1.082-.644 1.611-1.001.53-.356 1.069-.712 1.607-1.077.272-.18.543-.365.815-.545a1188.059 1188.059 0 0 0 2.412-1.769c.543-.404 1.06-.842 1.598-1.267l.806-.648c.271-.214.539-.433.797-.669 1.033-.928 2.128-1.829 3.131-2.847.512-.498 1.028-1.004 1.55-1.507.494-.528.993-1.06 1.493-1.601.254-.266.503-.537.753-.807.249-.275.481-.562.722-.846.477-.566.959-1.137 1.445-1.708.477-.58.92-1.194 1.379-1.795.451-.609.937-1.198 1.353-1.842.429-.635.863-1.27 1.296-1.91l.324-.481.302-.493c.202-.331.403-.666.605-1.001 1.659-2.644 3.03-5.503 4.339-8.423l.88-2.24c.293-.752.6-1.499.832-2.276.249-.768.499-1.541.753-2.314l.188-.58c.057-.197.105-.394.158-.592l.311-1.18c1.677-6.311 2.495-12.944 2.504-19.568.013-6.633-.845-13.257-2.544-19.559-.105-.395-.197-.79-.315-1.18l-.372-1.164c-.25-.773-.495-1.545-.74-2.318-.28-.76-.578-1.511-.863-2.263l-.429-1.124c-.136-.378-.32-.734-.477-1.104-.329-.73-.653-1.46-.981-2.185-.153-.369-.346-.717-.525-1.069-.184-.352-.364-.704-.543-1.056-.18-.352-.364-.704-.543-1.051-.092-.172-.18-.353-.276-.524l-.293-.507c-.399-.678-.793-1.352-1.187-2.026l-.293-.502-.32-.49c-.215-.322-.425-.648-.639-.97-.21-.322-.425-.644-.635-.966-.21-.322-.416-.644-.648-.949-.915-1.228-1.773-2.481-2.745-3.627-.478-.58-.937-1.168-1.419-1.73-.495-.554-.99-1.104-1.48-1.649-.245-.27-.49-.545-.736-.816l-.766-.777-1.515-1.537a77.411 77.411 0 0 0-12.711-9.92 71.885 71.885 0 0 0-12.22-6.101C87.434 2.405 83.993 1.477 81.12.906c-.722-.128-1.405-.253-2.044-.369-.648-.081-1.253-.159-1.817-.232-.565-.081-1.09-.115-1.568-.15-.482-.034-.92-.064-1.31-.094-.783-.026-1.387-.022-1.79-.026a70.332 70.332 0 0 1-.613-.009s.21 0 .613.005c.407.008 1.007 0 1.79.025.395.026.828.056 1.31.09.482.03 1.007.06 1.572.147.565.068 1.173.145 1.821.231.644.116 1.323.236 2.045.365 2.872.567 6.323 1.494 10.127 2.954a72.042 72.042 0 0 1 12.238 6.087 77.407 77.407 0 0 1 12.737 9.909c.504.51 1.012 1.021 1.524 1.537.254.257.512.515.766.777.246.27.491.54.736.815l1.484 1.649c.482.566.946 1.15 1.423 1.73.977 1.146 1.839 2.4 2.759 3.627.232.305.442.627.652.95.215.321.425.643.639.965.215.322.43.648.64.97l.319.49.298.506c.394.674.793 1.348 1.191 2.027l.298.506c.096.172.184.348.276.524.184.352.363.7.543 1.052.179.352.363.704.547 1.056.179.352.372.704.53 1.069.328.725.656 1.455.985 2.19.157.368.341.725.481 1.102l.434 1.13c.289.755.587 1.506.867 2.266.249.773.495 1.546.749 2.323l.376 1.163c.114.39.21.79.315 1.185 1.712 6.31 2.584 12.956 2.579 19.593-.017 6.642-.849 13.283-2.539 19.602l-.311 1.185c-.053.198-.101.395-.158.593l-.188.58c-.254.772-.508 1.545-.757 2.317-.233.777-.543 1.524-.841 2.276-.293.751-.591 1.498-.885 2.245-1.317 2.923-2.697 5.787-4.361 8.431-.201.335-.402.666-.604.996l-.302.498-.328.481c-.438.64-.872 1.275-1.301 1.911-.416.644-.906 1.232-1.357 1.841-.464.601-.906 1.215-1.388 1.795-.486.575-.968 1.146-1.454 1.713-.241.283-.477.571-.722.845l-.758.807-1.497 1.597c-.521.507-1.038 1.009-1.554 1.507-1.012 1.018-2.102 1.919-3.14 2.847-.258.231-.525.455-.797.669-.271.215-.538.43-.805.644-.539.425-1.06.867-1.603 1.267l-1.62 1.185c-.267.193-.534.39-.801.583l-.819.546c-.543.36-1.081.717-1.611 1.073-.534.352-1.082.665-1.616.996a75.548 75.548 0 0 1-12.264 6.036c-3.814 1.442-7.255 2.391-10.127 2.966-2.877.571-5.171.799-6.739.893-.784.052-1.384.035-1.79.052l-.614.013-.004-.013Z" fill="url(#l)"/><path d="M71.982 142.017s.22-.004.644-.017c.425-.017 1.055-.013 1.878-.056 1.642-.103 4.046-.3 7.072-.815a78.1 78.1 0 0 0 10.71-2.688 83.72 83.72 0 0 0 13.157-5.572c1.151-.627 2.338-1.241 3.494-1.962l1.769-1.061c.578-.382 1.165-.764 1.751-1.15.294-.193.591-.386.889-.584.298-.193.578-.416.871-.622.578-.421 1.165-.842 1.752-1.271.591-.425 1.147-.902 1.729-1.357.289-.227.578-.459.867-.691.294-.227.583-.464.858-.717 1.113-.996 2.286-1.962 3.354-3.061.548-.536 1.108-1.064 1.647-1.622.525-.571 1.055-1.142 1.585-1.718.262-.287.538-.571.792-.871.25-.305.504-.61.753-.915l1.52-1.833c.477-.644.954-1.288 1.431-1.936l.723-.974c.228-.335.442-.679.67-1.018.442-.678.889-1.361 1.335-2.048.425-.699.819-1.421 1.231-2.133.858-1.408 1.532-2.928 2.281-4.422.192-.369.35-.76.512-1.142l.486-1.16.486-1.162.245-.584c.075-.198.14-.4.21-.597l.828-2.396c.131-.403.293-.794.398-1.206l.342-1.228c1.865-6.542 2.758-13.458 2.767-20.374 0-.838-.044-1.73-.061-2.593l-.035-1.305c-.013-.434-.018-.872-.061-1.297l-.224-2.571-.109-1.284-.189-1.275c-.127-.854-.249-1.7-.376-2.55-.053-.43-.153-.846-.237-1.267l-.267-1.257-.262-1.258-.132-.627c-.048-.21-.109-.412-.166-.618-.228-.825-.451-1.644-.679-2.464-.206-.829-.494-1.623-.766-2.426-.28-.798-.534-1.605-.832-2.395l-.959-2.336c-.162-.386-.311-.777-.481-1.159-.184-.378-.364-.755-.543-1.129-.364-.751-.723-1.503-1.086-2.25-.403-.725-.806-1.446-1.204-2.168-.202-.36-.399-.72-.6-1.077a149.76 149.76 0 0 0-.661-1.039l-1.309-2.065-1.41-1.975c-.237-.33-.469-.652-.701-.979l-.749-.94c-.499-.622-.998-1.24-1.493-1.859-.516-.6-1.046-1.184-1.563-1.773-.258-.291-.521-.583-.775-.875-.258-.288-.543-.558-.81-.837l-1.62-1.653c-.547-.537-1.116-1.04-1.672-1.559-.557-.51-1.099-1.034-1.682-1.502-4.549-3.881-9.278-7.062-13.897-9.53a84.404 84.404 0 0 0-13.123-5.659A72.39 72.39 0 0 0 81.576.824C78.556.296 76.143.16 74.5.052a711.802 711.802 0 0 1-2.522-.043s.876 0 2.522-.009c1.642.073 4.063.146 7.106.635A72.252 72.252 0 0 1 92.4 3.155a79.968 79.968 0 0 1 13.272 5.521c4.671 2.439 9.47 5.598 14.103 9.475.591.468 1.142.991 1.712 1.502.565.516 1.147 1.022 1.703 1.559.547.55 1.099 1.099 1.655 1.653.276.279.56.55.828.841.262.292.529.584.792.88.53.588 1.068 1.176 1.598 1.777.504.623 1.007 1.25 1.515 1.88.254.314.508.632.762.95.236.33.477.66.714.991.477.661.954 1.327 1.436 1.996l1.335 2.087.67 1.052c.206.36.407.725.613 1.09.407.73.819 1.46 1.231 2.194.367.755.735 1.515 1.107 2.275.184.382.368.764.556 1.142.176.386.329.781.495 1.176.324.786.653 1.576.977 2.366.302.798.564 1.614.849 2.425.28.812.578 1.623.788 2.46.232.829.464 1.662.692 2.499.057.21.123.416.171.627l.135.635.272 1.27.271 1.276c.088.425.193.845.246 1.279.131.863.258 1.721.389 2.584l.193 1.297.118 1.31.237 2.618c.048.438.052.871.065 1.305l.04 1.3c.022.877.065 1.727.07 2.624-.031 6.993-.959 13.995-2.873 20.624l-.35 1.244c-.105.417-.276.816-.407 1.224-.285.811-.565 1.618-.85 2.425-.07.202-.135.404-.214.606l-.25.588-.494 1.18c-.167.391-.333.786-.495 1.173-.162.39-.324.785-.521 1.159-.766 1.506-1.454 3.048-2.325 4.473-.421.721-.823 1.451-1.257 2.159-.455.692-.911 1.383-1.362 2.074-.227.343-.446.691-.678 1.026l-.736.987c-.486.653-.972 1.305-1.453 1.954-.517.618-1.034 1.236-1.55 1.85-.259.305-.513.61-.771.914-.263.297-.543.58-.814.872-.543.579-1.082 1.15-1.621 1.721-.551.558-1.125 1.086-1.681 1.623-1.094 1.099-2.285 2.065-3.419 3.057a13.68 13.68 0 0 1-.872.712c-.298.232-.591.464-.884.692-.591.45-1.156.931-1.76 1.352-.6.425-1.191.846-1.782 1.262-.298.206-.583.421-.885.618-.302.193-.6.387-.902.58-.595.386-1.191.764-1.778 1.146-.604.352-1.199.704-1.79 1.052-1.174.712-2.373 1.322-3.538 1.94-4.676 2.439-9.213 4.169-13.306 5.435a77.77 77.77 0 0 1-10.789 2.529c-3.039.476-5.456.609-7.102.682-.823.026-1.454.013-1.878.017h-.644l.004-.004Z" fill="url(#m)"/><path d="M71.952 142.017s-.044-35.494-.083-70.993c.04-35.5.083-70.994.083-70.994l.079 70.994-.08 70.993Z" fill="url(#n)"/><path d="M71.956 142.018s-.039.004-.096-.034a.714.714 0 0 1-.188-.241c-.132-.24-.263-.618-.403-1.125-.276-1.013-.57-2.52-.871-4.451-.609-3.864-1.274-9.411-1.9-16.086a654.09 654.09 0 0 1-1.717-22.835c-.477-8.363-.854-17.296-.863-26.234.01-4.47.114-8.938.263-13.335.153-4.396.36-8.719.591-12.9a651.923 651.923 0 0 1 1.668-22.839c.614-6.671 1.275-12.222 1.892-16.086.31-1.932.609-3.439.898-4.447.144-.503.289-.88.424-1.117a.704.704 0 0 1 .202-.231c.061-.035.1-.026.1-.03 0 0-.039-.005-.1.03a.661.661 0 0 0-.202.231c-.14.237-.28.614-.42 1.117-.285 1.008-.578 2.52-.88 4.451-.604 3.864-1.222 9.415-1.83 16.09a647.552 647.552 0 0 0-1.633 22.835c-.452 8.363-.806 17.297-.815 26.23-.004 8.934.36 17.864.823 26.227a650.998 650.998 0 0 0 1.677 22.834c.622 6.676 1.244 12.227 1.844 16.09.293 1.932.582 3.443.853 4.456.136.507.267.889.399 1.125.061.12.131.202.188.241.057.038.096.03.096.034Z" fill="url(#o)"/><path d="M71.965 142.017s-.153.018-.399-.128c-.24-.146-.52-.455-.805-.911-.574-.905-1.182-2.361-1.813-4.245-1.261-3.782-2.618-9.316-3.901-16.022-1.279-6.706-2.5-14.579-3.446-23.058a289.486 289.486 0 0 1-1.17-13.098c-.292-4.469-.472-9.02-.472-13.57.013-4.55.201-9.097.49-13.566.294-4.469.688-8.856 1.152-13.098.928-8.478 2.11-16.36 3.367-23.066 1.257-6.71 2.6-12.248 3.88-16.026.639-1.885 1.27-3.331 1.869-4.22.298-.446.595-.738.845-.871.127-.056.223-.1.298-.095-.075 0-.171.043-.298.095-.245.133-.543.429-.836.875-.596.889-1.218 2.34-1.848 4.225-1.265 3.778-2.57 9.324-3.818 16.03-1.244 6.71-2.413 14.587-3.328 23.066-.906 8.479-1.58 17.559-1.602 26.656-.009 4.546.166 9.092.45 13.557.29 4.465.684 8.856 1.152 13.094.937 8.474 2.141 16.347 3.411 23.053 1.274 6.701 2.592 12.244 3.84 16.03.622 1.889 1.226 3.344 1.79 4.254.281.451.561.765.802.911.241.141.399.116.394.128h-.004Z" fill="url(#p)"/><path d="M71.97 142.017s-.036 0-.11-.008c-.07-.009-.184-.009-.315-.056-.276-.073-.662-.27-1.078-.635-.836-.726-1.786-2.052-2.758-3.855-1.948-3.607-4.05-9.093-6.03-15.82-1.978-6.727-3.848-14.704-5.266-23.354-1.415-8.646-2.404-17.966-2.409-27.321.018-4.675.28-9.346.705-13.922.43-4.58 1.016-9.071 1.717-13.394 1.396-8.65 3.218-16.64 5.162-23.376 1.948-6.736 4.024-12.23 6.012-15.824.99-1.79 1.97-3.104 2.837-3.786.429-.344.827-.528 1.103-.584.136-.043.25-.035.32-.043.07-.004.11-.009.11-.009s-.036 0-.11.009c-.07.008-.184 0-.32.047-.28.056-.674.236-1.103.584-.867.687-1.848 2-2.829 3.79-1.974 3.594-4.041 9.093-5.972 15.829-1.93 6.74-3.73 14.73-5.11 23.38a201.479 201.479 0 0 0-1.685 13.394c-.42 4.576-.67 9.243-.675 13.914-.013 4.666.233 9.337.644 13.913a193.27 193.27 0 0 0 1.703 13.39c1.401 8.646 3.254 16.627 5.215 23.354 1.966 6.727 4.05 12.218 5.994 15.829.968 1.803 1.914 3.133 2.746 3.859.411.365.796.562 1.072.635.136.048.245.052.316.056.07.004.109.009.109.009l.004-.005Z" fill="url(#q)"/><path d="M71.974 142.017s-.04 0-.114-.004c-.074-.008-.188 0-.333-.03-.293-.043-.718-.167-1.221-.434-1.016-.523-2.286-1.661-3.6-3.322-2.644-3.327-5.56-8.694-8.288-15.412-2.723-6.727-5.29-14.824-7.198-23.685-1.91-8.856-3.175-18.494-3.175-28.166.018-4.834.346-9.664.911-14.39a153.612 153.612 0 0 1 2.294-13.781c1.892-8.865 4.388-16.983 7.076-23.719 2.688-6.736 5.578-12.12 8.271-15.416 1.336-1.644 2.65-2.74 3.687-3.224a4.33 4.33 0 0 1 1.239-.378 4.368 4.368 0 0 0-1.24.382c-1.032.485-2.342 1.58-3.677 3.228-2.684 3.297-5.56 8.685-8.236 15.425-2.675 6.745-5.15 14.863-7.023 23.723a153.748 153.748 0 0 0-2.26 13.772 126.168 126.168 0 0 0-.88 14.373c-.017 4.83.294 9.655.837 14.378a146.016 146.016 0 0 0 2.272 13.772c1.887 8.861 4.436 16.957 7.146 23.684 2.706 6.723 5.613 12.094 8.249 15.425 1.31 1.666 2.575 2.803 3.59 3.327.504.266.928.391 1.222.434.144.03.258.021.333.03.074.004.114.008.114.008h.004Z" fill="url(#r)"/><path d="M71.982 142.018s-.157-.004-.464-.017c-.302-.043-.757-.099-1.318-.305-1.125-.382-2.649-1.288-4.282-2.773-1.642-1.482-3.415-3.508-5.21-6.002-1.795-2.494-3.612-5.448-5.377-8.788-3.525-6.676-6.835-14.892-9.265-24.002-1.213-4.555-2.22-9.329-2.903-14.231-.687-4.899-1.073-9.922-1.068-14.949.017-5.027.411-10.05 1.116-14.944a126.374 126.374 0 0 1 2.899-14.231c2.412-9.114 5.657-17.352 9.138-24.05 1.738-3.352 3.546-6.315 5.337-8.809 1.791-2.494 3.577-4.516 5.241-5.971C67.486 1.486 69.044.627 70.187.3c.28-.099.543-.137.762-.193.223-.026.412-.06.565-.069-.153.013-.342.043-.565.069-.219.056-.482.094-.762.193-1.143.33-2.697 1.19-4.352 2.653-1.664 1.456-3.441 3.482-5.224 5.976-1.786 2.494-3.586 5.46-5.315 8.814-3.468 6.701-6.69 14.944-9.081 24.053a124.303 124.303 0 0 0-2.868 14.223 108.991 108.991 0 0 0-1.086 14.927c-.013 5.019.364 10.037 1.038 14.931a119.579 119.579 0 0 0 2.868 14.223c2.408 9.105 5.7 17.322 9.212 24.002 1.756 3.34 3.569 6.298 5.355 8.792 1.786 2.494 3.555 4.525 5.193 6.006 1.629 1.49 3.152 2.4 4.273 2.782.56.206 1.016.262 1.318.305l.464.021v.009Z" fill="url(#s)"/><path d="M71.987 142.018s-.166 0-.486-.013c-.162-.008-.36-.039-.591-.06-.232-.039-.504-.082-.806-.159-1.208-.275-2.912-.992-4.825-2.284-1.918-1.283-4.054-3.125-6.235-5.478-2.185-2.352-4.431-5.198-6.611-8.487a91.883 91.883 0 0 1-6.257-11.072 103.262 103.262 0 0 1-5.224-13.183 102.664 102.664 0 0 1-3.538-14.734A97.024 97.024 0 0 1 36.14 70.96a97.529 97.529 0 0 1 1.327-15.584 106.257 106.257 0 0 1 3.55-14.733c2.978-9.385 7.028-17.726 11.354-24.32 2.159-3.297 4.383-6.17 6.572-8.517 2.185-2.349 4.33-4.182 6.275-5.431C67.153 1.108 68.887.473 70.1.22c-1.209.257-2.943.897-4.878 2.168-1.935 1.253-4.08 3.086-6.257 5.439-2.18 2.348-4.4 5.22-6.55 8.522-4.308 6.598-8.341 14.944-11.297 24.324a106.265 106.265 0 0 0-3.515 14.725 97.3 97.3 0 0 0-1.297 15.562 97.33 97.33 0 0 0 1.24 15.567c.81 5.091 2.023 10.037 3.502 14.725a103.227 103.227 0 0 0 5.193 13.183 91.6 91.6 0 0 0 6.231 11.076c2.172 3.289 4.413 6.139 6.594 8.496 2.176 2.357 4.304 4.199 6.222 5.491 1.913 1.292 3.612 2.009 4.82 2.288.298.077.57.116.806.159.237.026.434.056.591.06.32.009.486.017.486.017l-.004-.004Z" fill="url(#t)"/><path d="M71.991 142.018s-.17 0-.507-.013a11.764 11.764 0 0 1-1.472-.159c-1.274-.223-3.126-.76-5.276-1.876-2.154-1.099-4.606-2.743-7.167-4.924-2.562-2.177-5.233-4.89-7.842-8.092-2.619-3.194-5.171-6.882-7.531-10.978a90.774 90.774 0 0 1-6.305-13.437 91.391 91.391 0 0 1-4.221-15.283A90.063 90.063 0 0 1 30.18 70.96a89.646 89.646 0 0 1 1.55-16.288 93.48 93.48 0 0 1 4.252-15.274c3.581-9.668 8.52-18.065 13.7-24.496 2.596-3.216 5.241-5.946 7.807-8.123 2.561-2.176 5.03-3.799 7.202-4.864C66.864.846 68.725.34 70.008.164a9.41 9.41 0 0 1 .854-.099c.245-.017.455-.034.622-.034.332 0 .507-.005.507-.005s-.17 0-.507.005c-.167 0-.377.017-.622.034a9.59 9.59 0 0 0-.854.099c-1.283.18-3.14.69-5.307 1.764-2.171 1.065-4.637 2.692-7.194 4.873-2.557 2.18-5.197 4.915-7.785 8.13-5.162 6.436-10.083 14.837-13.643 24.5a93.897 93.897 0 0 0-4.216 15.267 89.785 89.785 0 0 0-1.52 16.266 90.24 90.24 0 0 0 1.458 16.27c.96 5.315 2.408 10.446 4.186 15.271a90.103 90.103 0 0 0 6.274 13.437c2.347 4.1 4.896 7.788 7.505 10.986 2.605 3.202 5.263 5.92 7.82 8.101 2.553 2.181 5 3.829 7.155 4.932 2.145 1.117 3.997 1.658 5.267 1.885a11.763 11.763 0 0 0 1.98.172h.003Z" fill="url(#u)"/><path d="M72 142.018s-.18-.009-.534-.021c-.35-.026-.876 0-1.546-.121-1.353-.137-3.31-.605-5.666-1.541-2.355-.94-5.096-2.374-8.008-4.362-2.92-1.979-5.981-4.546-9.028-7.624a75.565 75.565 0 0 1-8.845-10.797 83.593 83.593 0 0 1-7.457-13.656c-2.128-4.963-3.8-10.312-4.947-15.858a85.152 85.152 0 0 1-1.739-17.056 84.796 84.796 0 0 1 1.8-17.048c.258-1.395.635-2.756.968-4.117.157-.683.367-1.352.564-2.022.197-.67.395-1.335.592-2 .223-.657.446-1.314.665-1.967.228-.648.43-1.31.688-1.945.503-1.275.958-2.558 1.519-3.786 2.132-4.958 4.628-9.578 7.404-13.686 2.763-4.113 5.745-7.758 8.761-10.87 3.017-3.108 6.095-5.658 9.002-7.65 2.912-1.992 5.662-3.413 8.035-4.31.298-.112.582-.232.867-.33.285-.091.565-.177.836-.259.272-.081.53-.163.784-.24.254-.081.508-.12.744-.176.482-.099.924-.219 1.336-.283.416-.056.792-.103 1.125-.15.17-.022.329-.048.477-.056.15 0 .29-.009.42-.013l.653-.022c.35-.008.534-.017.534-.017s-.18.004-.534.017l-.652.022a87.8 87.8 0 0 1-.42.013c-.15.013-.307.038-.478.06-.337.047-.714.094-1.125.15-.412.064-.854.185-1.336.283-.24.06-.494.1-.744.18-.254.078-.512.16-.784.245-.271.082-.547.172-.836.258-.285.099-.57.219-.863.33-2.368.902-5.118 2.327-8.021 4.324-2.903 1.996-5.972 4.55-8.985 7.658-3.008 3.113-5.98 6.762-8.735 10.875-2.763 4.108-5.25 8.723-7.369 13.681-.556 1.228-1.011 2.512-1.51 3.787-.259.635-.456 1.292-.683 1.94-.22.653-.443 1.31-.662 1.966-.197.666-.39 1.331-.586 2.001-.197.67-.403 1.34-.56 2.022-.333 1.36-.706 2.722-.96 4.113a84.8 84.8 0 0 0-1.769 17.021A84.875 84.875 0 0 0 26.1 88.008c1.134 5.542 2.794 10.887 4.913 15.845a83.32 83.32 0 0 0 7.421 13.652 75.557 75.557 0 0 0 8.819 10.805c3.038 3.083 6.094 5.65 9.01 7.633 2.908 1.992 5.644 3.435 8 4.375 2.351.94 4.308 1.412 5.661 1.55.67.124 1.196.098 1.546.124.35.017.534.022.534.022l-.004.004Z" fill="url(#v)"/><path d="M72.004 142.017s-.188-.004-.56-.017c-.184-.004-.412-.013-.683-.022-.136 0-.285-.008-.442-.013-.158-.017-.324-.038-.5-.055-.354-.039-.753-.086-1.186-.133-.433-.065-.902-.164-1.41-.258-.512-.082-1.046-.228-1.62-.373-.289-.073-.582-.151-.889-.228-.302-.094-.608-.193-.928-.292-2.54-.794-5.535-2.048-8.766-3.855a63.945 63.945 0 0 1-10.175-7.092 75.856 75.856 0 0 1-10.176-10.544c-3.227-4.082-6.178-8.74-8.665-13.828-.333-.626-.609-1.283-.898-1.931-.289-.653-.582-1.31-.871-1.967-.263-.669-.525-1.343-.788-2.017-.258-.679-.543-1.348-.758-2.044-.45-1.386-.959-2.76-1.326-4.19-.197-.708-.399-1.42-.6-2.133-.18-.717-.333-1.443-.504-2.168-1.313-5.796-1.979-11.828-1.992-17.864a80.798 80.798 0 0 1 2.045-17.859c.293-1.46.735-2.872 1.116-4.297l.145-.532.17-.524.342-1.047c.232-.696.442-1.396.688-2.083 1.011-2.734 2.075-5.413 3.345-7.946 1.213-2.563 2.614-4.975 4.028-7.307.372-.57.744-1.137 1.116-1.704.373-.562.732-1.129 1.13-1.666.784-1.081 1.533-2.163 2.356-3.176 3.205-4.096 6.624-7.672 10.092-10.621 3.455-2.958 6.905-5.337 10.136-7.148 3.232-1.812 6.235-3.048 8.784-3.808C66.312.515 68.392.202 69.81.09c.355-.052.67-.039.942-.052.272-.004.5-.012.683-.012l.56-.013s-.188 0-.56.013c-.184 0-.411.008-.683.017-.271.008-.587 0-.941.051-1.423.116-3.499.434-6.051 1.198-2.549.764-5.552 2.005-8.775 3.82-3.227 1.812-6.668 4.195-10.118 7.162-3.46 2.949-6.87 6.53-10.062 10.625-.82 1.009-1.568 2.095-2.347 3.172-.399.537-.753 1.104-1.125 1.666l-1.113 1.704c-1.41 2.331-2.806 4.744-4.01 7.307-1.261 2.533-2.32 5.212-3.328 7.942-.24.687-.455 1.382-.683 2.078l-.341 1.047-.167.524-.144.532c-.377 1.421-.815 2.838-1.104 4.29a80.8 80.8 0 0 0-2.014 17.828c0 6.023.657 12.046 1.957 17.833.167.721.32 1.447.5 2.164.197.713.398 1.42.595 2.13.363 1.425.871 2.798 1.318 4.18.214.696.499 1.366.753 2.04.263.674.521 1.348.784 2.018l.867 1.961c.289.653.564 1.306.893 1.932 2.478 5.088 5.412 9.745 8.63 13.828a75.532 75.532 0 0 0 10.15 10.552 64.518 64.518 0 0 0 10.157 7.105c3.227 1.808 6.218 3.066 8.753 3.864.315.103.626.198.924.292.306.077.6.154.889.227.573.146 1.107.297 1.62.378.508.09.976.193 1.41.258.437.051.831.094 1.186.137.18.022.346.039.5.056.157.004.306.013.442.017l.683.022c.367.013.56.017.56.017l.004.017Z" fill="url(#w)"/><path d="M72.009 142.018s-.201 0-.587-.013c-.192-.005-.433-.009-.718-.017-.284-.009-.617-.009-.99-.052l-1.247-.116c-.114-.013-.232-.021-.35-.034-.119-.017-.241-.039-.364-.056-.25-.039-.508-.077-.775-.12-.267-.039-.547-.086-.832-.129-.289-.047-.582-.12-.884-.18l-.942-.202-.49-.103c-.162-.043-.333-.086-.5-.133-2.71-.679-5.932-1.765-9.466-3.392-3.529-1.622-7.36-3.786-11.252-6.555-3.902-2.756-7.807-6.186-11.498-10.213-3.704-4.014-7.093-8.715-9.944-13.935-.18-.327-.363-.653-.543-.979-.184-.326-.332-.67-.503-1-.329-.674-.657-1.348-.99-2.027-.17-.335-.324-.682-.468-1.034-.15-.348-.298-.696-.447-1.048-.289-.7-.613-1.395-.876-2.112a620.29 620.29 0 0 1-.788-2.164l-.394-1.086-.337-1.107a610.12 610.12 0 0 0-.679-2.224c-.122-.37-.201-.751-.297-1.13l-.28-1.133c-1.498-6.053-2.242-12.385-2.26-18.717a77.288 77.288 0 0 1 2.308-18.71c1.488-6.056 3.83-11.788 6.672-17.008 2.825-5.238 6.27-9.895 9.913-13.96 3.635-4.08 7.566-7.484 11.424-10.296 3.862-2.807 7.67-5.014 11.209-6.628 3.529-1.627 6.764-2.692 9.48-3.353a39.281 39.281 0 0 1 6.4-.983c.75-.043 1.323-.03 1.708-.043-.385.013-.959 0-1.707.047-1.493.108-3.683.34-6.397.992-2.71.67-5.942 1.739-9.467 3.37-3.529 1.619-7.334 3.83-11.191 6.641-3.849 2.817-7.772 6.225-11.397 10.304-3.63 4.07-7.067 8.727-9.878 13.96-2.829 5.216-5.158 10.943-6.634 16.992a77.42 77.42 0 0 0-2.272 18.675c0 6.32.736 12.643 2.224 18.687l.276 1.13c.096.377.175.76.298 1.124.223.743.446 1.481.674 2.22l.333 1.107.394 1.082c.263.721.52 1.442.784 2.16.262.716.586 1.408.87 2.107.15.348.294.696.443 1.044.145.347.294.699.464 1.034l.985 2.026c.171.335.316.679.5 1.005l.538.979c2.837 5.216 6.213 9.921 9.909 13.935 3.682 4.027 7.575 7.466 11.471 10.222 3.884 2.773 7.71 4.941 11.236 6.572 3.524 1.632 6.751 2.722 9.453 3.4.17.043.337.09.499.133.166.039.328.069.49.108.324.068.635.137.942.201.306.061.6.134.884.181.29.043.565.09.832.129.267.043.525.081.775.12.123.021.245.038.363.056.119.012.237.021.35.034l1.249.116c.372.043.7.047.99.051.284.009.525.013.717.018.386.008.587.017.587.017v.013Z" fill="url(#x)"/><path d="M72.017 142.017s-.21 0-.613-.013c-.407-.017-1.007 0-1.79-.051-1.568-.095-3.862-.322-6.739-.893-2.872-.576-6.314-1.524-10.127-2.967a75.553 75.553 0 0 1-12.264-6.036c-.535-.33-1.086-.644-1.616-.996-.53-.356-1.069-.712-1.611-1.073-.272-.18-.543-.365-.82-.545-.266-.193-.533-.391-.8-.584-.535-.395-1.078-.786-1.62-1.185-.544-.399-1.06-.841-1.599-1.266a102.3 102.3 0 0 0-.805-.644 13.192 13.192 0 0 1-.797-.67c-1.038-.927-2.133-1.829-3.14-2.846-.512-.498-1.033-1.001-1.554-1.507l-1.497-1.597-.758-.807c-.25-.275-.482-.563-.722-.846-.482-.567-.964-1.138-1.45-1.713-.481-.579-.92-1.193-1.388-1.794-.455-.61-.941-1.198-1.357-1.842-.433-.635-.867-1.271-1.3-1.91l-.329-.481-.302-.498-.604-.996c-1.664-2.645-3.043-5.508-4.361-8.432-.293-.747-.587-1.494-.885-2.245-.293-.751-.604-1.498-.836-2.275-.254-.769-.503-1.542-.757-2.319l-.189-.58c-.056-.197-.105-.394-.157-.592l-.311-1.184c-1.69-6.32-2.522-12.961-2.54-19.602 0-6.637.867-13.287 2.58-19.594.104-.395.196-.794.315-1.184l.376-1.164c.25-.777.5-1.55.745-2.322.28-.76.577-1.512.866-2.267l.434-1.13c.14-.377.324-.733.482-1.102.328-.735.656-1.46.985-2.19.153-.37.346-.717.53-1.069.183-.352.363-.704.547-1.056.184-.352.363-.704.547-1.052.092-.176.18-.352.276-.524l.298-.506c.398-.678.792-1.352 1.19-2.026l.298-.503.32-.489c.215-.326.43-.648.64-.97.214-.322.424-.644.639-.966.21-.322.42-.644.652-.949.915-1.228 1.778-2.481 2.754-3.628.477-.58.941-1.167 1.423-1.73a2088.854 2088.854 0 0 0 2.22-2.464l.766-.777c.512-.515 1.016-1.03 1.52-1.541a77.65 77.65 0 0 1 12.737-9.908 72.064 72.064 0 0 1 12.237-6.088A62.36 62.36 0 0 1 62.884.876c.722-.13 1.401-.25 2.045-.365L66.75.279c.565-.082 1.09-.116 1.568-.146l1.309-.09c.784-.026 1.388-.017 1.79-.026.403 0 .614-.004.614-.004s-.21 0-.613.008c-.408.009-1.008 0-1.791.026-.39.026-.828.06-1.31.094-.481.035-1.006.065-1.571.15-.565.074-1.17.151-1.817.233-.644.115-1.323.24-2.045.369-2.872.57-6.318 1.498-10.119 2.966a72.064 72.064 0 0 0-12.22 6.1 77.42 77.42 0 0 0-12.711 9.922l-1.52 1.537c-.253.257-.507.52-.765.777-.246.27-.49.545-.736.815-.49.55-.985 1.095-1.48 1.649-.482.567-.941 1.155-1.419 1.734-.976 1.142-1.834 2.396-2.745 3.624-.232.304-.438.626-.648.948-.21.322-.425.644-.635.966-.214.322-.425.644-.64.97l-.314.49-.294.502c-.394.67-.788 1.348-1.186 2.026l-.298.507c-.096.172-.184.348-.276.524-.18.352-.363.7-.543 1.052-.18.352-.363.704-.547 1.056-.18.352-.372.704-.526 1.069-.324.725-.652 1.455-.98 2.185-.158.369-.342.725-.478 1.103l-.433 1.125c-.285.751-.582 1.502-.863 2.262-.245.773-.494 1.541-.74 2.319l-.372 1.163c-.114.39-.206.79-.315 1.18-1.699 6.307-2.557 12.927-2.544 19.56.009 6.628.828 13.256 2.505 19.567l.31 1.18c.053.198.101.395.158.593l.188.58c.254.772.504 1.545.753 2.313.232.777.543 1.524.832 2.276l.88 2.24c1.314 2.92 2.684 5.779 4.344 8.424.201.334.403.665.6 1l.302.494.324.48c.433.64.867 1.275 1.296 1.911.416.644.902 1.232 1.353 1.842.464.601.906 1.214 1.38 1.79.485.575.967 1.142 1.444 1.708.24.284.473.571.722.846.254.271.504.537.753.807.5.537.999 1.069 1.494 1.601.52.507 1.037 1.009 1.55 1.507 1.007 1.018 2.097 1.919 3.13 2.847.258.236.526.455.797.669l.806.648c.538.426 1.055.868 1.598 1.267.543.399 1.081.794 1.616 1.185.267.197.534.39.8.584a791.113 791.113 0 0 1 2.421 1.622c.53.352 1.083.67 1.617 1.001a75.822 75.822 0 0 0 12.246 6.049c3.81 1.446 7.251 2.399 10.12 2.979 2.871.575 5.166.807 6.733.901.784.052 1.384.039 1.791.052l.613.013.004.017Z" fill="url(#y)"/><path d="M72.022 142.017h-.644c-.424-.004-1.055.009-1.878-.017-1.642-.073-4.059-.206-7.102-.683a78.38 78.38 0 0 1-10.793-2.528c-4.09-1.267-8.626-2.997-13.306-5.435-1.165-.618-2.365-1.228-3.538-1.941-.591-.347-1.187-.699-1.79-1.051-.588-.378-1.183-.76-1.779-1.147-.297-.193-.6-.386-.902-.579-.302-.193-.586-.412-.884-.618-.587-.417-1.182-.842-1.782-1.262-.6-.421-1.165-.898-1.756-1.353-.293-.227-.587-.459-.884-.691a15.037 15.037 0 0 1-.872-.713c-1.134-.991-2.325-1.962-3.42-3.056-.555-.541-1.129-1.069-1.68-1.623-.54-.571-1.078-1.146-1.62-1.721-.272-.292-.548-.576-.81-.872-.259-.305-.513-.61-.771-.914a561.506 561.506 0 0 0-1.55-1.851l-1.454-1.953c-.245-.326-.486-.657-.731-.987-.232-.335-.451-.683-.679-1.026-.45-.687-.906-1.378-1.361-2.074-.434-.708-.832-1.438-1.257-2.159-.871-1.426-1.563-2.967-2.33-4.474-.197-.377-.359-.768-.52-1.159-.163-.39-.329-.781-.495-1.172l-.495-1.176-.25-.593c-.078-.197-.14-.403-.214-.605-.28-.807-.565-1.614-.85-2.425-.135-.408-.302-.807-.407-1.224l-.35-1.245C.958 85.062.03 78.06 0 71.067c0-.898.048-1.748.07-2.623l.04-1.301c.013-.434.017-.868.065-1.305l.237-2.62.118-1.309.192-1.296c.132-.863.259-1.721.39-2.584.053-.434.158-.855.245-1.28l.272-1.275.271-1.27.136-.636c.048-.21.114-.416.17-.627.233-.832.465-1.665.693-2.498.21-.837.507-1.644.788-2.456.284-.811.547-1.627.85-2.425.328-.79.652-1.58.976-2.366.166-.39.32-.785.494-1.176.184-.382.372-.764.556-1.142.373-.76.74-1.52 1.108-2.275.412-.734.819-1.464 1.23-2.194.206-.365.408-.73.613-1.09l.67-1.052 1.336-2.087c.482-.665.959-1.33 1.436-1.996.24-.33.477-.66.714-.992.254-.317.508-.63.761-.948.508-.627 1.012-1.258 1.516-1.88.525-.602 1.068-1.186 1.598-1.778.267-.296.53-.588.796-.88.268-.292.552-.558.828-.841.552-.554 1.103-1.104 1.655-1.653.556-.537 1.143-1.04 1.703-1.559.57-.51 1.121-1.034 1.717-1.502 4.628-3.877 9.427-7.032 14.099-9.475a80.174 80.174 0 0 1 13.27-5.52A72.79 72.79 0 0 1 62.408.635C65.445.145 67.87.072 69.513 0c1.646.009 2.522.009 2.522.009s-.88.012-2.522.043c-1.638.103-4.055.24-7.076.772a71.722 71.722 0 0 0-10.71 2.68c-4.045 1.339-8.502 3.189-13.122 5.657-4.62 2.465-9.348 5.646-13.897 9.53-.582.469-1.125.992-1.681 1.503-.552.515-1.126 1.022-1.673 1.559l-1.62 1.652c-.267.28-.552.55-.81.838l-.775.875c-.517.589-1.047 1.172-1.563 1.773-.495.619-.994 1.237-1.493 1.86l-.749.94c-.232.326-.468.652-.7.978l-1.41 1.975c-.434.687-.872 1.374-1.31 2.065-.219.348-.438.691-.656 1.039-.202.356-.403.717-.6 1.078l-1.204 2.167c-.364.747-.723 1.499-1.086 2.25-.184.373-.364.751-.543 1.129-.17.382-.324.773-.482 1.16-.32.776-.635 1.553-.959 2.335-.293.79-.551 1.597-.832 2.395-.271.803-.564 1.601-.766 2.426-.223.82-.45 1.644-.679 2.464-.052.206-.118.408-.166.618l-.131.627-.263 1.258-.267 1.258c-.083.42-.188.837-.236 1.266-.127.85-.25 1.7-.377 2.55l-.188 1.275-.11 1.284-.223 2.571c-.048.425-.053.863-.061 1.297L1.06 68.46c-.018.863-.057 1.751-.062 2.593.01 6.916.902 13.832 2.768 20.374l.341 1.228c.105.412.267.807.398 1.206.276.799.557 1.597.828 2.396.07.197.136.4.21.597l.245.584.486 1.163.486 1.159c.158.386.316.773.508 1.142.753 1.49 1.428 3.009 2.282 4.422.411.712.805 1.434 1.23 2.133.447.683.893 1.366 1.335 2.048.224.339.438.683.67 1.013.241.322.482.649.718.975.477.648.955 1.292 1.432 1.936l1.52 1.833c.253.305.503.61.753.915.258.296.53.579.792.871.53.575 1.06 1.151 1.585 1.717.539.558 1.103 1.086 1.646 1.623 1.073 1.095 2.242 2.061 3.354 3.057.276.253.565.485.858.717.29.231.578.463.867.691.583.45 1.139.931 1.73 1.356.591.425 1.173.85 1.751 1.271.294.206.574.425.872.623.297.197.595.39.888.583.587.387 1.174.773 1.752 1.151l1.769 1.06c1.156.717 2.342 1.335 3.494 1.962a83.154 83.154 0 0 0 13.157 5.573 77.978 77.978 0 0 0 10.714 2.687 65.79 65.79 0 0 0 7.072.816c.823.043 1.453.038 1.878.055.425.009.644.018.644.018l-.01.008Z" fill="url(#z)"/><path d="M22.803 20.607s.337.219.994.593c.657.373 1.62.914 2.877 1.545a83.24 83.24 0 0 0 4.593 2.155c1.79.794 3.862 1.588 6.125 2.426 1.143.386 2.325.824 3.569 1.197.622.194 1.252.4 1.896.588.648.185 1.304.365 1.97.554.666.198 1.344.36 2.032.533.691.167 1.383.352 2.093.515 1.423.296 2.867.648 4.356.893.74.133 1.493.266 2.246.403.758.112 1.524.224 2.29.335l1.156.168 1.17.128c.779.086 1.567.168 2.355.254.788.073 1.585.116 2.382.176.797.047 1.594.133 2.395.141 1.602.039 3.214.133 4.825.086l2.413-.021c.805-.022 1.606-.078 2.408-.112.801-.047 1.602-.069 2.4-.133.792-.073 1.584-.15 2.372-.227 1.58-.116 3.135-.365 4.677-.576 1.545-.184 3.043-.51 4.527-.777 1.493-.249 2.93-.627 4.343-.953.705-.172 1.41-.318 2.093-.51.683-.198 1.358-.391 2.023-.58.666-.19 1.322-.378 1.966-.567.324-.086.644-.193.955-.3.31-.108.621-.21.932-.318 1.231-.42 2.426-.811 3.564-1.22 1.126-.442 2.198-.867 3.223-1.27.512-.202 1.011-.4 1.497-.588.473-.215.937-.421 1.384-.623l2.509-1.124c.385-.177.762-.335 1.112-.503.346-.176.674-.343.989-.506 2.509-1.275 3.941-2.005 3.941-2.005s-1.427.738-3.932 2.03c-.311.163-.643.335-.989.511-.351.172-.723.335-1.108.511l-2.5 1.142c-.447.202-.907.412-1.379.631-.486.193-.981.395-1.493.597l-3.223 1.28c-1.138.411-2.334.802-3.564 1.227-.307.107-.618.21-.933.318-.311.111-.63.214-.954.3-.644.19-1.301.378-1.966.571l-2.023.584c-.683.193-1.388.34-2.093.515-1.414.326-2.855.713-4.348.962-1.489.27-2.99.6-4.536.79-1.541.214-3.096.468-4.68.588-.793.077-1.586.154-2.378.227-.797.073-1.598.095-2.4.142-.8.039-1.606.094-2.412.116l-2.417.026c-1.616.043-3.227-.056-4.83-.099-.805-.013-1.602-.099-2.399-.146-.797-.064-1.594-.107-2.382-.185-.788-.085-1.576-.171-2.355-.261l-1.17-.13c-.385-.055-.77-.115-1.155-.171-.771-.112-1.537-.227-2.295-.34-.757-.136-1.506-.274-2.246-.407-1.493-.249-2.934-.605-4.36-.906-.71-.163-1.406-.348-2.094-.52-.692-.17-1.37-.338-2.036-.536-.665-.189-1.322-.373-1.97-.562-.644-.19-1.274-.4-1.896-.593-1.248-.378-2.43-.815-3.573-1.206-2.264-.837-4.326-1.644-6.117-2.451a79.32 79.32 0 0 1-4.584-2.186c-1.257-.64-2.215-1.189-2.868-1.562-.652-.378-.99-.597-.99-.597l-.004.013Z" fill="url(#A)"/><path d="M10.018 35.074s1.86.631 5.175 1.533c1.656.45 3.678.974 6.008 1.515 2.33.554 4.97 1.112 7.86 1.692 1.448.27 2.95.57 4.518.833.783.133 1.576.27 2.386.407.81.13 1.633.258 2.465.387 1.664.27 3.39.485 5.14.734.88.107 1.77.215 2.667.326.45.052.902.108 1.353.163l1.366.142c.915.094 1.839.189 2.772.288.932.09 1.87.163 2.81.244 1.888.176 3.801.288 5.732.412.963.07 1.935.108 2.907.15l2.925.13c1.957.042 3.919.107 5.885.12 3.927.025 7.855-.013 11.721-.19l2.886-.128c.959-.034 1.909-.124 2.85-.185.946-.068 1.883-.133 2.82-.197.932-.065 1.856-.172 2.771-.253 1.835-.176 3.639-.34 5.395-.576.88-.107 1.747-.219 2.609-.322.429-.056.858-.111 1.279-.163l1.261-.193c1.668-.262 3.292-.494 4.86-.755 1.563-.288 3.074-.563 4.518-.83.364-.068.723-.132 1.078-.2.35-.078.7-.151 1.046-.224.692-.146 1.362-.292 2.019-.43.656-.141 1.296-.274 1.917-.407.311-.065.618-.133.92-.193a993.467 993.467 0 0 1 4.137-1.017c1.008-.25 1.931-.465 2.755-.71l5.197-1.459-5.193 1.486c-.823.248-1.747.468-2.754.72-1.003.254-2.089.525-3.249.816-.289.073-.587.146-.884.224-.303.064-.609.133-.92.202-.622.137-1.261.274-1.918.42l-2.018.438c-.346.077-.692.15-1.047.228-.354.068-.713.133-1.077.201-1.449.266-2.955.546-4.518.837-1.568.267-3.192.498-4.861.765l-1.261.193c-.424.056-.849.107-1.282.163-.859.107-1.73.219-2.61.33-1.756.24-3.564.404-5.394.584-.92.086-1.84.198-2.772.262-.933.069-1.874.133-2.82.202-.945.06-1.895.155-2.854.189-.96.047-1.923.09-2.886.137-3.862.18-7.798.228-11.725.21-1.966-.017-3.932-.085-5.885-.132-.977-.043-1.953-.09-2.93-.133-.971-.043-1.943-.082-2.907-.155-1.93-.129-3.848-.24-5.736-.42-.945-.087-1.882-.16-2.815-.25-.932-.099-1.852-.193-2.767-.292-.46-.047-.915-.098-1.37-.146-.456-.055-.903-.111-1.354-.167-.897-.112-1.786-.223-2.666-.33-1.756-.254-3.477-.473-5.145-.743-.832-.133-1.655-.262-2.465-.391-.81-.137-1.607-.279-2.386-.412-1.568-.262-3.07-.567-4.519-.842-2.885-.58-5.53-1.15-7.855-1.717a166.105 166.105 0 0 1-6.003-1.545c-3.31-.915-5.17-1.559-5.17-1.559l.008-.017Z" fill="url(#B)"/><path d="M4.69 46.988s.516.107 1.492.275c.972.184 2.409.416 4.23.712.915.138 1.927.288 3.03.451.552.082 1.125.167 1.72.253l1.853.245c1.278.167 2.636.343 4.067.528 1.437.163 2.947.335 4.52.51.787.087 1.588.185 2.412.271.818.078 1.655.155 2.509.236 1.698.16 3.458.322 5.267.49 1.813.133 3.673.27 5.574.412.95.069 1.913.142 2.88.21l2.943.155c1.98.103 3.989.21 6.025.318 2.036.081 4.102.124 6.178.193l3.13.09c.526.017 1.047.03 1.572.047.526 0 1.051.005 1.577.009 2.106.008 4.216.021 6.331.03 1.055.004 2.115.013 3.17.021l3.161-.064c2.102-.043 4.2-.082 6.28-.125.52-.013 1.037-.021 1.553-.03l.775-.017.775-.034c1.03-.052 2.054-.099 3.074-.146 2.036-.095 4.05-.193 6.025-.288.99-.056 1.97-.081 2.942-.154.972-.073 1.931-.15 2.881-.224 1.901-.145 3.761-.291 5.57-.433.906-.069 1.799-.142 2.679-.21.438-.035.876-.07 1.31-.1l1.283-.14c1.698-.19 3.34-.366 4.912-.542 1.576-.171 3.087-.335 4.523-.493 1.436-.155 2.802-.288 4.072-.49 2.548-.365 4.773-.682 6.603-.94 3.66-.524 5.753-.82 5.753-.82s-2.088.309-5.749.846c-1.83.27-4.05.596-6.598.974-1.27.206-2.636.344-4.072.507-1.436.159-2.947.326-4.519.502-1.576.176-3.218.356-4.917.545l-1.287.142-1.309.103c-.88.069-1.773.142-2.68.21-1.813.146-3.669.292-5.574.442-.95.078-1.913.15-2.88.228-.973.073-1.954.103-2.943.159-1.98.099-3.993.197-6.03.296-1.02.052-2.044.099-3.073.15l-.775.039-.775.017c-.517.009-1.038.022-1.559.03-2.08.047-4.177.09-6.283.133-1.05.022-2.106.047-3.165.069a663701.202 663701.202 0 0 0-9.501-.056c-.526 0-1.052-.008-1.577-.013-.526-.017-1.047-.03-1.572-.047-1.046-.034-2.093-.064-3.13-.099-2.08-.068-4.147-.116-6.183-.202-2.036-.107-4.046-.218-6.025-.326-.99-.051-1.97-.107-2.942-.159-.972-.073-1.931-.145-2.881-.214-1.9-.146-3.761-.288-5.574-.42-1.808-.173-3.569-.34-5.267-.499-.85-.082-1.686-.163-2.51-.24-.818-.082-1.624-.185-2.412-.27-1.572-.181-3.082-.357-4.518-.524-1.432-.194-2.79-.374-4.068-.546-.64-.086-1.257-.171-1.852-.253-.596-.09-1.17-.176-1.72-.262-1.1-.167-2.116-.326-3.026-.468-1.822-.305-3.258-.545-4.23-.734-.976-.176-1.493-.283-1.493-.283l.017.017Z" fill="url(#C)"/><path d="M1.922 56.776s2.19.167 6.025.403c1.918.108 4.247.258 6.918.382 1.336.065 2.759.138 4.256.21 1.498.07 3.078.138 4.72.207 3.288.15 6.857.262 10.627.403 1.887.052 3.822.108 5.801.163.99.03 1.992.056 3.004.086 1.011.022 2.031.039 3.06.06 2.058.043 4.151.082 6.266.125 2.12.026 4.265.047 6.423.073 4.322.064 8.714.056 13.105.06 1.1 0 2.194.004 3.293.009l3.284-.026 6.524-.052a393.69 393.69 0 0 0 6.423-.094c2.12-.039 4.208-.082 6.27-.12 1.029-.022 2.049-.043 3.06-.06 1.012-.03 2.01-.065 3-.095 1.979-.06 3.918-.12 5.801-.18 1.883-.064 3.722-.103 5.495-.189 1.774-.077 3.486-.155 5.132-.228 1.646-.073 3.222-.141 4.72-.206 1.497-.064 2.925-.115 4.256-.197 2.671-.15 5-.283 6.918-.395 3.835-.219 6.029-.34 6.029-.34l-6.025.37c-1.918.116-4.247.258-6.918.425-2.671.163-5.688.279-8.976.438-1.646.073-3.358.154-5.131.232-1.774.09-3.608.124-5.495.193-1.888.064-3.823.124-5.802.189-.989.03-1.992.064-2.999.099-1.012.021-2.032.042-3.06.068l-6.27.129c-2.12.047-4.261.094-6.424.103l-6.528.064c-1.09.009-2.19.022-3.284.03h-3.293c-4.391-.008-8.783-.008-13.105-.081-2.163-.03-4.304-.056-6.423-.082-2.12-.047-4.208-.09-6.265-.133l-3.061-.064-3.004-.09c-1.979-.06-3.919-.116-5.801-.176-3.77-.146-7.339-.262-10.627-.421l-4.72-.219-4.256-.232c-2.67-.142-5-.296-6.918-.416-3.831-.254-6.02-.43-6.02-.43l-.005.005Z" fill="url(#D)"/><path d="M.258 65.005s35.838-.042 71.676-.081c35.838.043 71.681.081 71.681.081s-35.838.039-71.68.082C36.095 65.044.257 65.005.257 65.005Z" fill="#E5BB44"/><path d="M.258 65.005s35.838-.042 71.676-.081c35.838.043 71.681.081 71.681.081s-35.838.039-71.68.082C36.095 65.044.257 65.005.257 65.005Z" fill="url(#E)" fill-opacity=".7"/><path d="M.486 71.093S36.245 71.05 72 71.012c35.755.038 71.514.081 71.514.081s-35.759.039-71.514.082C36.24 71.132.486 71.093.486 71.093Z" fill="url(#F)"/><path d="M22.803 121.734s.337-.219.99-.597a58.797 58.797 0 0 1 2.868-1.563 82.365 82.365 0 0 1 4.584-2.185c1.786-.807 3.853-1.618 6.117-2.451 1.142-.391 2.325-.829 3.573-1.207.621-.193 1.252-.403 1.895-.592.648-.185 1.305-.369 1.97-.562.666-.198 1.345-.365 2.037-.537.687-.172 1.383-.356 2.093-.519 1.423-.301 2.868-.657 4.356-.906.745-.133 1.493-.271 2.25-.408.758-.112 1.525-.223 2.295-.339.386-.056.77-.112 1.156-.172.39-.043.78-.09 1.17-.129.779-.086 1.567-.171 2.355-.262.788-.077 1.585-.12 2.382-.18.797-.047 1.598-.137 2.4-.146 1.606-.039 3.217-.142 4.829-.099l2.416.026c.806.022 1.612.077 2.413.116.801.047 1.603.069 2.4.142.796.077 1.589.154 2.377.227 1.585.12 3.14.374 4.68.588 1.546.185 3.048.52 4.537.79 1.493.249 2.929.636 4.348.962.705.176 1.41.322 2.093.515l2.022.584 1.966.567c.324.086.644.193.955.304.315.108.626.215.932.318 1.231.425 2.426.82 3.565 1.228 1.12.446 2.198.871 3.222 1.279.512.206 1.007.404 1.493.601.477.215.933.425 1.379.631l2.501 1.142c.385.176.757.344 1.107.511.346.176.675.348.99.511 2.504 1.292 3.932 2.026 3.932 2.026s-1.436-.729-3.941-2.005c-.315-.158-.644-.326-.989-.502-.351-.167-.727-.326-1.113-.502-.775-.348-1.611-.726-2.508-1.125-.447-.202-.907-.408-1.384-.622-.486-.189-.985-.387-1.498-.588-1.024-.404-2.101-.825-3.222-1.271-1.134-.408-2.334-.799-3.564-1.219-.307-.108-.618-.211-.933-.318-.311-.107-.63-.215-.954-.301l-1.966-.562c-.666-.189-1.34-.382-2.023-.58-.683-.193-1.388-.334-2.093-.51-1.414-.327-2.85-.704-4.344-.953-1.484-.267-2.986-.597-4.527-.778-1.541-.21-3.096-.459-4.676-.579-.788-.073-1.58-.15-2.373-.223-.797-.069-1.598-.09-2.4-.133-.8-.035-1.602-.095-2.408-.112l-2.412-.017c-1.612-.047-3.219.051-4.826.086-.8.008-1.598.094-2.394.141-.797.06-1.59.103-2.383.176-.788.086-1.571.168-2.355.258l-1.17.129-1.155.167c-.77.112-1.533.223-2.29.335l-2.246.404c-1.493.244-2.934.596-4.357.897-.71.159-1.4.343-2.093.515-.687.172-1.37.335-2.031.532-.666.189-1.323.374-1.97.554-.644.189-1.275.395-1.897.588-1.247.374-2.425.812-3.568 1.198-2.264.833-4.33 1.627-6.125 2.426-1.8.781-3.341 1.515-4.594 2.155a67.397 67.397 0 0 0-2.876 1.545c-.653.378-.994.593-.994.593l.004-.013Z" fill="url(#G)"/><path d="M10.018 107.262s1.856-.64 5.171-1.555a159.1 159.1 0 0 1 6.003-1.545c2.325-.571 4.965-1.138 7.855-1.722 1.45-.274 2.951-.579 4.519-.841l2.386-.416c.81-.129 1.633-.258 2.465-.391 1.668-.271 3.389-.489 5.145-.743.88-.111 1.769-.219 2.666-.33l1.353-.168c.456-.047.91-.099 1.366-.146.915-.094 1.84-.193 2.772-.292.932-.09 1.87-.163 2.815-.249 1.887-.176 3.805-.291 5.736-.42.963-.073 1.935-.112 2.907-.155s1.949-.09 2.93-.133c1.957-.047 3.918-.112 5.884-.129 3.932-.021 7.864.026 11.726.21.968.044 1.927.09 2.885.138.96.039 1.91.129 2.855.189.946.069 1.887.133 2.82.202.933.064 1.856.176 2.772.261 1.834.18 3.638.344 5.394.589.88.111 1.751.219 2.609.33.429.056.859.108 1.283.163l1.261.194c1.668.261 3.293.498 4.86.764 1.564.287 3.074.566 4.519.837.363.069.722.133 1.077.202.35.077.701.15 1.047.227l2.018.438c.657.142 1.296.283 1.918.416.311.069.617.134.919.202.298.073.596.15.885.223 1.16.292 2.246.563 3.249.816 1.002.253 1.931.472 2.754.721l5.193 1.486s-1.892-.533-5.198-1.456c-.823-.244-1.751-.459-2.754-.708-1.007-.249-2.093-.515-3.253-.798-.289-.073-.587-.142-.884-.219-.303-.065-.609-.129-.92-.198-.622-.133-1.261-.27-1.918-.408-.656-.141-1.326-.283-2.018-.433-.342-.073-.692-.151-1.047-.224-.354-.064-.713-.133-1.077-.197-1.449-.266-2.96-.541-4.518-.829-1.563-.261-3.192-.493-4.86-.755-.416-.065-.837-.129-1.261-.193-.425-.056-.85-.108-1.279-.163-.858-.108-1.73-.215-2.61-.327-1.755-.24-3.56-.399-5.394-.575-.915-.082-1.839-.193-2.772-.253-.932-.069-1.874-.133-2.82-.198-.945-.06-1.895-.15-2.85-.184l-2.885-.13c-3.866-.175-7.794-.214-11.721-.188-1.966.017-3.928.077-5.885.12l-2.925.129c-.972.043-1.944.082-2.907.15-1.931.125-3.845.236-5.732.412-.941.082-1.882.155-2.81.245-.929.095-1.853.193-2.772.288-.46.047-.915.094-1.366.146a145.4 145.4 0 0 1-1.353.163c-.898.107-1.787.219-2.667.326-1.751.249-3.476.468-5.14.734-.832.129-1.655.262-2.465.387l-2.386.407c-1.568.262-3.074.563-4.52.833-2.889.58-5.53 1.134-7.859 1.692-2.329.541-4.352 1.064-6.007 1.515-3.314.902-5.175 1.528-5.175 1.528l-.009-.012Z" fill="url(#H)"/><path d="M4.69 95.349s.516-.108 1.493-.284c.972-.189 2.408-.425 4.23-.734.914-.142 1.926-.296 3.025-.468.551-.081 1.125-.171 1.72-.262.596-.081 1.213-.163 1.853-.253 1.274-.172 2.635-.356 4.067-.545 1.436-.168 2.942-.34 4.519-.524.788-.09 1.59-.189 2.412-.27.82-.078 1.655-.16 2.51-.24 1.702-.16 3.463-.327 5.267-.499 1.812-.137 3.673-.279 5.573-.42.95-.073 1.914-.142 2.881-.215.972-.056 1.953-.107 2.943-.159 1.979-.107 3.993-.215 6.025-.326 2.036-.086 4.102-.133 6.182-.202 1.038-.034 2.084-.064 3.13-.099.526-.017 1.047-.03 1.572-.047.526 0 1.051-.004 1.577-.009 2.106-.012 4.22-.025 6.331-.042 1.055 0 2.115-.009 3.17-.018 1.055.022 2.11.048 3.166.07 2.106.042 4.203.09 6.283.132.52.013 1.038.022 1.559.034l.775.018.775.038c1.029.052 2.053.1 3.073.15 2.036.1 4.05.198 6.03.297.99.056 1.97.086 2.942.159.972.077 1.931.154 2.881.227 1.9.15 3.761.296 5.574.442.906.073 1.799.142 2.679.21l1.31.104 1.287.141c1.699.19 3.341.374 4.917.546 1.576.176 3.087.347 4.519.506 1.436.163 2.797.3 4.072.507 2.548.373 4.772.704 6.598.974 3.66.537 5.749.846 5.749.846s-2.093-.296-5.753-.82c-1.831-.262-4.051-.58-6.603-.94-1.27-.202-2.636-.335-4.072-.49-1.436-.158-2.947-.322-4.523-.493a1998.202 1998.202 0 0 1-6.196-.683l-1.309-.103c-.88-.069-1.773-.137-2.68-.206-1.808-.142-3.669-.283-5.569-.433-.95-.073-1.909-.15-2.881-.224-.972-.073-1.953-.103-2.942-.154l-6.025-.288c-1.02-.047-2.04-.094-3.074-.146l-.775-.038-.775-.018c-.517-.008-1.038-.021-1.554-.03-2.08-.043-4.177-.081-6.28-.124l-3.16-.065c-1.056.005-2.11.013-3.17.022-2.115.008-4.226.021-6.332.03-.525 0-1.05.004-1.576.008-.525.018-1.05.03-1.572.043-1.046.03-2.093.065-3.13.09-2.08.07-4.142.112-6.178.194-2.036.107-4.05.21-6.025.317l-2.943.155c-.972.073-1.93.142-2.88.21-1.901.142-3.762.28-5.575.413-1.808.167-3.568.33-5.267.489-.85.081-1.686.159-2.509.24-.819.082-1.624.18-2.412.266-1.577.18-3.083.348-4.519.511-1.432.185-2.789.365-4.068.528-.639.082-1.256.168-1.852.245-.595.09-1.169.172-1.72.253-1.104.163-2.115.318-3.03.455-1.826.3-3.258.528-4.23.713-.976.172-1.493.28-1.493.28l-.018.008Z" fill="url(#I)"/><path d="M1.922 85.56s2.19-.176 6.02-.429c1.919-.116 4.248-.275 6.919-.416l4.256-.232c1.497-.069 3.073-.142 4.72-.22 3.292-.158 6.857-.274 10.626-.42 1.887-.056 3.823-.116 5.802-.172l3.004-.09 3.06-.064c2.058-.043 4.15-.09 6.266-.133 2.119-.03 4.264-.056 6.423-.082 4.322-.073 8.713-.073 13.105-.081h3.292c1.1.008 2.194.021 3.289.03l6.528.064c2.163.013 4.304.06 6.423.103l6.27.129c1.03.021 2.05.043 3.061.069 1.011.034 2.01.064 2.999.098 1.979.065 3.919.13 5.802.194 1.887.068 3.721.107 5.495.193 1.773.081 3.485.159 5.131.232 3.288.158 6.305.274 8.976.438 2.671.163 5 .304 6.918.424 3.836.237 6.025.37 6.025.37l-6.029-.344c-1.918-.107-4.247-.24-6.918-.39-1.336-.086-2.759-.133-4.256-.202-1.498-.065-3.074-.133-4.72-.206l-5.132-.228c-1.773-.086-3.608-.12-5.495-.184a3928 3928 0 0 0-5.801-.18c-.99-.03-1.992-.06-3-.095a657.291 657.291 0 0 0-3.06-.06c-2.058-.039-4.15-.078-6.27-.12-2.12-.043-4.26-.086-6.423-.095l-6.524-.051-3.284-.026c-1.095 0-2.194.004-3.293.008-4.391 0-8.783 0-13.105.06-2.158.026-4.304.052-6.423.073-2.12.043-4.208.086-6.265.125-1.03.021-2.05.043-3.061.06-1.012.03-2.01.056-3.004.086l-5.801.167c-3.77.138-7.339.25-10.627.404-1.646.073-3.223.142-4.72.21-1.497.073-2.92.146-4.256.21-2.67.13-5 .275-6.918.383-3.835.236-6.025.403-6.025.403v-.013Z" fill="url(#J)"/><path d="M.258 77.33s35.838-.038 71.676-.081c35.838.043 71.681.082 71.681.082s-35.838.043-71.68.081C36.095 77.374.257 77.331.257 77.331Z" fill="#E5BB44"/><path d="M.258 77.33s35.838-.038 71.676-.081c35.838.043 71.681.082 71.681.082s-35.838.043-71.68.081C36.095 77.374.257 77.331.257 77.331Z" fill="url(#K)" fill-opacity=".7"/><path d="M92.61 56.341c-.99-.69-2.097-1.219-3.205-1.7a27.125 27.125 0 0 0-4.453-1.507c-1.336-.322-2.732-.553-4.116-.476a.062.062 0 0 0-.04 0h-.008c-.07 0-.14.004-.206.008-.889.078-1.813.323-2.491.902a8.603 8.603 0 0 0-1.191.665c-.092.06-.022.215.074.215.723.017 1.41.228 2.115.365-.026.245-.066.464.013.713.026.077.096.12.175.081 1.13-.515 2.115.078 3.06.678.334.21.583.361.973.396.49.042.91.309 1.274.618.574.489 1.077 1.133 1.87 1.262.985.163 1.909-.412 2.907-.34.074.005.127-.05.123-.124-.044-.794.73-.927 1.361-1.047.613-.116 1.222-.22 1.76-.554.057-.035.053-.129 0-.163l.005.008Zm-12.768-3.425c-.442.133-.88.287-1.31.463.4-.232.846-.373 1.31-.463Zm22.265 6.405c-.513-.408-1.104-.597-1.743-.722-.39-.073-.78-.141-1.16-.244-.342-.095-.206-.588-.206-.88 0-.069-.044-.138-.118-.138-.591 0-1.182.009-1.778.013a3.305 3.305 0 0 0-.884-.129c-.692-.008-1.384.082-2.05-.12-.074-.021-.179.035-.157.125.219.781.442 1.45 1.046 1.944-1.204-.034-2.495-.128-3.389.82-.074.073-.043.202.07.21 2.198.22 4.41.07 6.564.649.114.03.219-.099.131-.197-.184-.198-.337-.417-.517-.623 1.367-.249 2.759-.348 4.143-.48.122-.014.118-.168.043-.228h.005Zm4.326-.009c-.574-.253-1.261-.296-1.817.03a.08.08 0 0 0-.04.052 3.27 3.27 0 0 0-.6.219c-.691.322-1.313.777-2.088.875-.132.017-.123.22.009.228.902.077 1.825-.06 2.697-.275.648-.159 1.48-.386 1.896-.949.048-.064.013-.146-.057-.176v-.004ZM32.8 12.965C44.144 5.327 57.844.858 72.596.858c11.747 0 22.83 2.83 32.584 7.844a17.287 17.287 0 0 0-1.414-.138c-1.646-.081-3.205.112-4.716-.708-1.05-.575-1.944-1.073-3.078-.37-.07.044-.043.151.027.181.162.069.306.163.45.258-3.266.828-6.16-2.01-9.461-1.185-.088.021-.123.111-.07.184.25.361.565.631.937.825a31.893 31.893 0 0 1-3.779-.43c-1.331-.231-2.715-.446-3.95-1.008-1.646-.752-3.931-2.349-5.59-.786-.058.051-.053.133.008.18.626.481 1.392.751 2.12 1.043.787.318 1.501.657 2.35.795.754.124 1.507.249 2.269.274.538.018 1.322-.051 1.856.185a.107.107 0 0 0 .07.133c1.108.412 2.255.738 3.424.927.583.095 1.143.194 1.699.387.504.171.99.39 1.493.562.473.163.95.258 1.445.335.342.056.486.086.604.39.254.666 1.108 1.061 1.752 1.233.46.124.941.176 1.41.27.407.086 1.094.198 1.33.593.114.193-.021.485-.07.678a1.54 1.54 0 0 0-.013.747c.171.713.771.889 1.428.949.49.047.853.107 1.283.373.455.28.779.738 1.107 1.146.057.073.18.043.211-.038.127-.352.087-.485.507-.451.434.039.863.245 1.24.45.293.16.573.353.84.55.263.19.753.464.841.79.14.528.569.648 1.06.76.836.197 1.405.554 1.795 1.33.061.125.096.254.118.392.035.214-.534.025-.613.012a33.65 33.65 0 0 1-1.309-.283c-.85-.206-1.638-.622-2.496-.786-.806-.154-1.62-.034-2.413-.3-.665-.223-1.239-.661-1.891-.915-.061-.025-.118.01-.144.06-1.143 2.117 3.717 2.044 2.872 3.564a4.806 4.806 0 0 1-1.261.172c-.057 0-.088.055-.088.098.013 1.112-1.419 1.447-2.277 1.683-.67.189-1.274.42-1.979.417-.678 0-1.33-.164-1.988-.31-.569-.124-1.138-.236-1.72-.206-.605.03-1.226.335-1.796.511-.792.245-1.55.236-2.35.056-.723-.163-1.415-.408-2.155-.498-.053-.004-.118.034-.118.09-.005.326-.18.292-.442.284-.246-.005-.49-.005-.736-.013-.525-.026-1.029-.146-1.48-.412-.832-.49-1.401-1.327-2.18-1.885-.049-.03-.119-.026-.154.021-.889 1.275-2.128-.725-3.262-.171-.074.034-.083.12-.04.18.636.953.719 2.438 2.094 2.67.32.052.547-.047.657-.356.175-.515.166-.936.757-1.078.32.898 1.073 1.743 2.027 1.967 1.1.257 2.093-.228 3.148-.447 1.31-.27 2.382.455 3.613.713.757.159 1.572-.065 2.347-.335-.04.034-.08.064-.114.099-.088.081-.026.21.087.197.478-.03.85.168 1.064.593.167.326.241.635-.114.845-.464.275-1.01.434-1.488.696-1.086.597-2.076 1.344-3.048 2.112-.06.047-.052.137.005.18.508.4.508.812.503 1.4 0 .395.127.725.36 1.039.424.58 1.107.356 1.716.27-.158.97-1.104 1.391-1.949 1.743-.573.236-1.116.52-1.655.824-.455.262-2.264 1.335-1.151 1.816-.268.837-.775 1.155-1.642 1.322-.618.116-1.182.314-1.568.833a3.453 3.453 0 0 0-.678 1.782c-.018.275.048.54.192.773.075.116.193.193.307.262.035.021.052.038.065.047-.03.013-.057.038-.057.077v.03c-.017.013-.03.026-.048.043-.052.06.009.137.07.133.053.365.175.73.355 1.043a2.828 2.828 0 0 0 .722.863c.162.138.123.133-.035.292-.613.627-.512 1.314.018 1.842.17.592.556 1.069.784 1.61a1.706 1.706 0 0 0-.228-.146c-.118-.056-.197.111-.105.184.14.12.285.232.403.378a.819.819 0 0 1 .083.116c.013.099.022.198.017.305a.764.764 0 0 1-.188.189c-.245.189-.46.416-.674.64-.21.218-.43.416-.71.545-.245.116-.512.128-.779.137.333-.502.635-1.022.99-1.507.022-.03.004-.081-.026-.099-1.2-.613-2.212-1.79-2.938-2.902.253-.107.516-.193.796-.21.066-.004.106-.086.07-.137-.775-1.04-1.344-2.216-2.259-3.151-.035-.035-.096-.026-.127.008-.333.382-.661.601-1.173.627-.202.013-.403 0-.6-.009-.022 0-.149-.528-.18-.592-.017-.039-.052-.064-.096-.06-1.454.107-3.336-.691-4.545.425-.048.047-.013.15.053.15.39.022.7.193 1.046.34-1.024 1.145-2.745.926-4.124.708-.333-.052-.662-.112-.99-.164-.131-.021-.302-.64-.377-.777a1.593 1.593 0 0 0-.95-.79c-.862-.257-1.847.365-2.54.799-.582.365-1.129.824-1.711 1.206a2.33 2.33 0 0 0 .188-.223c.018-.026-.013-.051-.035-.026-.162.198-.363.36-.578.507a5.1 5.1 0 0 1-.486.24c-.026.013-.035.035-.03.056-.263.129-.526.25-.78.37-.63.304-1.265.613-1.742 1.128-.031.03-.031.09-.005.12.442.477.898 1.052.762 1.74-.1.51-.57.922-.92 1.279-.726.742-1.225 1.45-1.296 2.502a8.412 8.412 0 0 0 .456 3.276c.258.747.735 1.614 1.572 1.794-.355.498-.775 1.168-.521 1.77.205.48.853.617 1.313.703.7.129 1.423.133 2.12.266.98.19 1.913.516 2.885.739.876.201 1.782.21 2.544-.31.665-.454 1.182-1.377 1.274-2.172.035-.322-.215-.807.066-1.034.288-.236.704-.357 1.05-.485.478-.18.95-.374 1.436-.545.885-.314 2.19-.713 2.956.047.298.292-.013.429-.25.622-.18.15-.341.314-.499.485-.245.267-.455.597-.547.953-.188.713-.013 1.477-.07 2.203-.088 1.073-.727 1.691-1.353 2.503-.451.588-.683 1.236-.263 1.901.526.833 1.467 1.155 2.395.97 1.095-.214 2.028-.832 3.183-.708.859.095 1.879.326 2.264 1.18.219.486.17 1.07.118 1.58a11.272 11.272 0 0 1-.42 2.186c-.18.588-.215 1.249-.022 1.837.267.833.898 1.4.832 2.34-.004.047.017.099.066.111.31.104.906.425 1.248.27.03.018.06.04.096.057.017 1.567 3.021 2.344 3.389.858.63-.57 1.598-.777 2.417-.82.346-.017.446-.017.56.288.057.146.136.279.215.412.18.292.442.528.735.704 1.143.696 2.233-.064 2.527-1.202.332.142.718.236 1.007-.034.201-.19.254-.494.25-.79a.362.362 0 0 0 .153-.15c.035-.06-.022-.133-.088-.13-.026 0-.052.014-.079.022 0-.017 0-.038-.004-.055a.065.065 0 0 0 .04-.06c.043-.06 0-.138-.062-.164.009 0 .017-.004.026-.013.092-.051.022-.193-.074-.18a1.119 1.119 0 0 0-.258.077c.2-.279.477-.532.66-.747.123-.141.29-.433.5-.433.254 0 .499-.022.753-.069.928-.176 1.742-.76 2.557-1.202a14.475 14.475 0 0 1 1.839-.846c.214-.081.473-.189.705-.167-.009 0-.193.245-.21.262-.18.193-.394.36-.6.528-.053.047-.053.154.026.18.56.172 1.152.223 1.716.395.057.017.114 0 .141-.06.175-.412.569-.661.748-1.073.425.167.828.412 1.235.622.258.133.512.27.775.4.127.06.25.12.377.175.188.086.118.305.092.477a.11.11 0 0 0 .122.12c1.436-.245 2.899-.275 4.352-.197.661.038 1.323.107 1.979.202.552.077 1.099.223 1.655.27.228.017.447 0 .657.099.456.21.88.635 1.248.966.78.708 1.476 1.661 2.605 1.79.167.017.307.442.394.58.154.244.342.467.543.673.39.4.876.683 1.415.833.42.116.818.034 1.226-.073.634-.171 1.212-.223 1.825.069.972.463 1.695 1.43 2.334 2.254.294.382.569.785.858 1.176 0 .017 0 .039.013.052.167.296.36.536.386.884 0 .051.057.094.105.099.144.017.289.038.433.068a.277.277 0 0 0 .04.035c.044.038.092.03.127 0 .28.081.543.21.744.438.241.274.285.678.324 1.026.075.652.114 1.305.613 1.79.578.558 1.611.008 2.303.008.438 0 .635.769.78 1.087.17.377.337.498.748.566.613.103 1.27-.047 1.874-.129.228-.034.723-.189.841.065.083.172.219.335.359.463.727.649 1.734.859 2.614 1.215.324.13.298.4.341.717.035.262.044.52.022.782-.035.42-.24.807-.398 1.189-.447 1.069-.543 2.13-.648 3.271-.061.665-.197 1.31-.521 1.902-.324.588-.876 1.073-1.393 1.494-.775.63-1.458 1.24-1.773 2.22-.333 1.055-.538 2.163-.963 3.185-.429 1.026-1.244 1.837-2.045 2.593-.022.021-.026.06-.013.09.701 1.88-.28 3.499-1.607 4.804a28.32 28.32 0 0 1-3.393 2.837c-1.196.855-2.426 1.666-3.582 2.572-.451.352-.889.721-1.274 1.15-.219.241-.464.554-.442.898 0 .064.079.107.136.081a2.78 2.78 0 0 1 .77-.227c-1.423 1.562-3.039 2.932-4.742 4.194-1.747 1.288-3.643 2.378-5.368 3.688-1.362 1.034-2.478 2.348-3.8 3.426a8.113 8.113 0 0 1-2.128 1.283c-.075.03-.154.056-.228.082-.009-.043-.039-.086-.083-.099-.075-.022-.18-.116-.263-.125a1.879 1.879 0 0 0-.617 0 1.28 1.28 0 0 0-.342.125h-.521c-.057 0-.092.064-.092.112v.36c-.543.193-1.055.485-1.541.79-1.011.635-1.93 1.408-2.868 2.138-.915.713-1.865 1.447-2.951 1.889-.657.27-1.927.884-2.649.476-.504-.287-.21-1.21-.096-1.622.232-.846.556-1.666.836-2.495.45-1.343.735-2.734 1.186-4.082.447-1.344 1.301-2.301 2.23-3.34.542-.605 1.046-1.249 1.317-2.022.228-.64.372-1.305.508-1.971.328-1.579.57-3.237.495-4.851-.03-.639-.167-1.142-.57-1.648-.503-.64-1.287-.833-2.057-.94-.5-.069-.999-.125-1.485-.262-.586-.163-1.13-.546-1.628-.88-.898-.601-1.743-1.267-2.733-1.718.552-.828.224-1.931-.113-2.786-.478-1.206-1.204-2.314-1.918-3.391-.714-1.082-1.253-2.267-1.957-3.357-.767-1.185-1.809-2.113-2.947-2.937.543-.257.81-.837.985-1.39.263-.842.324-1.735.464-2.602.145-.91.342-1.855.666-2.718.385-1.017 1.112-1.829 1.663-2.747.517-.859.933-1.88 1.988-2.16.412-.107.837-.184 1.257-.27.21-.043.534-.064.718-.193.56-.4.364-1.567.228-2.1-.184-.738-.57-1.55-1.174-2.052.898-.863.189-2.34-.367-3.202-.504-.777-1.367-1.812-2.356-2.198.066-.056.026-.198-.088-.185a1.773 1.773 0 0 0-.341.064 1.846 1.846 0 0 0-.434-.03c-.092 0-.092.142 0 .142.049 0 .092 0 .14.004-.678.335-1.142 1.057-1.585 1.64-.232.31-.569.82-1.007.82-.683 0-1.169-1.193-1.405-1.665-.035-.07-.105-.078-.166-.039-.508.313-1.086.524-1.634.176-.403-.258-.678-.695-.972-1.056-.617-.76-1.348-1.095-2.28-.743-.631-1.558-1.621-3.014-2.707-4.284a11.245 11.245 0 0 0-.858-.902c-.219-.21-.517-.54-.806-.657-.118-.043-.429.073-.573.073-.311 0-.626-.055-.933-.107a18.703 18.703 0 0 1-3.901-1.142c-.828-.348-1.515-.931-2.242-1.438a6.504 6.504 0 0 0-2.202-1.005c.166-.219.293-.45.53-.626a.11.11 0 0 0 .039-.108c-.447-1.683-2.745-2.266-4.256-2.43-.372-.038-.766-.06-1.138 0-.43.07-.806.352-1.152.597-.455.322-1.06.704-1.655.545-.525-.137-.98-.738-1.357-1.094-.815-.764-1.708-1.138-2.833-1.18-1.17-.044-2.422.321-3.556-.087-.468-.167-1.099-.506-1.212-1.034-.092-.412.24-.868.442-1.198.499-.816.797-1.498.735-2.464-.043-.696-.245-1.365-.429-2.035-.219-.79-.31-1.563-.223-2.387.009-.06-.048-.133-.118-.116-.377.082-.36-.28-.521-.524-.11-.167-.28-.3-.451-.42-.324-.559-.815-1.06-1.209-1.529-.45-.54-1.431-1.464-1.274-2.245.009-.043-.017-.082-.052-.099-.136-.073-.259-.034-.403 0-.32.073.03-.382.061-.55.009-.038-.013-.09-.053-.102a5.247 5.247 0 0 1-.709-.275c-.376-.185-.087-.34.03-.614.163-.382-.008-.794-.187-1.129-.105-.189-.263-.442-.43-.584-.087-.069-.328-.056-.437-.081-.403-.1-.622-.425-.727-.799-.39-1.357.298-3.014-.946-4.074a.086.086 0 0 0-.14.043c-.061.193-.048.386-.075.584a3.285 3.285 0 0 0-.77-.129c-.044 0-.07.034-.083.069-.228.67-.705 1.408-.714 2.129 0 .425.149.863.228 1.275.1.528.315 1.039.525 1.537.486 1.155.941 2.28 1.31 3.482.363 1.197.744 2.395 1.195 3.563a9.555 9.555 0 0 0-.964-.958 4.447 4.447 0 0 0-.525-.386c-.267-.18-.328-.167-.197-.49.412-1.012.092-1.961-.447-2.858-.022-.03-.061-.043-.096-.022a1.614 1.614 0 0 0-.324.24c-.184.18-.215-.141-.263-.24a4.912 4.912 0 0 0-.63-.919c-.263-.309-.548-.6-.801-.923a4.743 4.743 0 0 1-.32-.472c-.206-.348.201-.193.376-.167.053.008.088-.022.097-.073.1-.919.223-2.014-.346-2.812a1.22 1.22 0 0 0-.333-.318c-.333-.21-.39-.197-.363-.64.052-.88.276-1.781.626-2.593.03-.068-.03-.128-.097-.098-.18.077-.363.128-.542.197-.044-.627-.35-1.206-.377-1.841a.084.084 0 0 0-.057-.078c-.617-.245-1.086-.57-1.563-1.034-.044-.043-.131-.018-.153.034-.215.584-.578 1.082-.902 1.605.105-.927-.057-1.803-.193-2.747-.083-.58-.1-1.24.158-1.782.254-.523.827-.82 1.204-1.24.713-.799.363-2.121.306-3.07-.017-.322-.092-.575.241-.67.202-.06.385-.158.56-.274.307-.206.482-.546.596-.885.118-.352.166-.725.298-1.073.078-.206.184-.45.416-.502.197-.043.407-.06.608-.086.355-.047.758-.095 1.038-.335.355-.309.324-.876.565-1.253.315-.494 1.112-.464 1.615-.374.355.064.657.069.986-.086.407-.193.691-.528.827-.948.189-.572.04-1.224.477-1.692.653-.069 1.375-.245 1.844-.717.53-.528.551-1.21.354-1.893-.013-.056-.083-.073-.135-.056-.714.253-1.196-.069-1.87-.232-.481-.116-1.112.065-1.405.473-.246.339-.206.824-.22 1.219-.03.73-.398 1.021-1.103 1.017.105-1.31.022-2.593-1.204-3.288.451-.21.832-.507 1.104-.932a2.04 2.04 0 0 0 .245-.627c.074-.326-.075-.682.096-.979.447-.785-.162-1.232-.902-1.348-.99-.154-2.233-.06-3.122.413-.394.21-.687.558-.98.888-.43.477-.916.85-1.48 1.15-.07-.686-.329-1.313-.867-1.665l.022.009Z" fill="url(#L)"/></g><path d="m47.051 74.124-17.58-37.105c.56-.468.92-1.168.92-1.945 0-1.412-1.17-2.558-2.61-2.558s-2.61 1.146-2.61 2.558c0 .777.36 1.477.92 1.945L8.511 74.124h-1.51l.03.141c.894 3.834 3.333 6.702 7.251 8.522 3.407 1.584 7.952 2.387 13.5 2.387 5.547 0 10.092-.803 13.498-2.387 3.919-1.82 6.358-4.688 7.251-8.522l.03-.141h-1.51Zm-1.033 0H28.24V37.59c.145-.026.285-.06.416-.107l17.36 36.645v-.004ZM26.906 37.478c.127.043.258.082.394.108v36.538H9.545l17.36-36.646Z" fill="url(#M)"/><g style="mix-blend-mode:multiply" opacity=".5"><path d="M7.864 76.686c1.226 2.636 3.371 4.684 6.414 6.097 3.407 1.584 7.952 2.386 13.5 2.386 5.547 0 10.092-.802 13.498-2.386 3.043-1.413 5.189-3.46 6.415-6.097H7.864Z" fill="#E5BB44"/><path d="M7.864 76.686c1.226 2.636 3.371 4.684 6.414 6.097 3.407 1.584 7.952 2.386 13.5 2.386 5.547 0 10.092-.802 13.498-2.386 3.043-1.413 5.189-3.46 6.415-6.097H7.864Z" fill="url(#N)" fill-opacity=".7"/></g><g style="mix-blend-mode:multiply" opacity=".5"><path d="M14.878 83.049c3.336 1.408 7.671 2.125 12.903 2.125 5.233 0 9.567-.713 12.904-2.125H14.878Z" fill="#E5BB44"/><path d="M14.878 83.049c3.336 1.408 7.671 2.125 12.903 2.125 5.233 0 9.567-.713 12.904-2.125H14.878Z" fill="url(#O)" fill-opacity=".7"/></g><g style="mix-blend-mode:screen" opacity=".55"><path d="M27.12 35.474c.65 0 1.178-.517 1.178-1.155s-.527-1.155-1.178-1.155c-.65 0-1.178.517-1.178 1.155s.528 1.155 1.178 1.155Z" fill="#E5BB44"/><path d="M27.12 35.474c.65 0 1.178-.517 1.178-1.155s-.527-1.155-1.178-1.155c-.65 0-1.178.517-1.178 1.155s.528 1.155 1.178 1.155Z" fill="url(#P)" fill-opacity=".7"/></g><path d="M27.335 34.117c0 .232-.193.42-.43.42a.426.426 0 0 1-.428-.42c0-.232.192-.42.429-.42.236 0 .429.188.429.42Z" fill="#FFFDE9"/><path d="m91.427 74.124.03.141c.894 3.834 3.333 6.702 7.252 8.522 3.406 1.584 7.947 2.387 13.499 2.387 5.552 0 10.092-.803 13.499-2.387 3.918-1.82 6.357-4.688 7.25-8.522l.031-.141h-1.511l-17.579-37.105c.56-.468.919-1.168.919-1.945 0-1.412-1.169-2.558-2.609-2.558-1.441 0-2.61 1.146-2.61 2.558 0 .777.359 1.477.919 1.945l-17.58 37.105h-1.51Zm19.905-36.646c.136.048.271.086.416.108v36.533H93.971l17.361-36.645v.004Zm19.112 36.646h-17.755V37.586a2.42 2.42 0 0 0 .394-.108l17.361 36.646Z" fill="url(#Q)"/><g style="mix-blend-mode:multiply" opacity=".5"><path d="M132.121 76.686c-1.226 2.636-3.372 4.684-6.415 6.097-3.406 1.584-7.947 2.386-13.499 2.386-5.552 0-10.092-.802-13.499-2.386-3.043-1.413-5.188-3.46-6.414-6.097h39.831-.004Z" fill="#E5BB44"/><path d="M132.121 76.686c-1.226 2.636-3.372 4.684-6.415 6.097-3.406 1.584-7.947 2.386-13.499 2.386-5.552 0-10.092-.802-13.499-2.386-3.043-1.413-5.188-3.46-6.414-6.097h39.831-.004Z" fill="url(#R)" fill-opacity=".7"/></g><g style="mix-blend-mode:multiply" opacity=".5"><path d="M125.111 83.049c-3.336 1.408-7.671 2.125-12.903 2.125-5.233 0-9.567-.713-12.904-2.125h25.807Z" fill="#E5BB44"/><path d="M125.111 83.049c-3.336 1.408-7.671 2.125-12.903 2.125-5.233 0-9.567-.713-12.904-2.125h25.807Z" fill="url(#S)" fill-opacity=".7"/></g><g style="mix-blend-mode:screen" opacity=".55"><path d="M112.864 35.474c.651 0 1.178-.517 1.178-1.155s-.527-1.155-1.178-1.155c-.65 0-1.177.517-1.177 1.155s.527 1.155 1.177 1.155Z" fill="#E5BB44"/><path d="M112.864 35.474c.651 0 1.178-.517 1.178-1.155s-.527-1.155-1.178-1.155c-.65 0-1.177.517-1.177 1.155s.527 1.155 1.177 1.155Z" fill="url(#T)" fill-opacity=".7"/></g><path d="M112.654 34.117c0 .232.193.42.429.42a.425.425 0 0 0 .429-.42.425.425 0 0 0-.429-.42.426.426 0 0 0-.429.42Z" fill="#FFFDE9"/><path d="M43.824 23.474c-4.208 2.198-7.715 5.448-11.77 7.89-2.78 1.675-6.882 1.795-7.898-1.906-.451-1.644 1.081-4.048 3.004-3.185.963.43 1.488 1.67.783 2.528 0 0-1.48-.425-1.055.481.31.661 1.37.417 1.856.142 1.69-.966 1.498-3.945-.341-4.624-3.722-1.373-6.822 2.288-6.773 5.624.048 3.447 2.49 6.053 5.832 6.873 7.137 1.752 20.487-11.372 29.555-10.114 9.067 1.258 12.478 6.787 12.478 6.787V23.332c-7.86-3.765-17.904-3.915-25.667.142h-.004Z" fill="url(#U)"/><g style="mix-blend-mode:multiply" opacity=".5"><path d="M24.16 29.454c-.45-1.644 1.082-4.048 3.004-3.185.924.412 1.445 1.571.853 2.43.61-.155 1.09-.649 1.012-1.314-.105-.863-.933-1.584-1.747-1.816-1.738-.485-3.424.773-4.024 2.31-.64 1.63-.013 3.37 1.362 4.426 1.44 1.103 3.301 1.31 5.053.966 1.834-.361 3.555-1.202 5.105-2.211 1.633-1.056 3.065-2.383 4.514-3.666 1.611-1.43 3.231-2.86 5.018-4.075.175-.12.355-.236.534-.347-.341.159-.683.322-1.016.498-4.208 2.198-7.715 5.448-11.77 7.89-2.78 1.675-6.882 1.795-7.898-1.906Z" fill="#E5BB44"/><path d="M24.16 29.454c-.45-1.644 1.082-4.048 3.004-3.185.924.412 1.445 1.571.853 2.43.61-.155 1.09-.649 1.012-1.314-.105-.863-.933-1.584-1.747-1.816-1.738-.485-3.424.773-4.024 2.31-.64 1.63-.013 3.37 1.362 4.426 1.44 1.103 3.301 1.31 5.053.966 1.834-.361 3.555-1.202 5.105-2.211 1.633-1.056 3.065-2.383 4.514-3.666 1.611-1.43 3.231-2.86 5.018-4.075.175-.12.355-.236.534-.347-.341.159-.683.322-1.016.498-4.208 2.198-7.715 5.448-11.77 7.89-2.78 1.675-6.882 1.795-7.898-1.906Z" fill="url(#V)" fill-opacity=".7"/></g><g style="mix-blend-mode:multiply" opacity=".5"><path d="M66.995 22.28c.013 1.09-.398 2.168-1.405 2.748-1.467.846-3.359.348-4.904.013-1.104-.24-2.207-.494-3.341-.524a23.84 23.84 0 0 0-3.367.15A21.136 21.136 0 0 0 47.8 26.38c-3.56 1.593-6.62 4.027-9.768 6.264-1.332.948-2.685 1.91-4.143 2.674a18.858 18.858 0 0 1-4.19 1.606c-.727.18-1.502.309-2.277.36.014 0 .027.009.04.013 7.137 1.752 20.487-11.372 29.555-10.114 9.068 1.258 12.478 6.787 12.478 6.787V23.332c-.81-.39-1.646-.738-2.5-1.047v-.005Z" fill="#E5BB44"/><path d="M66.995 22.28c.013 1.09-.398 2.168-1.405 2.748-1.467.846-3.359.348-4.904.013-1.104-.24-2.207-.494-3.341-.524a23.84 23.84 0 0 0-3.367.15A21.136 21.136 0 0 0 47.8 26.38c-3.56 1.593-6.62 4.027-9.768 6.264-1.332.948-2.685 1.91-4.143 2.674a18.858 18.858 0 0 1-4.19 1.606c-.727.18-1.502.309-2.277.36.014 0 .027.009.04.013 7.137 1.752 20.487-11.372 29.555-10.114 9.068 1.258 12.478 6.787 12.478 6.787V23.332c-.81-.39-1.646-.738-2.5-1.047v-.005Z" fill="url(#W)" fill-opacity=".7"/></g><g style="mix-blend-mode:screen" opacity=".55"><path d="M22.75 30.733s1.34 4.842 7.282 3.237c5.942-1.61 10.675-6.667 12.26-8.221 1.874-1.838 5.512-4.147 10.652-4.517 0 0-5.46.893-8.726 3.886-3.266 2.992-9.155 9.5-15.15 10.29-5.998.786-6.607-3.62-6.318-4.67v-.005Z" fill="#E5BB44"/><path d="M22.75 30.733s1.34 4.842 7.282 3.237c5.942-1.61 10.675-6.667 12.26-8.221 1.874-1.838 5.512-4.147 10.652-4.517 0 0-5.46.893-8.726 3.886-3.266 2.992-9.155 9.5-15.15 10.29-5.998.786-6.607-3.62-6.318-4.67v-.005Z" fill="url(#X)" fill-opacity=".7"/></g><path d="M111.581 24.797c-1.839.678-2.031 3.657-.341 4.623.486.28 1.546.524 1.856-.141.43-.91-1.055-.481-1.055-.481-.705-.863-.179-2.1.784-2.529 1.922-.858 3.455 1.541 3.004 3.186-1.016 3.7-5.119 3.58-7.899 1.906-4.055-2.439-7.562-5.689-11.77-7.89-7.763-4.058-17.807-3.903-25.666-.143v10.639s3.41-5.53 12.478-6.788c9.068-1.257 22.414 11.862 29.555 10.115 3.341-.82 5.784-3.426 5.832-6.873.044-3.336-3.051-7.002-6.778-5.624Z" fill="url(#Y)"/><g style="mix-blend-mode:multiply" opacity=".5"><path d="M115.829 29.455c.451-1.644-1.082-4.048-3.004-3.185-.924.412-1.445 1.57-.854 2.43-.609-.155-1.09-.649-1.011-1.314.105-.863.932-1.584 1.747-1.816 1.738-.485 3.424.773 4.024 2.31.639 1.63.013 3.37-1.362 4.426-1.441 1.103-3.302 1.309-5.053.966-1.835-.361-3.555-1.203-5.105-2.211-1.633-1.056-3.065-2.383-4.51-3.666-1.611-1.43-3.231-2.86-5.018-4.075-.175-.12-.355-.236-.534-.347.341.159.683.322 1.016.498 4.207 2.198 7.715 5.448 11.769 7.89 2.78 1.674 6.883 1.795 7.899-1.906h-.004Z" fill="#E5BB44"/><path d="M115.829 29.455c.451-1.644-1.082-4.048-3.004-3.185-.924.412-1.445 1.57-.854 2.43-.609-.155-1.09-.649-1.011-1.314.105-.863.932-1.584 1.747-1.816 1.738-.485 3.424.773 4.024 2.31.639 1.63.013 3.37-1.362 4.426-1.441 1.103-3.302 1.309-5.053.966-1.835-.361-3.555-1.203-5.105-2.211-1.633-1.056-3.065-2.383-4.51-3.666-1.611-1.43-3.231-2.86-5.018-4.075-.175-.12-.355-.236-.534-.347.341.159.683.322 1.016.498 4.207 2.198 7.715 5.448 11.769 7.89 2.78 1.674 6.883 1.795 7.899-1.906h-.004Z" fill="url(#Z)" fill-opacity=".7"/></g><g style="mix-blend-mode:multiply" opacity=".5"><path d="M72.994 22.281c-.013 1.09.398 2.168 1.405 2.748 1.467.846 3.359.348 4.904.013 1.103-.24 2.207-.494 3.341-.524a23.84 23.84 0 0 1 3.367.15c2.132.25 4.225.837 6.178 1.713 3.56 1.593 6.62 4.027 9.769 6.264 1.331.948 2.684 1.91 4.142 2.674a18.847 18.847 0 0 0 4.19 1.606c.727.18 1.497.309 2.272.36-.013 0-.026.009-.039.013-7.137 1.752-20.487-11.372-29.555-10.114-9.068 1.258-12.479 6.787-12.479 6.787V23.333c.81-.39 1.647-.738 2.5-1.047l.005-.005Z" fill="#E5BB44"/><path d="M72.994 22.281c-.013 1.09.398 2.168 1.405 2.748 1.467.846 3.359.348 4.904.013 1.103-.24 2.207-.494 3.341-.524a23.84 23.84 0 0 1 3.367.15c2.132.25 4.225.837 6.178 1.713 3.56 1.593 6.62 4.027 9.769 6.264 1.331.948 2.684 1.91 4.142 2.674a18.847 18.847 0 0 0 4.19 1.606c.727.18 1.497.309 2.272.36-.013 0-.026.009-.039.013-7.137 1.752-20.487-11.372-29.555-10.114-9.068 1.258-12.479 6.787-12.479 6.787V23.333c.81-.39 1.647-.738 2.5-1.047l.005-.005Z" fill="url(#aa)" fill-opacity=".7"/></g><g style="mix-blend-mode:screen" opacity=".55"><path d="M117.234 30.734s-1.34 4.842-7.281 3.237c-5.942-1.61-10.675-6.667-12.26-8.221-1.874-1.838-5.513-4.147-10.653-4.517 0 0 5.46.893 8.726 3.886 3.267 2.992 9.156 9.5 15.15 10.29 5.994.786 6.607-3.62 6.318-4.67v-.005Z" fill="#E5BB44"/><path d="M117.234 30.734s-1.34 4.842-7.281 3.237c-5.942-1.61-10.675-6.667-12.26-8.221-1.874-1.838-5.513-4.147-10.653-4.517 0 0 5.46.893 8.726 3.886 3.267 2.992 9.156 9.5 15.15 10.29 5.994.786 6.607-3.62 6.318-4.67v-.005Z" fill="url(#ab)" fill-opacity=".7"/></g><path d="m74.022 116.749-3.415-98.843h-1.23l-3.415 98.843s-.618 4.078 1.974 4.576h4.112c2.592-.498 1.974-4.576 1.974-4.576Z" fill="url(#ac)"/><g style="mix-blend-mode:multiply" opacity=".5"><path d="m74.022 116.749-3.415-98.843h-.6v103.419h2.04c2.593-.498 1.975-4.576 1.975-4.576Z" fill="#E5BB44"/><path d="m74.022 116.749-3.415-98.843h-.6v103.419h2.04c2.593-.498 1.975-4.576 1.975-4.576Z" fill="url(#ad)" fill-opacity=".7"/></g><path d="M72 18.709c0 .854-.898 1.55-2.01 1.55-1.112 0-2.01-.691-2.01-1.55 0-.859.898-1.55 2.01-1.55 1.112 0 2.01.691 2.01 1.55Z" fill="url(#ae)"/><path d="M70.35 18.515c0 .335-.351.606-.789.606-.438 0-.788-.27-.788-.605 0-.335.35-.606.788-.606.438 0 .788.27.788.605Z" fill="#FFDBA2"/><g style="mix-blend-mode:screen" opacity=".55"><path d="m69.56 25.66-2.758 89.066s2.19-10.101 2.19-13.402c0-3.302.569-75.665.569-75.665Z" fill="#E5BB44"/><path d="m69.56 25.66-2.758 89.066s2.19-10.101 2.19-13.402c0-3.302.569-75.665.569-75.665Z" fill="url(#af)" fill-opacity=".7"/></g><path d="M85.972 117.225H53.956s-14.396.313-16.918 5.993h65.852c-2.522-5.68-16.918-5.993-16.918-5.993Z" fill="url(#ag)"/><path d="M103.232 124.837H36.989c-.696 0-1.265-.558-1.265-1.241 0-.682.57-1.241 1.266-1.241h66.242c.696 0 1.265.559 1.265 1.241 0 .683-.569 1.241-1.265 1.241Z" fill="#E5BB44"/><path d="M103.232 124.837H36.989c-.696 0-1.265-.558-1.265-1.241 0-.682.57-1.241 1.266-1.241h66.242c.696 0 1.265.559 1.265 1.241 0 .683-.569 1.241-1.265 1.241Z" fill="url(#ah)" fill-opacity=".7"/><defs><linearGradient id="w" x1="18.271" y1=".017" x2="72.004" y2=".017" gradientUnits="userSpaceOnUse"><stop stop-color="#BF831B"/><stop offset=".2" stop-color="#DFC28E"/><stop offset=".5" stop-color="#BF831B"/><stop offset=".82" stop-color="#D9B779"/><stop offset="1" stop-color="#BF831B"/></linearGradient><linearGradient id="a" x1="71.969" y1="71.024" x2="72.131" y2="71.024" gradientUnits="userSpaceOnUse"><stop stop-color="#BF831B"/><stop offset=".2" stop-color="#DFC28E"/><stop offset=".5" stop-color="#BF831B"/><stop offset=".82" stop-color="#D9B779"/><stop offset="1" stop-color="#BF831B"/></linearGradient><linearGradient id="d" x1="72.035" y1=".017" x2="90" y2=".017" gradientUnits="userSpaceOnUse"><stop stop-color="#BF831B"/><stop offset=".2" stop-color="#DFC28E"/><stop offset=".5" stop-color="#BF831B"/><stop offset=".82" stop-color="#D9B779"/><stop offset="1" stop-color="#BF831B"/></linearGradient><linearGradient id="e" x1="72.026" y1=".017" x2="95.955" y2=".017" gradientUnits="userSpaceOnUse"><stop stop-color="#BF831B"/><stop offset=".2" stop-color="#DFC28E"/><stop offset=".5" stop-color="#BF831B"/><stop offset=".82" stop-color="#D9B779"/><stop offset="1" stop-color="#BF831B"/></linearGradient><linearGradient id="f" x1="72.022" y1=".017" x2="101.91" y2=".017" gradientUnits="userSpaceOnUse"><stop stop-color="#BF831B"/><stop offset=".2" stop-color="#DFC28E"/><stop offset=".5" stop-color="#BF831B"/><stop offset=".82" stop-color="#D9B779"/><stop offset="1" stop-color="#BF831B"/></linearGradient><linearGradient id="g" x1="72.018" y1=".017" x2="107.864" y2=".017" gradientUnits="userSpaceOnUse"><stop stop-color="#BF831B"/><stop offset=".2" stop-color="#DFC28E"/><stop offset=".5" stop-color="#BF831B"/><stop offset=".82" stop-color="#D9B779"/><stop offset="1" stop-color="#BF831B"/></linearGradient><linearGradient id="h" x1="72.009" y1=".018" x2="113.819" y2=".018" gradientUnits="userSpaceOnUse"><stop stop-color="#BF831B"/><stop offset=".2" stop-color="#DFC28E"/><stop offset=".5" stop-color="#BF831B"/><stop offset=".82" stop-color="#D9B779"/><stop offset="1" stop-color="#BF831B"/></linearGradient><linearGradient id="i" x1="72.004" y1=".018" x2="119.774" y2=".018" gradientUnits="userSpaceOnUse"><stop stop-color="#BF831B"/><stop offset=".2" stop-color="#DFC28E"/><stop offset=".5" stop-color="#BF831B"/><stop offset=".82" stop-color="#D9B779"/><stop offset="1" stop-color="#BF831B"/></linearGradient><linearGradient id="j" x1="72" y1=".017" x2="125.729" y2=".017" gradientUnits="userSpaceOnUse"><stop stop-color="#BF831B"/><stop offset=".2" stop-color="#DFC28E"/><stop offset=".5" stop-color="#BF831B"/><stop offset=".82" stop-color="#D9B779"/><stop offset="1" stop-color="#BF831B"/></linearGradient><linearGradient id="k" x1="71.991" y1=".018" x2="131.683" y2=".018" gradientUnits="userSpaceOnUse"><stop stop-color="#BF831B"/><stop offset=".2" stop-color="#DFC28E"/><stop offset=".5" stop-color="#BF831B"/><stop offset=".82" stop-color="#D9B779"/><stop offset="1" stop-color="#BF831B"/></linearGradient><linearGradient id="l" x1="71.987" y1=".018" x2="137.638" y2=".018" gradientUnits="userSpaceOnUse"><stop stop-color="#BF831B"/><stop offset=".2" stop-color="#DFC28E"/><stop offset=".5" stop-color="#BF831B"/><stop offset=".82" stop-color="#D9B779"/><stop offset="1" stop-color="#BF831B"/></linearGradient><linearGradient id="m" x1="71.982" y1="71.015" x2="144" y2="71.015" gradientUnits="userSpaceOnUse"><stop stop-color="#BF831B"/><stop offset=".2" stop-color="#DFC28E"/><stop offset=".5" stop-color="#BF831B"/><stop offset=".82" stop-color="#D9B779"/><stop offset="1" stop-color="#BF831B"/></linearGradient><linearGradient id="n" x1="71.869" y1=".017" x2="72.031" y2=".017" gradientUnits="userSpaceOnUse"><stop stop-color="#BF831B"/><stop offset=".2" stop-color="#DFC28E"/><stop offset=".5" stop-color="#BF831B"/><stop offset=".82" stop-color="#D9B779"/><stop offset="1" stop-color="#BF831B"/></linearGradient><linearGradient id="o" x1="65.914" y1=".018" x2="71.956" y2=".018" gradientUnits="userSpaceOnUse"><stop stop-color="#BF831B"/><stop offset=".2" stop-color="#DFC28E"/><stop offset=".5" stop-color="#BF831B"/><stop offset=".82" stop-color="#D9B779"/><stop offset="1" stop-color="#BF831B"/></linearGradient><linearGradient id="p" x1="59.959" y1=".017" x2="71.965" y2=".017" gradientUnits="userSpaceOnUse"><stop stop-color="#BF831B"/><stop offset=".2" stop-color="#DFC28E"/><stop offset=".5" stop-color="#BF831B"/><stop offset=".82" stop-color="#D9B779"/><stop offset="1" stop-color="#BF831B"/></linearGradient><linearGradient id="q" x1="54.004" y1=".017" x2="71.969" y2=".017" gradientUnits="userSpaceOnUse"><stop stop-color="#BF831B"/><stop offset=".2" stop-color="#DFC28E"/><stop offset=".5" stop-color="#BF831B"/><stop offset=".82" stop-color="#D9B779"/><stop offset="1" stop-color="#BF831B"/></linearGradient><linearGradient id="r" x1="48.05" y1=".017" x2="71.974" y2=".017" gradientUnits="userSpaceOnUse"><stop stop-color="#BF831B"/><stop offset=".2" stop-color="#DFC28E"/><stop offset=".5" stop-color="#BF831B"/><stop offset=".82" stop-color="#D9B779"/><stop offset="1" stop-color="#BF831B"/></linearGradient><linearGradient id="s" x1="42.095" y1=".018" x2="71.982" y2=".018" gradientUnits="userSpaceOnUse"><stop stop-color="#BF831B"/><stop offset=".2" stop-color="#DFC28E"/><stop offset=".5" stop-color="#BF831B"/><stop offset=".82" stop-color="#D9B779"/><stop offset="1" stop-color="#BF831B"/></linearGradient><linearGradient id="t" x1="36.14" y1=".018" x2="71.987" y2=".018" gradientUnits="userSpaceOnUse"><stop stop-color="#BF831B"/><stop offset=".2" stop-color="#DFC28E"/><stop offset=".5" stop-color="#BF831B"/><stop offset=".82" stop-color="#D9B779"/><stop offset="1" stop-color="#BF831B"/></linearGradient><linearGradient id="u" x1="30.181" y1=".018" x2="71.991" y2=".018" gradientUnits="userSpaceOnUse"><stop stop-color="#BF831B"/><stop offset=".2" stop-color="#DFC28E"/><stop offset=".5" stop-color="#BF831B"/><stop offset=".82" stop-color="#D9B779"/><stop offset="1" stop-color="#BF831B"/></linearGradient><linearGradient id="v" x1="24.226" y1=".018" x2="72" y2=".018" gradientUnits="userSpaceOnUse"><stop stop-color="#BF831B"/><stop offset=".2" stop-color="#DFC28E"/><stop offset=".5" stop-color="#BF831B"/><stop offset=".82" stop-color="#D9B779"/><stop offset="1" stop-color="#BF831B"/></linearGradient><linearGradient id="c" x1="72.039" y1=".017" x2="84.041" y2=".017" gradientUnits="userSpaceOnUse"><stop stop-color="#BF831B"/><stop offset=".2" stop-color="#DFC28E"/><stop offset=".5" stop-color="#BF831B"/><stop offset=".82" stop-color="#D9B779"/><stop offset="1" stop-color="#BF831B"/></linearGradient><linearGradient id="x" x1="12.317" y1=".018" x2="72.009" y2=".018" gradientUnits="userSpaceOnUse"><stop stop-color="#BF831B"/><stop offset=".2" stop-color="#DFC28E"/><stop offset=".5" stop-color="#BF831B"/><stop offset=".82" stop-color="#D9B779"/><stop offset="1" stop-color="#BF831B"/></linearGradient><linearGradient id="y" x1="6.362" y1=".017" x2="72.017" y2=".017" gradientUnits="userSpaceOnUse"><stop stop-color="#BF831B"/><stop offset=".2" stop-color="#DFC28E"/><stop offset=".5" stop-color="#BF831B"/><stop offset=".82" stop-color="#D9B779"/><stop offset="1" stop-color="#BF831B"/></linearGradient><linearGradient id="z" x1="0" y1="71.015" x2="72.022" y2="71.015" gradientUnits="userSpaceOnUse"><stop stop-color="#BF831B"/><stop offset=".2" stop-color="#DFC28E"/><stop offset=".5" stop-color="#BF831B"/><stop offset=".82" stop-color="#D9B779"/><stop offset="1" stop-color="#BF831B"/></linearGradient><linearGradient id="A" x1="22.803" y1="26.935" x2="121.455" y2="26.935" gradientUnits="userSpaceOnUse"><stop stop-color="#BF831B"/><stop offset=".2" stop-color="#DFC28E"/><stop offset=".5" stop-color="#BF831B"/><stop offset=".82" stop-color="#D9B779"/><stop offset="1" stop-color="#BF831B"/></linearGradient><linearGradient id="B" x1="10.018" y1="39.694" x2="134.026" y2="39.694" gradientUnits="userSpaceOnUse"><stop stop-color="#BF831B"/><stop offset=".2" stop-color="#DFC28E"/><stop offset=".5" stop-color="#BF831B"/><stop offset=".82" stop-color="#D9B779"/><stop offset="1" stop-color="#BF831B"/></linearGradient><linearGradient id="C" x1="4.689" y1="49.8" x2="139.35" y2="49.8" gradientUnits="userSpaceOnUse"><stop stop-color="#BF831B"/><stop offset=".2" stop-color="#DFC28E"/><stop offset=".5" stop-color="#BF831B"/><stop offset=".82" stop-color="#D9B779"/><stop offset="1" stop-color="#BF831B"/></linearGradient><linearGradient id="D" x1="1.922" y1="57.948" x2="142.336" y2="57.948" gradientUnits="userSpaceOnUse"><stop stop-color="#BF831B"/><stop offset=".2" stop-color="#DFC28E"/><stop offset=".5" stop-color="#BF831B"/><stop offset=".82" stop-color="#D9B779"/><stop offset="1" stop-color="#BF831B"/></linearGradient><linearGradient id="b" x1="72.043" y1=".017" x2="78.086" y2=".017" gradientUnits="userSpaceOnUse"><stop stop-color="#BF831B"/><stop offset=".2" stop-color="#DFC28E"/><stop offset=".5" stop-color="#BF831B"/><stop offset=".82" stop-color="#D9B779"/><stop offset="1" stop-color="#BF831B"/></linearGradient><linearGradient id="F" x1=".486" y1="71.093" x2="143.514" y2="71.093" gradientUnits="userSpaceOnUse"><stop stop-color="#BF831B"/><stop offset=".2" stop-color="#DFC28E"/><stop offset=".5" stop-color="#BF831B"/><stop offset=".82" stop-color="#D9B779"/><stop offset="1" stop-color="#BF831B"/></linearGradient><linearGradient id="G" x1="22.803" y1="115.401" x2="121.455" y2="115.401" gradientUnits="userSpaceOnUse"><stop stop-color="#BF831B"/><stop offset=".2" stop-color="#DFC28E"/><stop offset=".5" stop-color="#BF831B"/><stop offset=".82" stop-color="#D9B779"/><stop offset="1" stop-color="#BF831B"/></linearGradient><linearGradient id="H" x1="10.018" y1="102.642" x2="134.026" y2="102.642" gradientUnits="userSpaceOnUse"><stop stop-color="#BF831B"/><stop offset=".2" stop-color="#DFC28E"/><stop offset=".5" stop-color="#BF831B"/><stop offset=".82" stop-color="#D9B779"/><stop offset="1" stop-color="#BF831B"/></linearGradient><linearGradient id="I" x1="4.689" y1="92.541" x2="139.35" y2="92.541" gradientUnits="userSpaceOnUse"><stop stop-color="#BF831B"/><stop offset=".2" stop-color="#DFC28E"/><stop offset=".5" stop-color="#BF831B"/><stop offset=".82" stop-color="#D9B779"/><stop offset="1" stop-color="#BF831B"/></linearGradient><linearGradient id="J" x1="1.922" y1="84.393" x2="142.336" y2="84.393" gradientUnits="userSpaceOnUse"><stop stop-color="#BF831B"/><stop offset=".2" stop-color="#DFC28E"/><stop offset=".5" stop-color="#BF831B"/><stop offset=".82" stop-color="#D9B779"/><stop offset="1" stop-color="#BF831B"/></linearGradient><linearGradient id="L" x1="32.493" y1="68.379" x2="137.152" y2="68.379" gradientUnits="userSpaceOnUse"><stop stop-color="#BF831B"/><stop offset=".2" stop-color="#DFC28E"/><stop offset=".5" stop-color="#BF831B"/><stop offset=".82" stop-color="#D9B779"/><stop offset="1" stop-color="#BF831B"/></linearGradient><linearGradient id="M" x1="13.345" y1="44.158" x2="48.262" y2="116.005" gradientUnits="userSpaceOnUse"><stop stop-color="#BF831B"/><stop offset=".2" stop-color="#DFC28E"/><stop offset=".5" stop-color="#BF831B"/><stop offset=".82" stop-color="#D9B779"/><stop offset="1" stop-color="#BF831B"/></linearGradient><linearGradient id="Q" x1="81.12" y1="11.218" x2="116.037" y2="83.064" gradientUnits="userSpaceOnUse"><stop stop-color="#BF831B"/><stop offset=".2" stop-color="#DFC28E"/><stop offset=".5" stop-color="#BF831B"/><stop offset=".82" stop-color="#D9B779"/><stop offset="1" stop-color="#BF831B"/></linearGradient><linearGradient id="U" x1="45.9" y1="28.334" x2="80.82" y2="100.18" gradientUnits="userSpaceOnUse"><stop stop-color="#BF831B"/><stop offset=".2" stop-color="#DFC28E"/><stop offset=".5" stop-color="#BF831B"/><stop offset=".82" stop-color="#D9B779"/><stop offset="1" stop-color="#BF831B"/></linearGradient><linearGradient id="Y" x1="83.59" y1="10.02" x2="118.506" y2="81.867" gradientUnits="userSpaceOnUse"><stop stop-color="#BF831B"/><stop offset=".2" stop-color="#DFC28E"/><stop offset=".5" stop-color="#BF831B"/><stop offset=".82" stop-color="#D9B779"/><stop offset="1" stop-color="#BF831B"/></linearGradient><linearGradient id="ac" x1="47.392" y1="27.287" x2="93.787" y2="122.748" gradientUnits="userSpaceOnUse"><stop stop-color="#BF831B"/><stop offset=".2" stop-color="#DFC28E"/><stop offset=".5" stop-color="#BF831B"/><stop offset=".82" stop-color="#D9B779"/><stop offset="1" stop-color="#BF831B"/></linearGradient><linearGradient id="ae" x1="69.145" y1="17.035" x2="104.065" y2="88.885" gradientUnits="userSpaceOnUse"><stop stop-color="#BF831B"/><stop offset=".2" stop-color="#DFC28E"/><stop offset=".5" stop-color="#BF831B"/><stop offset=".82" stop-color="#D9B779"/><stop offset="1" stop-color="#BF831B"/></linearGradient><linearGradient id="ag" x1="28.675" y1="41.547" x2="72.969" y2="132.683" gradientUnits="userSpaceOnUse"><stop stop-color="#BF831B"/><stop offset=".2" stop-color="#DFC28E"/><stop offset=".5" stop-color="#BF831B"/><stop offset=".82" stop-color="#D9B779"/><stop offset="1" stop-color="#BF831B"/></linearGradient><radialGradient id="R" cx="0" cy="0" r="1" gradientUnits="userSpaceOnUse" gradientTransform="matrix(15.35652 5.60896 -3.96214 10.84776 106.648 78.1)"><stop stop-color="#fff"/><stop offset=".719" stop-color="#fff" stop-opacity="0"/><stop offset="1" stop-color="#fff" stop-opacity="0"/></radialGradient><radialGradient id="S" cx="0" cy="0" r="1" gradientUnits="userSpaceOnUse" gradientTransform="matrix(9.94958 1.40508 -.42645 3.01973 108.604 83.403)"><stop stop-color="#fff"/><stop offset=".719" stop-color="#fff" stop-opacity="0"/><stop offset="1" stop-color="#fff" stop-opacity="0"/></radialGradient><radialGradient id="T" cx="0" cy="0" r="1" gradientUnits="userSpaceOnUse" gradientTransform="matrix(.90819 1.52713 -1.47064 .8746 112.535 33.549)"><stop stop-color="#fff"/><stop offset=".719" stop-color="#fff" stop-opacity="0"/><stop offset="1" stop-color="#fff" stop-opacity="0"/></radialGradient><radialGradient id="K" cx="0" cy="0" r="1" gradientUnits="userSpaceOnUse" gradientTransform="matrix(55.2698 .10787 -.00046 .23644 51.918 77.276)"><stop stop-color="#fff"/><stop offset=".719" stop-color="#fff" stop-opacity="0"/><stop offset="1" stop-color="#fff" stop-opacity="0"/></radialGradient><radialGradient id="V" cx="0" cy="0" r="1" gradientUnits="userSpaceOnUse" gradientTransform="matrix(8.41912 6.90996 -7.42797 9.05026 30.876 24.713)"><stop stop-color="#fff"/><stop offset=".719" stop-color="#fff" stop-opacity="0"/><stop offset="1" stop-color="#fff" stop-opacity="0"/></radialGradient><radialGradient id="W" cx="0" cy="0" r="1" gradientUnits="userSpaceOnUse" gradientTransform="rotate(31.745 -22.336 87.287) scale(19.0745 18.7076)"><stop stop-color="#fff"/><stop offset=".719" stop-color="#fff" stop-opacity="0"/><stop offset="1" stop-color="#fff" stop-opacity="0"/></radialGradient><radialGradient id="X" cx="0" cy="0" r="1" gradientUnits="userSpaceOnUse" gradientTransform="rotate(38.97 -16.568 59.279) scale(15.0014 16.0787)"><stop stop-color="#fff"/><stop offset=".719" stop-color="#fff" stop-opacity="0"/><stop offset="1" stop-color="#fff" stop-opacity="0"/></radialGradient><radialGradient id="N" cx="0" cy="0" r="1" gradientUnits="userSpaceOnUse" gradientTransform="matrix(15.35492 5.60898 -3.96245 10.84743 22.216 78.1)"><stop stop-color="#fff"/><stop offset=".719" stop-color="#fff" stop-opacity="0"/><stop offset="1" stop-color="#fff" stop-opacity="0"/></radialGradient><radialGradient id="Z" cx="0" cy="0" r="1" gradientUnits="userSpaceOnUse" gradientTransform="matrix(8.41744 6.90996 -7.42822 9.04876 103.017 24.714)"><stop stop-color="#fff"/><stop offset=".719" stop-color="#fff" stop-opacity="0"/><stop offset="1" stop-color="#fff" stop-opacity="0"/></radialGradient><radialGradient id="aa" cx="0" cy="0" r="1" gradientUnits="userSpaceOnUse" gradientTransform="rotate(31.745 -.804 163.019) scale(19.0745 18.7076)"><stop stop-color="#fff"/><stop offset=".719" stop-color="#fff" stop-opacity="0"/><stop offset="1" stop-color="#fff" stop-opacity="0"/></radialGradient><radialGradient id="ab" cx="0" cy="0" r="1" gradientUnits="userSpaceOnUse" gradientTransform="rotate(38.97 15.605 150.21) scale(15.0014 16.0787)"><stop stop-color="#fff"/><stop offset=".719" stop-color="#fff" stop-opacity="0"/><stop offset="1" stop-color="#fff" stop-opacity="0"/></radialGradient><radialGradient id="O" cx="0" cy="0" r="1" gradientUnits="userSpaceOnUse" gradientTransform="matrix(9.94958 1.40508 -.42645 3.01973 24.178 83.403)"><stop stop-color="#fff"/><stop offset=".719" stop-color="#fff" stop-opacity="0"/><stop offset="1" stop-color="#fff" stop-opacity="0"/></radialGradient><radialGradient id="ad" cx="0" cy="0" r="1" gradientUnits="userSpaceOnUse" gradientTransform="matrix(1.57279 68.38061 -3.44567 .07925 71.477 35.143)"><stop stop-color="#fff"/><stop offset=".719" stop-color="#fff" stop-opacity="0"/><stop offset="1" stop-color="#fff" stop-opacity="0"/></radialGradient><radialGradient id="P" cx="0" cy="0" r="1" gradientUnits="userSpaceOnUse" gradientTransform="matrix(.9082 1.52714 -1.47064 .8746 26.791 33.549)"><stop stop-color="#fff"/><stop offset=".719" stop-color="#fff" stop-opacity="0"/><stop offset="1" stop-color="#fff" stop-opacity="0"/></radialGradient><radialGradient id="af" cx="0" cy="0" r="1" gradientUnits="userSpaceOnUse" gradientTransform="matrix(1.06353 58.8914 -2.33043 .04209 67.796 40.504)"><stop stop-color="#fff"/><stop offset=".719" stop-color="#fff" stop-opacity="0"/><stop offset="1" stop-color="#fff" stop-opacity="0"/></radialGradient><radialGradient id="ah" cx="0" cy="0" r="1" gradientUnits="userSpaceOnUse" gradientTransform="matrix(26.51489 1.64068 -.22169 3.58267 60.507 122.769)"><stop stop-color="#fff"/><stop offset=".719" stop-color="#fff" stop-opacity="0"/><stop offset="1" stop-color="#fff" stop-opacity="0"/></radialGradient><radialGradient id="E" cx="0" cy="0" r="1" gradientUnits="userSpaceOnUse" gradientTransform="matrix(55.2698 .10787 -.00046 .23644 51.918 64.951)"><stop stop-color="#fff"/><stop offset=".719" stop-color="#fff" stop-opacity="0"/><stop offset="1" stop-color="#fff" stop-opacity="0"/></radialGradient></defs></svg>