<svg width="731" height="492" fill="none" xmlns="http://www.w3.org/2000/svg"><path opacity=".3" d="M164.522 303.213c57.694 0 104.464-25.396 104.464-56.724 0-31.328-46.77-56.724-104.464-56.724-57.694 0-104.464 25.396-104.464 56.724 0 31.328 46.77 56.724 104.464 56.724Z" fill="url(#a)"/><path opacity=".1" d="M292.907 440.379c86.12 0 155.935-37.915 155.935-84.685s-69.815-84.685-155.935-84.685-155.935 37.915-155.935 84.685 69.815 84.685 155.935 84.685Z" fill="url(#b)"/><path opacity=".1" d="M286.608 468.419c36.34 0 65.799-16.003 65.799-35.744 0-19.74-29.459-35.743-65.799-35.743-36.339 0-65.798 16.003-65.798 35.743 0 19.741 29.459 35.744 65.798 35.744Z" fill="url(#c)"/><path opacity=".3" d="M599.083 403.756c20.721 0 37.519-9.122 37.519-20.375 0-11.252-16.798-20.374-37.519-20.374s-37.519 9.122-37.519 20.374c0 11.253 16.798 20.375 37.519 20.375Z" fill="url(#d)"/><path opacity=".2" d="M519.52 438.971c75.109 0 135.997-33.065 135.997-73.853 0-40.787-60.888-73.852-135.997-73.852-75.109 0-135.997 33.065-135.997 73.852 0 40.788 60.888 73.853 135.997 73.853Z" fill="url(#e)"/><path opacity=".1" d="M137.994 386.569c57.014 0 103.233-25.099 103.233-56.06 0-30.96-46.219-56.059-103.233-56.059S34.76 299.549 34.76 330.509c0 30.961 46.22 56.06 103.234 56.06Z" fill="url(#f)"/><path opacity=".6" d="M556.976 269.112c57.694 0 104.464-25.396 104.464-56.724 0-31.328-46.77-56.724-104.464-56.724-57.694 0-104.464 25.396-104.464 56.724 0 31.328 46.77 56.724 104.464 56.724Z" fill="url(#g)"/><path opacity=".2" d="M361.792 377.32c91.545 0 165.757-40.305 165.757-90.023 0-49.719-74.212-90.024-165.757-90.024-91.546 0-165.758 40.305-165.758 90.024 0 49.718 74.212 90.023 165.758 90.023Z" fill="url(#h)"/><g opacity=".5"><path d="M274.096 368.051c-1.252-.684-1.231-1.779 0-2.444 1.23-.684 3.232-.684 4.484 0 1.23.665 1.251 1.76 0 2.444-1.21.665-3.275.665-4.484 0Zm187.321-4.614c-1.251-.684-1.251-1.76 0-2.444 1.231-.685 3.233-.685 4.484 0 1.252.684 1.252 1.76 0 2.444-1.209.665-3.232.684-4.484 0Zm6.737-3.676c-2.503-1.349-6.549-1.349-9.031 0-1.939 1.056-2.315 2.64-1.188 3.93l-66.362 36.193h-51.158l-58.332-31.578c1.106-1.271.709-2.855-1.23-3.931-2.503-1.349-6.549-1.349-9.031 0-2.461 1.33-2.44 3.54.063 4.889 1.96 1.056 4.838 1.271 7.216.665l59.583 32.243h54.683l67.592-36.858c2.377.626 5.276.391 7.216-.665 2.481-1.349 2.502-3.539 0-4.888" fill="url(#i)"/><path d="M74.469 334.009c-1.252-.684-1.252-1.76 0-2.444 1.251-.684 3.232-.684 4.484 0 1.23.665 1.251 1.76 0 2.444-1.23.684-3.233.684-4.484 0Zm225.09-196.139c-1.23-.665-1.251-1.76 0-2.444 1.231-.685 3.275-.665 4.484 0 1.252.684 1.272 1.779.042 2.444-1.23.684-3.274.665-4.526 0Zm6.716-3.656c-2.461-1.33-6.507-1.35-8.968 0-1.939 1.055-2.336 2.62-1.189 3.93L49.776 272.397l.25 47.592 20.94 11.341c-1.106 1.271-.69 2.855 1.271 3.911 2.461 1.33 6.507 1.349 8.968 0 2.482-1.349 2.44-3.539-.02-4.869-1.982-1.075-4.881-1.29-7.217-.684l-19.687-10.637-.25-45.696 245.09-133.569c2.357.606 5.277.391 7.216-.665 2.482-1.349 2.44-3.539-.062-4.888" fill="url(#j)"/><path d="M215.993 207.226c-1.251-.685-1.251-1.76 0-2.445 1.23-.684 3.232-.684 4.484 0 1.251.685 1.251 1.76 0 2.445-1.231.684-3.233.684-4.484 0Zm208.824-45.638c-1.252-.684-1.252-1.76 0-2.444 1.209-.665 3.232-.684 4.483 0 1.231.665 1.231 1.779 0 2.444-1.23.685-3.274.665-4.483 0Zm6.715-3.656c-1.981-1.076-4.839-1.271-7.216-.665l-21.335-11.537h-77.123l-104.922 57.174c-2.357-.606-5.256-.391-7.196.685-2.481 1.349-2.502 3.539 0 4.888 2.503 1.349 6.528 1.33 9.01 0 1.94-1.056 2.336-2.62 1.23-3.911l103.672-56.509h73.619l20.084 10.872c-1.106 1.271-.73 2.855 1.23 3.93 2.461 1.33 6.528 1.33 9.009 0 2.461-1.329 2.441-3.539-.02-4.869" fill="url(#k)"/><path d="M343.981 446.969c-1.251-.685-1.272-1.78-.042-2.445 1.231-.664 3.275-.664 4.526 0 1.23.665 1.251 1.76 0 2.445-1.231.684-3.274.664-4.484 0Zm183.818-69.747c-.605-.645-.459-1.447.522-1.994 1.23-.685 3.274-.665 4.483 0 1.252.684 1.252 1.759 0 2.444-1.001.547-2.46.625-3.649.313l-1.377-.743m7.258-3.207c-2.461-1.33-6.507-1.349-8.968 0-1.939 1.056-2.336 2.62-1.189 3.93l-121.836 66.383h-51.074c-.292-.351-.73-.703-1.273-.997-2.502-1.349-6.527-1.368-9.009 0-2.482 1.349-2.44 3.539.063 4.889 2.46 1.329 6.506 1.349 8.988 0 .834-.45 1.356-.998 1.606-1.565h52.493l123.067-67.067c2.356.606 5.276.391 7.215-.665 2.482-1.349 2.44-3.539-.062-4.889" fill="url(#l)"/><path d="M593.66 316.783c-1.251-.684-1.23-1.779 0-2.444 1.231-.684 3.233-.684 4.484 0 1.251.685 1.251 1.76 0 2.444-1.21.665-3.232.685-4.484 0Zm-97.853-89.417c-1.251-.684-1.23-1.779 0-2.444 1.231-.684 3.275-.684 4.526 0s1.23 1.779 0 2.444c-1.21.665-3.233.684-4.484 0m6.736-3.676c-2.502-1.349-6.527-1.33-9.009 0-2.461 1.33-2.461 3.52.021 4.869 1.96 1.056 4.88 1.271 7.216.665l92.805 50.232.23 32.83c-.897.156-1.752.43-2.461.802-2.461 1.329-2.44 3.539.062 4.888 2.503 1.349 6.528 1.33 8.968 0 2.482-1.349 2.503-3.539 0-4.888-.688-.372-1.48-.626-2.335-.802l-.23-33.788-94.057-50.917c1.105-1.271.709-2.855-1.231-3.93" fill="url(#m)"/><path d="M250.299 355.186c-1.23-.665-1.251-1.76 0-2.444 1.231-.684 3.275-.665 4.484 0 1.251.684 1.251 1.76 0 2.444-1.23.684-3.232.684-4.484 0Zm-63.087-81.557c-1.251-.684-1.23-1.779 0-2.444 1.231-.684 3.274-.684 4.526 0 1.251.684 1.23 1.779 0 2.444-1.21.665-3.233.685-4.484 0m6.736-3.676c-2.503-1.349-6.548-1.349-9.03 0-1.94 1.056-2.315 2.64-1.189 3.93l-13.66 7.45.188 29.721 76.58 41.434c-1.126 1.29-.709 2.854 1.23 3.93 2.503 1.349 6.528 1.369 9.01 0 2.482-1.349 2.461-3.559-.021-4.908-1.96-1.056-4.88-1.271-7.216-.665l-75.308-40.768-.188-27.805 12.43-6.766c2.377.626 5.276.391 7.216-.664 2.482-1.35 2.502-3.54 0-4.889" fill="url(#n)"/><path d="M207.755 262.445c-1.252-.685-1.252-1.76 0-2.444 1.23-.685 3.232-.685 4.484 0 1.251.684 1.251 1.759 0 2.444-1.252.684-3.233.684-4.484 0ZM359.56 192.64c-1.251-.685-1.251-1.76 0-2.445 1.23-.684 3.233-.684 4.484 0 1.251.685 1.251 1.76 0 2.445-1.251.684-3.233.684-4.484 0Zm6.715-3.657c-2.502-1.349-6.527-1.369-9.009 0-.647.352-1.105.782-1.397 1.212h-18.52l-124.673 67.948c-2.356-.606-5.276-.391-7.215.665-2.482 1.349-2.461 3.559.02 4.908 2.503 1.349 6.528 1.329 9.01 0 1.939-1.056 2.336-2.62 1.189-3.93l123.421-67.244h16.663c.292.489.793.977 1.523 1.388 2.461 1.33 6.527 1.33 9.009 0 2.482-1.349 2.44-3.539-.021-4.869" fill="url(#o)"/><path d="M404.482 375.893c-1.251-.685-1.23-1.78 0-2.444 1.231-.685 3.233-.685 4.484 0 1.251.684 1.251 1.759 0 2.444-1.21.665-3.232.684-4.484 0Zm73.494-116.733c-1.23-.665-1.251-1.76 0-2.445 1.21-.664 3.274-.664 4.484 0 1.251.685 1.23 1.78 0 2.445-1.231.684-3.233.684-4.484 0Zm6.716-3.657c-2.461-1.33-6.528-1.33-8.968 0-2.482 1.349-2.461 3.559 0 4.888 1.981 1.076 4.901 1.271 7.257.685l43.275 23.425.146 23.327-116.956 63.724c-2.357-.606-5.256-.391-7.216.684-2.461 1.33-2.461 3.52.021 4.869 2.481 1.349 6.548 1.349 9.009 0 1.961-1.075 2.336-2.659 1.231-3.93l118.165-64.409-.146-25.224-44.525-24.109c1.126-1.29.709-2.854-1.273-3.93" fill="url(#p)"/><path d="M235.805 328.886c-1.251-.684-1.251-1.76 0-2.444 1.231-.684 3.233-.684 4.484 0 1.252.684 1.252 1.76 0 2.444-1.23.684-3.232.684-4.484 0Zm159.585 51.953c-1.252-.684-1.252-1.76 0-2.444 1.23-.684 3.232-.684 4.484 0 1.251.684 1.251 1.76 0 2.444-1.231.685-3.233.685-4.484 0Zm6.715-3.656c-2.503-1.349-6.528-1.33-8.968 0-1.939 1.056-2.335 2.62-1.188 3.93l-4.589 2.503h-42.961L243.793 329.14c1.105-1.271.688-2.854-1.272-3.91-2.503-1.35-6.507-1.35-8.989 0-2.482 1.349-2.461 3.519.021 4.868 1.96 1.056 4.838 1.271 7.195.685l101.878 55.121h46.486l5.819-3.149c2.357.607 5.276.391 7.216-.664 2.461-1.33 2.44-3.54-.063-4.889" fill="url(#q)"/><path d="M220.372 320.538c-1.251-.684-1.251-1.76 0-2.444 1.231-.685 3.233-.685 4.484 0 1.251.684 1.251 1.76 0 2.444-1.23.684-3.232.684-4.484 0Zm30.699-63.138c-1.251-.684-1.272-1.779-.042-2.444 1.231-.665 3.275-.665 4.526 0 1.23.665 1.251 1.76 0 2.444-1.251.685-3.274.665-4.484 0Zm6.716-3.656c-2.503-1.349-6.528-1.369-9.01 0-1.939 1.056-2.315 2.639-1.189 3.93l-47.55 25.908.146 25.263 16.684 9.034c-1.105 1.271-.688 2.854 1.273 3.91 2.502 1.349 6.527 1.369 9.009 0 2.482-1.349 2.44-3.539-.062-4.888-1.961-1.056-4.839-1.271-7.195-.684l-15.454-8.35-.146-23.346 46.298-25.224c2.378.626 5.277.391 7.216-.665 2.482-1.349 2.44-3.539-.02-4.869" fill="url(#r)"/><path d="M113.822 262.894c-1.23-.665-1.23-1.779 0-2.444 1.21-.665 3.275-.665 4.484 0 1.252.684 1.231 1.779 0 2.444-1.23.684-3.274.684-4.525 0m73.452-40.025c-1.251-.685-1.251-1.76 0-2.445 1.23-.684 3.232-.684 4.484 0 1.251.685 1.251 1.76 0 2.445-1.252.684-3.233.684-4.484 0Zm6.715-3.657c-2.502-1.349-6.507-1.349-8.967 0-1.94 1.056-2.336 2.62-1.189 3.93l-65.006 35.431c-2.378-.626-5.276-.391-7.216.665-2.482 1.349-2.461 3.558 0 4.888 2.503 1.349 6.549 1.349 9.03 0 1.94-1.056 2.315-2.64 1.189-3.93l65.006-35.431c2.357.606 5.276.391 7.216-.665 2.482-1.349 2.44-3.539-.063-4.888Z" fill="url(#s)"/><path d="M168.172 361.111c-1.252-.685-1.231-1.78 0-2.444 1.209-.665 3.232-.685 4.484 0 1.251.684 1.23 1.779 0 2.444-1.231.684-3.275.684-4.526 0m-79.563-86.133c-1.251-.684-1.251-1.759 0-2.444 1.23-.684 3.233-.684 4.484 0 1.251.685 1.251 1.76 0 2.444-1.23.685-3.232.685-4.484 0Zm6.737-3.676c-2.503-1.349-6.528-1.329-9.01 0-2.482 1.35-2.46 3.52.02 4.869.543.294 1.169.509 1.794.685l.272 40.26 76.267 41.277c-1.105 1.271-.709 2.855 1.231 3.93 2.502 1.349 6.527 1.33 9.009 0 2.461-1.33 2.461-3.52-.021-4.869-1.96-1.056-4.88-1.271-7.216-.665l-75.016-40.612-.271-39.087c1.084-.156 2.106-.45 2.94-.899 2.482-1.349 2.503-3.539 0-4.889Z" fill="url(#t)"/><path d="M4.166 285.068c-1.251-.684-1.272-1.779-.042-2.444 1.23-.684 3.274-.665 4.526 0 1.23.665 1.251 1.76 0 2.444-1.23.685-3.275.665-4.484 0Zm130.575-86.152c-.605-.645-.459-1.447.521-1.994 1.23-.684 3.274-.665 4.526 0 1.23.665 1.251 1.76 0 2.444-1.002.548-2.482.626-3.671.293l-1.376-.743Zm7.278-3.206c-2.503-1.35-6.528-1.369-9.009 0-1.94 1.056-2.315 2.639-1.189 3.93L4.458 269.035l.062 11.536c-.98.156-1.918.43-2.669.841-2.482 1.349-2.461 3.558.02 4.908 2.462 1.329 6.528 1.329 9.01 0 2.482-1.35 2.44-3.54-.02-4.869a8.063 8.063 0 0 0-2.065-.763l-.084-10.676 126.112-68.71c2.357.606 5.276.391 7.216-.665 2.482-1.349 2.44-3.539-.021-4.869" fill="url(#u)"/><path d="M154.386 326.306c-1.251-.685-1.251-1.76 0-2.445 1.231-.684 3.233-.684 4.484 0 .647.352.918.822.918 1.291l-.063-.039-3.024 1.642h.063c-.855.02-1.731-.117-2.378-.469m129.115 69.884c-1.001-.548-1.147-1.35-.563-1.995l1.376-.743c1.189-.332 2.649-.235 3.65.313 1.231.665 1.251 1.76 0 2.444-1.21.665-3.274.665-4.484 0m6.736-3.676c-1.981-1.075-4.901-1.271-7.216-.665L162.353 326.54c1.105-1.271.688-2.855-1.272-3.91-2.503-1.35-6.528-1.369-9.01 0-2.482 1.349-2.44 3.539.063 4.888 1.96 1.056 4.838 1.271 7.195.684l120.647 65.289c-1.126 1.29-.709 2.854 1.273 3.93 2.461 1.33 6.527 1.33 8.967 0 2.482-1.349 2.461-3.559 0-4.888" fill="url(#v)"/><path d="M105.397 350.767c-1.251-.685-1.251-1.76 0-2.445 1.231-.684 3.233-.684 4.484 0 .918.509 1.168 1.213.751 1.838l-1.814.978c-1.127.235-2.482.117-3.4-.391m141.315 76.473c-.792-.43-1.042-1.036-.813-1.584l2.336-1.271c1.022-.117 2.169 0 2.94.43 1.252.685 1.231 1.78 0 2.444-1.23.685-3.232.685-4.484 0m6.716-3.656c-1.961-1.056-4.839-1.271-7.216-.665l-132.827-71.897c1.105-1.271.709-2.855-1.231-3.93-2.502-1.35-6.527-1.33-9.009 0-2.482 1.349-2.461 3.519.021 4.868 1.96 1.056 4.838 1.271 7.216.665l132.827 71.898c-1.106 1.271-.709 2.854 1.23 3.93 2.503 1.349 6.549 1.349 9.031 0 2.46-1.33 2.44-3.539-.063-4.889" fill="url(#w)"/><path d="M166.315 411.577c-.709-.391-.98-.919-.875-1.408l2.752-1.505c.918-.059 1.898.078 2.607.469 1.252.684 1.252 1.76 0 2.444-1.23.685-3.232.685-4.484 0ZM4.812 306.146c-1.25-.684-1.25-1.76 0-2.444 1.23-.685 3.233-.685 4.484 0 1.252.684 1.252 1.76 0 2.444-1.23.684-3.232.684-4.484 0Zm6.716-3.657c-2.503-1.349-6.507-1.349-8.968 0-2.482 1.35-2.503 3.54 0 4.889a7.59 7.59 0 0 0 2.169.762l.125 15.232 158 85.507c-1.127 1.29-.71 2.855 1.23 3.93 2.503 1.349 6.507 1.349 8.968 0 2.482-1.349 2.461-3.52-.021-4.869-1.961-1.056-4.838-1.271-7.195-.684L9.066 322.434l-.103-14.196c.938-.156 1.856-.43 2.627-.841 2.482-1.349 2.44-3.539-.062-4.888" fill="url(#x)"/><path d="M270.487 440.086c-1.251-.684-1.251-1.759 0-2.444 1.21-.665 3.233-.684 4.484 0 .96.509 1.147 1.271.688 1.897l-1.668.919c-1.189.274-2.544.156-3.483-.372m154.621 16.836c-.605-.645-.417-1.428.563-1.956 1.231-.684 3.233-.684 4.484 0 1.251.685 1.251 1.76 0 2.445-.98.528-2.398.625-3.587.312l-1.46-.801Zm7.299-3.187c-2.502-1.35-6.527-1.33-9.009 0-1.94 1.055-2.336 2.62-1.231 3.91l-13.764 7.509h-84.13l-45.861-24.813c1.126-1.291.709-2.855-1.23-3.931-2.503-1.349-6.549-1.349-9.01 0-2.482 1.349-2.461 3.559.021 4.908 1.96 1.056 4.88 1.271 7.216.665l47.091 25.498h87.676l15.015-8.174c2.357.606 5.256.391 7.195-.684 2.482-1.349 2.503-3.539 0-4.888" fill="url(#y)"/><path d="M197.745 377.085c-1.252-.684-1.252-1.759 0-2.444 1.209-.665 3.232-.684 4.483 0 1.252.685 1.231 1.78 0 2.444-1.23.685-3.232.685-4.483 0Zm115.392 62.454c-1.231-.665-1.252-1.76 0-2.445 1.23-.684 3.274-.664 4.484 0 1.251.685 1.251 1.76 0 2.445-1.252.684-3.233.684-4.484 0Zm6.715-3.657c-1.96-1.056-4.838-1.271-7.195-.684L205.711 377.34c1.126-1.291.709-2.855-1.23-3.931-2.503-1.349-6.549-1.349-9.01 0-2.481 1.35-2.461 3.559.021 4.908 1.961 1.056 4.88 1.271 7.216.665l106.925 57.878c-1.105 1.271-.688 2.855 1.272 3.91 2.503 1.35 6.528 1.369 9.01 0 2.481-1.368 2.44-3.539-.063-4.888Z" fill="url(#z)"/><path d="M207.567 433.888c-1.251-.684-1.23-1.779 0-2.444 1.231-.685 3.233-.685 4.484 0 .647.352.959.841.918 1.29l-.376-.215-2.982 1.623.375.215c-.855.039-1.751-.137-2.419-.489m327.845-8.975c-.605-.645-.459-1.447.521-1.994 1.231-.684 3.233-.684 4.484 0s1.251 1.76 0 2.444c-1.001.548-2.461.626-3.671.293l-1.355-.743m7.257-3.206c-2.502-1.349-6.506-1.349-8.967 0-1.94 1.056-2.336 2.62-1.189 3.93l-117.686 64.115h-96.539l-102.712-55.609c1.105-1.271.709-2.855-1.231-3.931-2.502-1.349-6.527-1.329-9.009 0-2.482 1.35-2.461 3.52.021 4.869 1.96 1.056 4.838 1.271 7.216.665L316.515 492h100.063l118.917-64.799c2.357.606 5.256.391 7.195-.685 2.482-1.349 2.461-3.519-.021-4.868" fill="url(#A)"/><path d="M132.571 304.856c-1.251-.684-1.272-1.779-.041-2.444l.75-.274h3.004l.75.274c1.231.665 1.252 1.76 0 2.444-1.251.684-3.274.665-4.483 0m124.38-92.428c-1.251-.685-1.272-1.78-.041-2.445 1.23-.684 3.274-.664 4.525 0 1.231.665 1.251 1.76 0 2.445-1.23.684-3.274.664-4.484 0Zm6.716-3.657c-2.503-1.349-6.528-1.369-9.01 0-1.939 1.056-2.315 2.64-1.189 3.93l-120.897 65.875.166 21.841c-.896.157-1.751.431-2.461.802-2.46 1.33-2.44 3.539.063 4.888 2.461 1.33 6.528 1.33 8.968 0 2.482-1.349 2.461-3.558 0-4.888-.688-.371-1.481-.626-2.336-.802l-.146-20.902 119.647-65.191c2.356.606 5.276.391 7.215-.664 2.482-1.35 2.441-3.54-.02-4.869" fill="url(#B)"/><path d="M309.257 410.131c-1.251-.685-1.251-1.799-.041-2.445 1.23-.684 3.274-.664 4.525 0 1.231.665 1.251 1.76.042 2.425-1.231.685-3.295.685-4.526 0m136.748-15.095c-1.251-.684-1.251-1.76 0-2.444 1.251-.685 3.233-.685 4.484 0 1.251.684 1.251 1.76 0 2.444-1.251.684-3.233.684-4.484 0Zm6.715-3.656c-2.502-1.35-6.506-1.35-8.967 0-1.94 1.055-2.336 2.62-1.231 3.91l-45.694 24.931h-61.439l-18.144-9.816c1.105-1.271.709-2.855-1.231-3.93-2.502-1.349-6.548-1.349-9.03 0-2.461 1.329-2.44 3.539.063 4.888 1.96 1.056 4.88 1.271 7.215.665l19.396 10.5h64.964l46.945-25.576c2.357.606 5.256.391 7.195-.684 2.482-1.349 2.461-3.52-.021-4.869" fill="url(#C)"/><path d="M469.238 382.385c-1.251-.685-1.251-1.76 0-2.445 1.251-.684 3.232-.684 4.484 0 1.251.685 1.251 1.76 0 2.445-1.252.684-3.233.684-4.484 0Zm96.122-52.364c-1.252-.685-1.252-1.76 0-2.444 1.23-.685 3.232-.685 4.484 0 1.23.665 1.251 1.759 0 2.444-1.231.684-3.275.665-4.484 0Zm6.736-3.676c-2.503-1.349-6.549-1.349-9.03 0-1.94 1.056-2.315 2.64-1.189 3.93l-87.717 47.788c-2.357-.606-5.277-.391-7.216.665-2.482 1.349-2.44 3.539.062 4.888 2.503 1.35 6.507 1.35 8.968 0 1.94-1.055 2.336-2.62 1.231-3.91l87.675-47.808c2.378.626 5.276.391 7.216-.665 2.482-1.349 2.461-3.558 0-4.888Z" fill="url(#D)"/><path d="M452.741 442.668c-1.251-.685-1.23-1.78 0-2.444 1.231-.685 3.274-.685 4.526 0 1.251.684 1.23 1.779 0 2.444-1.231.684-3.275.684-4.526 0Zm165.883-90.415c-1.231-.664-1.252-1.759 0-2.444 1.209-.665 3.274-.665 4.484 0 1.251.685 1.272 1.78.041 2.444-1.23.665-3.274.665-4.525 0Zm6.715-3.656c-2.461-1.33-6.528-1.33-8.968 0-1.96 1.075-2.356 2.64-1.23 3.93l-157.436 85.78c-2.357-.606-5.277-.391-7.237.685-2.461 1.329-2.44 3.539.062 4.888 2.503 1.349 6.528 1.33 9.01 0 1.939-1.056 2.336-2.62 1.189-3.93l157.436-85.78c2.357.606 5.276.391 7.237-.685 2.481-1.349 2.44-3.539-.063-4.888Z" fill="url(#E)"/><path d="M560.042 360.387c-1.252-.684-1.252-1.76 0-2.444.98-.528 2.481-.626 3.649-.313l1.419.763c.604.645.417 1.447-.563 1.975-1.231.684-3.233.684-4.484 0m77.769-85.722c-1.251-.684-1.231-1.779 0-2.444 1.23-.685 3.274-.685 4.525 0 1.252.684 1.231 1.779 0 2.444-1.209.665-3.232.684-4.483 0m6.736-3.676c-2.503-1.349-6.549-1.349-9.031 0-2.46 1.33-2.44 3.539.063 4.888.709.391 1.522.645 2.419.802l.23 39.439-73.244 39.928c-2.377-.626-5.276-.391-7.216.665-2.482 1.349-2.461 3.558 0 4.888 2.503 1.349 6.549 1.349 9.03 0 1.94-1.056 2.315-2.64 1.189-3.93l74.495-40.593-.271-40.436c.855-.176 1.648-.43 2.315-.802 2.482-1.349 2.503-3.539 0-4.888" fill="url(#F)"/><path d="M590.636 395.563c-1.251-.684-1.251-1.759 0-2.444.855-.469 2.107-.586 3.191-.41l2.065 1.114c.334.587.125 1.271-.751 1.74-1.23.685-3.232.685-4.484 0m131.764-111.297c-1.252-.684-1.252-1.76 0-2.444 1.209-.665 3.232-.685 4.484 0 1.251.684 1.23 1.779 0 2.444-1.231.684-3.233.684-4.484 0Zm6.715-3.656c-2.503-1.35-6.548-1.35-8.968 0-2.481 1.349-2.502 3.539 0 4.888.459.254 1.022.45 1.606.606l.209 36.271L595.6 391.242c-2.357-.606-5.256-.391-7.195.684-2.482 1.35-2.461 3.52.021 4.869 2.502 1.349 6.507 1.349 8.967 0 1.94-1.056 2.336-2.62 1.189-3.93l127.634-69.532-.25-36.897c1.189-.156 2.273-.449 3.191-.938 2.461-1.33 2.461-3.52-.021-4.869" fill="url(#G)"/><path d="M642.962 338.996c-1.251-.684-1.251-1.76 0-2.444 1.252-.684 3.233-.684 4.484 0s1.251 1.76 0 2.444c-1.23.685-3.232.685-4.484 0Zm-51.241-110.671c-1.251-.685-1.231-1.78 0-2.445 1.209-.664 3.232-.684 4.484 0 .897.489 1.105 1.193.709 1.799l-1.919 1.037c-1.105.215-2.398.097-3.295-.391m6.736-3.676c-2.502-1.35-6.548-1.35-9.009 0-2.482 1.349-2.461 3.558.021 4.907 1.96 1.056 4.838 1.271 7.216.665l79.646 43.115.292 45.696-28.76 15.663c-2.377-.626-5.276-.392-7.216.664-2.481 1.35-2.502 3.539 0 4.889 2.503 1.349 6.549 1.349 9.031 0 1.939-1.056 2.315-2.64 1.189-3.931l29.989-16.346-.312-47.593-80.898-43.799c1.105-1.271.709-2.855-1.23-3.93" fill="url(#H)"/><path d="M540.751 172.871c-1.252-.685-1.231-1.78 0-2.445 1.23-.684 3.274-.684 4.525 0 1.001.548 1.147 1.35.563 1.995l-1.376.743c-1.189.332-2.67.254-3.671-.293m154.371 83.531c-1.022-.567-1.147-1.408-.438-2.092l1.084-.587c1.252-.391 2.816-.332 3.838.235 1.251.684 1.272 1.779.041 2.444-1.23.685-3.274.665-4.525 0Zm6.715-3.656c-1.96-1.056-4.838-1.271-7.195-.685L548.78 173.105c1.105-1.271.709-2.855-1.231-3.93-2.502-1.349-6.548-1.349-9.03 0-2.461 1.33-2.44 3.539.063 4.888 1.96 1.056 4.88 1.271 7.216.665l145.882 78.976c-1.105 1.271-.688 2.855 1.272 3.91 2.503 1.35 6.528 1.369 9.01 0 2.482-1.349 2.44-3.539-.063-4.888" fill="url(#I)"/><path d="M343.773 126.881c-1.251-.684-1.251-1.76 0-2.444 1.21-.665 3.232-.684 4.484 0 1.251.684 1.23 1.779 0 2.444-1.231.685-3.233.685-4.484 0Zm214.413 83.278c-1.231-.665-1.231-1.78 0-2.444 1.23-.685 3.274-.665 4.484 0 1.251.684 1.251 1.759 0 2.444-1.21.665-3.233.684-4.484 0Zm6.736-3.676c-1.96-1.056-4.88-1.271-7.216-.665l-149.595-80.951h-55.933c-.251-.606-.814-1.173-1.69-1.642-2.502-1.349-6.548-1.349-9.009 0-2.482 1.349-2.461 3.558.021 4.908 2.502 1.349 6.527 1.329 9.009 0 .522-.274.855-.587 1.189-.919h54.662l148.343 80.266c-1.126 1.29-.709 2.855 1.23 3.93 2.503 1.349 6.549 1.349 9.01 0 2.482-1.349 2.461-3.559-.021-4.908" fill="url(#J)"/><path d="M387.986 192.053c-1.252-.684-1.252-1.76 0-2.444 1.251-.684 3.232-.684 4.484 0 .646.352.917.821.917 1.29l-.73-.391-2.982 1.623.73.391c-.897 0-1.752-.136-2.419-.488m145.674 78.819c-.793-.43-1.043-1.036-.814-1.584l2.336-1.271c1.022-.117 2.169 0 2.941.43 1.251.685 1.23 1.78 0 2.444-1.231.685-3.233.685-4.484 0m6.715-3.656c-1.96-1.056-4.838-1.271-7.216-.665l-137.165-74.244c1.106-1.271.709-2.854-1.23-3.93-2.503-1.349-6.549-1.349-9.03 0-2.482 1.349-2.44 3.539.062 4.888 1.961 1.056 4.839 1.271 7.216.665l137.165 74.244c-1.105 1.271-.709 2.855 1.23 3.93 2.503 1.349 6.549 1.349 9.031 0 2.461-1.329 2.44-3.539-.063-4.888Z" fill="url(#K)"/><path d="M284.377 197.469c-1.23-.665-1.251-1.76 0-2.444.918-.509 2.232-.607 3.358-.392l1.877 1.017c.417.606.187 1.31-.709 1.799-1.21.684-3.233.684-4.484 0m180.419 13.12c-1.231-.664-1.231-1.779 0-2.444 1.23-.684 3.274-.665 4.484 0 1.251.685 1.251 1.76 0 2.444-1.21.665-3.233.685-4.484 0Zm6.736-3.676c-1.961-1.055-4.88-1.271-7.216-.664L397.1 169.82h-64.964l-42.774 23.308c-2.378-.626-5.277-.391-7.216.665-2.482 1.349-2.44 3.539.021 4.868 2.502 1.35 6.527 1.369 9.009 0 1.939-1.055 2.315-2.639 1.189-3.93l41.543-22.623h61.44l66.007 35.724c-1.126 1.29-.709 2.855 1.23 3.93 2.503 1.349 6.549 1.349 9.01 0 2.482-1.349 2.461-3.559-.021-4.908" fill="url(#L)"/><path d="M492.22 346.661c-1.251-.684-1.251-1.76 0-2.444 1.231-.684 3.233-.684 4.484 0s1.251 1.76 0 2.444c-1.23.685-3.232.685-4.484 0Zm64.068-65.523c-1.252-.684-1.252-1.76 0-2.444 1.209-.665 3.232-.684 4.484 0 1.23.665 1.23 1.779 0 2.444-1.231.684-3.275.665-4.484 0Zm6.715-3.656c-2.503-1.35-6.549-1.35-9.03 0-2.461 1.329-2.44 3.539.062 4.888a8.037 8.037 0 0 0 2.169.763l.167 26.924-59.229 32.263c-2.357-.606-5.276-.391-7.216.665-2.482 1.349-2.44 3.539.063 4.888 2.502 1.35 6.507 1.35 8.968 0 1.939-1.055 2.335-2.62 1.188-3.93l60.46-32.947-.167-27.824c.938-.157 1.835-.45 2.586-.861 2.461-1.329 2.44-3.539-.021-4.868" fill="url(#M)"/><path d="M450.072 175.257c-1.231-.665-1.252-1.76 0-2.444 1.251-.685 3.274-.665 4.483 0 1.252.684 1.252 1.759 0 2.444-1.23.684-3.232.684-4.483 0Zm159.334 86.249c-1.252-.684-1.231-1.779 0-2.444 1.23-.684 3.232-.684 4.484 0 1.251.685 1.251 1.76 0 2.444-1.21.665-3.233.685-4.484 0Zm6.736-3.676c-1.96-1.056-4.88-1.271-7.216-.665L458.059 175.53c1.126-1.29.709-2.854-1.272-3.93-2.461-1.329-6.507-1.349-8.989 0-2.481 1.349-2.461 3.559 0 4.889 1.982 1.075 4.901 1.271 7.258.684l150.867 81.635c-1.126 1.29-.709 2.855 1.23 3.93 2.503 1.349 6.528 1.33 8.968 0 2.482-1.349 2.503-3.539 0-4.888" fill="url(#N)"/><path d="M209.236 159.066c-1.252-.684-1.252-1.76 0-2.444 1.001-.547 2.481-.626 3.67-.293l1.356.743c.625.665.458 1.447-.522 1.994-1.23.685-3.232.685-4.484 0m293.913-6.55c-1.251-.684-1.23-1.779 0-2.444 1.231-.685 3.233-.685 4.484 0 1.252.684 1.252 1.76 0 2.444-1.209.665-3.232.684-4.484 0Zm6.737-3.676c-1.961-1.056-4.88-1.271-7.216-.665l-88.51-47.905H314.117l-99.918 54.475c-2.377-.626-5.276-.391-7.216.665-2.482 1.349-2.502 3.539 0 4.888 2.503 1.349 6.549 1.349 9.031 0 1.939-1.056 2.314-2.64 1.188-3.93l98.687-53.791h96.518l87.28 47.221c-1.127 1.291-.709 2.855 1.23 3.93 2.503 1.349 6.528 1.33 8.968 0 2.482-1.349 2.502-3.539 0-4.888" fill="url(#O)"/><path d="M298.371 231.59c-1.23-.665-1.251-1.76 0-2.444 1.231-.685 3.274-.665 4.484 0 1.251.684 1.272 1.779.042 2.444-1.231.684-3.275.665-4.526 0Zm158.396 16.131c-1.252-.684-1.231-1.779 0-2.444 1.209-.665 3.232-.684 4.484 0 1.251.685 1.23 1.78 0 2.444-1.231.685-3.275.685-4.526 0m6.736-3.676c-1.96-1.055-4.838-1.271-7.216-.664l-68.259-36.956H341.5l-38.228 20.844c-2.377-.626-5.276-.391-7.216.664-2.482 1.35-2.461 3.559 0 4.889 2.503 1.349 6.549 1.349 9.031 0 1.939-1.056 2.314-2.64 1.188-3.93l36.977-20.14h42.961l67.008 36.251c-1.105 1.271-.709 2.855 1.231 3.931 2.502 1.349 6.548 1.349 9.03 0 2.461-1.33 2.44-3.539-.062-4.889" fill="url(#P)"/></g><path d="M363.669 360.68c-69.031 0-125.174-30.816-125.174-68.69 0-37.875 56.164-68.691 125.174-68.691s125.173 30.816 125.173 68.691c0 37.874-56.163 68.69-125.173 68.69Zm0-134.018c-67.05 0-121.587 29.31-121.587 65.328 0 36.017 54.537 65.327 121.587 65.327 67.049 0 121.586-29.31 121.586-65.327 0-36.018-54.537-65.328-121.586-65.328Z" fill="url(#Q)" opacity=".1"/><path d="M363.668 348.049c-56.079 0-101.711-25.145-101.711-56.059 0-30.914 45.632-56.059 101.711-56.059 56.08 0 101.711 25.145 101.711 56.059 0 30.914-45.631 56.059-101.711 56.059Zm0-108.208c-53.785 0-97.54 23.386-97.54 52.149s43.755 52.149 97.54 52.149c53.786 0 97.54-23.386 97.54-52.149s-43.754-52.149-97.54-52.149Z" fill="url(#R)" opacity=".2"/><path d="M363.669 335.261c-43.838 0-79.48-19.729-79.48-43.995 0-24.265 35.663-43.995 79.48-43.995 43.817 0 79.479 19.73 79.479 43.995 0 24.266-35.662 43.995-79.479 43.995Zm0-84.079c-41.523 0-75.308 17.989-75.308 40.084 0 22.096 33.785 40.085 75.308 40.085 41.523 0 75.308-17.989 75.308-40.085 0-22.095-33.785-40.084-75.308-40.084Z" fill="url(#S)" opacity=".3"/><path opacity=".4" d="M363.669 331.135c39.795 0 72.055-17.526 72.055-39.146 0-21.619-32.26-39.145-72.055-39.145-39.795 0-72.055 17.526-72.055 39.145 0 21.62 32.26 39.146 72.055 39.146Z" fill="url(#T)"/><path opacity=".03" d="M363.669 295.255c53.202 0 96.33-23.427 96.33-52.325 0-28.898-43.128-52.325-96.33-52.325s-96.331 23.427-96.331 52.325c0 28.898 43.129 52.325 96.331 52.325Z" fill="url(#U)"/><path d="M193.49 156.485c-17.477-9.464-45.715-9.464-63.087 0-17.352 9.463-17.268 24.793.208 34.257 17.477 9.464 45.715 9.464 63.088 0 17.372-9.464 17.268-24.794-.209-34.257Z" fill="#FFDA69" opacity=".4"/><path opacity=".7" d="M206.65 173.613c.041 6.199-4.276 12.397-12.972 17.129-17.352 9.464-45.59 9.464-63.087 0-8.739-4.732-13.139-10.93-13.16-17.129v6.766c.042 6.198 4.442 12.397 13.16 17.128 17.476 9.464 45.714 9.464 63.087 0 8.675-4.731 13.013-10.93 12.972-17.128v-6.766Z" fill="#FFDA69"/><path opacity=".5" d="M193.678 197.508c-17.352 9.463-45.59 9.463-63.087 0-8.739-4.732-13.139-10.931-13.16-17.129v60.556h89.219v-60.556c.041 6.198-4.276 12.397-12.972 17.129Z" fill="url(#V)"/><path d="M189.006 158.909c-14.995-8.114-39.208-8.114-54.119 0-14.891 8.115-14.808 21.274.187 29.389 14.995 8.114 39.208 8.114 54.099 0 14.89-8.115 14.828-21.274-.167-29.389Z" fill="#FFDA69" opacity=".4"/><path opacity=".4" d="M134.24 161.705c15.245-8.114 40.063-8.114 55.413 0 5.297 2.796 8.78 6.218 10.448 9.797-.876-4.595-4.588-9.073-11.095-12.593-14.995-8.114-39.208-8.114-54.119 0-6.403 3.481-10.011 7.9-10.887 12.436 1.627-3.539 5.047-6.883 10.24-9.659v.019Z" fill="#FFDA69"/><path opacity=".4" d="m180.351 169.175-.834.43c-.626-.861-1.585-1.721-2.878-2.562l3.42-1.857v-2.718l-3.774 1.271.542.215-2.983 1.623c-5.735-2.601-12.638-2.816-17.372-.235-.98.528-1.689 1.075-2.211 1.603l-1.022-.332v2.659c.084 1.858 2.065 3.676 3.963 5.377l-9.281 5.065c-1.96-1.525-1.585-3.011.355-4.263v-2.718l-2.795 1.193-2.398-1.291a8.927 8.927 0 0 0-1.835 1.311l-1.314-.137v2.874c.021 1.701 1.46 3.52 4.004 5.162l-3.42 1.858 2.753 1.486 3.462-1.877c6.235 2.835 13.347 2.365 17.456.136 2.314-1.251 3.19-2.502 3.211-3.715v-2.815l-.792.586c-.772-1.134-2.002-2.229-3.212-3.285l9.114-4.966c1.543 1.368 1.168 2.874-.355 3.891l5.172 2.796c2.128-1.349 3.045-2.816 2.962-4.282v-2.503l.062.02Zm-21.272 11.79c-2.19 1.193-5.402 1.369-8.384.235l8.572-4.673c1.585 1.642 2.231 3.128-.188 4.438Zm2.315-8.603c-1.585-1.643-2.19-3.148.271-4.498 2.565-1.407 5.631-1.27 8.259-.156l-8.53 4.654Z" fill="#FFDA69"/><path d="m150.695 178.482 8.572-4.673c1.585 1.642 2.231 3.128-.188 4.438-2.19 1.193-5.402 1.369-8.384.235Zm10.699-8.818c-1.585-1.643-2.19-3.149.271-4.498 2.565-1.408 5.631-1.271 8.259-.156l-8.53 4.654Zm18.665-7.177-2.753-1.486-3.462 1.878c-5.735-2.601-12.638-2.816-17.372-.235-5.944 3.246-2.461 6.413.73 9.288l-9.281 5.064c-1.96-1.525-1.585-3.011.355-4.263l-5.193-2.815c-4.755 2.6-3.858 6.159.855 9.229l-3.42 1.857 2.753 1.486 3.462-1.877c6.235 2.836 13.347 2.366 17.455.137 5.944-3.246 2.461-6.374-.771-9.229l9.114-4.966c1.543 1.368 1.167 2.874-.355 3.891l5.172 2.796c4.401-2.796 3.733-6.042-.73-8.917l3.42-1.857" fill="#FFDA69" opacity=".7"/><path opacity=".7" d="M143.313 182.511v2.698l-2.753-1.486v-2.718l2.753 1.506ZM177.39 175.979v-2.718l-5.193-2.796v2.698l5.193 2.816Z" fill="#FFDA69"/><path d="M554.64 135.368c-15.641-8.467-40.939-8.467-56.497 0-15.537 8.466-15.453 22.212.188 30.679 15.662 8.466 40.939 8.466 56.497 0 15.558-8.467 15.474-22.213-.188-30.679Z" fill="#FFDA69" opacity=".4"/><path opacity=".7" d="M566.424 150.717c.041 5.553-3.838 11.106-11.617 15.349-15.537 8.467-40.834 8.467-56.497 0-7.82-4.243-11.762-9.796-11.804-15.33v6.062c.042 5.553 3.963 11.106 11.804 15.33 15.663 8.466 40.939 8.466 56.497 0 7.779-4.243 11.637-9.797 11.617-15.35v-6.061Z" fill="#FFDA69"/><path opacity=".5" d="M554.828 172.128c-15.537 8.466-40.834 8.466-56.497 0-7.82-4.243-11.762-9.797-11.804-15.33v77.177h79.897v-77.177c.042 5.553-3.837 11.106-11.616 15.349l.02-.019Z" fill="url(#W)"/><path d="M550.636 137.558c-13.431-7.274-35.12-7.274-48.468 0-13.326 7.274-13.264 19.045.167 26.319 13.431 7.274 35.12 7.274 48.447 0 13.347-7.274 13.264-19.045-.167-26.319" fill="#FFDA69" opacity=".4"/><path opacity=".4" d="M501.585 140.061c13.66-7.274 35.871-7.274 49.615 0 4.755 2.503 7.862 5.553 9.343 8.779-.793-4.106-4.109-8.114-9.927-11.263-13.431-7.273-35.121-7.273-48.468 0-5.735 3.129-8.968 7.079-9.76 11.146 1.46-3.168 4.525-6.179 9.176-8.643l.021-.019Z" fill="#FFDA69"/><path opacity=".4" d="m542.878 146.747-.751.372c-.563-.783-1.418-1.545-2.565-2.288l3.066-1.662v-2.425l-3.379 1.134.48.196-2.67 1.466c-5.13-2.327-11.324-2.522-15.558-.215-.876.489-1.522.958-1.981 1.428l-.918-.313v2.385c.063 1.662 1.836 3.285 3.546 4.81l-8.321 4.537c-1.752-1.369-1.419-2.699.312-3.813v-2.425l-2.502 1.076-2.148-1.154a7.69 7.69 0 0 0-1.648 1.173l-1.189-.117v2.581c.021 1.525 1.293 3.148 3.588 4.634l-3.066 1.662 2.461 1.33 3.086-1.682c5.589 2.542 11.95 2.131 15.621.117 2.065-1.134 2.857-2.248 2.878-3.324v-2.522l-.709.528c-.688-1.017-1.794-1.995-2.878-2.933l8.154-4.439c1.377 1.232 1.043 2.581-.313 3.481l4.63 2.503c1.898-1.213 2.732-2.523 2.649-3.833v-2.248l.125-.02Zm-19.062 10.559c-1.96 1.075-4.838 1.232-7.508.195l7.675-4.184c1.418 1.466 2.002 2.796-.167 3.969v.02Zm2.086-7.704c-1.418-1.467-1.961-2.816.25-4.028 2.294-1.252 5.026-1.134 7.383-.137l-7.633 4.165Z" fill="#FFDA69"/><path d="m516.329 155.077 7.675-4.184c1.418 1.467 2.002 2.796-.167 3.969-1.96 1.076-4.838 1.232-7.508.196m9.593-7.9c-1.418-1.466-1.96-2.815.251-4.028 2.294-1.251 5.026-1.134 7.383-.137l-7.634 4.165Zm16.726-6.433-2.46-1.329-3.108 1.681c-5.13-2.327-11.324-2.522-15.558-.215-5.339 2.914-2.211 5.749.667 8.33l-8.321 4.536c-1.752-1.368-1.418-2.698.313-3.813l-4.651-2.522c-4.275 2.327-3.462 5.514.772 8.271l-3.066 1.662 2.461 1.33 3.087-1.682c5.589 2.542 11.95 2.131 15.62.117 5.339-2.913 2.211-5.709-.688-8.271l8.154-4.438c1.377 1.232 1.043 2.581-.312 3.48l4.63 2.503c3.941-2.503 3.336-5.416-.647-7.997l3.066-1.662M509.718 158.675v2.425l-2.482-1.33v-2.424l2.482 1.329Z" fill="#FFDA69" opacity=".7"/><path opacity=".7" d="M540.229 152.829v-2.425l-4.65-2.503v2.425l4.65 2.503Z" fill="#FFDA69"/><path opacity=".2" d="m390.259 112.646-121.628 65.739v80.95l121.628-65.738v-80.951Z" fill="url(#X)"/><path opacity=".4" d="m268.485 178.502 121.774-65.915-56.518-30.737-122.086 66.07 56.83 30.582Z" fill="#D7FFFE"/><path opacity=".3" d="m234.7 138.906 82.42-44.602c.813-.45 2.232-.39 3.212.079 10.552 5.084 24.296 6.276 32.45 2.835.876-.372 2.211-.274 3.108.215l11.867 6.453c.875.488 1.042 1.192.417 1.681-4.213 3.246-2.211 8.623 5.005 12.553.083.039.167.079.25.137l-34.62 18.732c-1.251-4.399-5.693-9.151-13.013-13.1-14.286-7.743-34.057-9.601-44.13-4.146-10.073 5.456-6.632 16.151 7.675 23.875 7.341 3.95 16.079 6.355 24.234 7.039l-34.641 18.752s-.146-.098-.229-.137c-7.258-3.911-17.185-4.986-23.191-2.699-.897.333-2.211.255-3.087-.234l-11.929-6.433c-.897-.489-1.085-1.213-.417-1.682 6.381-4.419 4.192-11.849-5.235-17.559-.897-.547-.98-1.29-.146-1.74v-.019Z" fill="#D7FFFE"/><path opacity=".3" d="M328.423 115.442c4.088 2.209 10.261 2.444 13.786.528 3.524-1.916 3.107-5.26-.981-7.469-4.087-2.21-10.26-2.464-13.785-.548-3.545 1.916-3.107 5.26.98 7.469v.02ZM262.979 150.854c4.088 2.209 10.282 2.444 13.806.528 3.546-1.917 3.087-5.26-1.001-7.47-4.087-2.209-10.281-2.444-13.827-.528-3.545 1.917-3.086 5.26 1.001 7.47h.021Z" fill="#D7FFFE"/><path opacity=".2" d="m211.655 148.214 56.976 30.288v80.833l-56.976-30.307v-80.814Z" fill="url(#Y)"/><path d="M293.429 131.417c-2.461-1.329-2.232-2.913-.313-4.282l8.196 4.439c-2.857.821-5.527 1.114-7.863-.157m15.204 1.271c2.878-.801 5.485-1.134 7.8.118 2.106 1.134 2.461 2.815.438 4.34l-8.238-4.458Zm12.2-2.542c-5.714-3.089-11.22-1.29-16.204.372l-8.76-4.732c2.42-.782 5.047-.587 6.841.196l4.901-2.679c-4.943-2.288-10.636-1.956-15.683.352l-3.274-1.78-2.628 1.428 3.316 1.799c-4.547 2.972-4.88 6.55-.355 8.994 5.715 3.09 11.283 1.291 16.33-.352l8.926 4.83c-2.649 1.017-5.297.802-7.466-.196l-4.922 2.679c4.567 2.483 10.845 2.014 16.204-.43l3.275 1.779 2.627-1.427-3.316-1.799c4.943-3.226 4.109-6.922.188-9.053" fill="#D7FFFE" opacity=".3"/><path opacity=".5" d="m533.451 150.678-188.49 103.847v133.1l188.49-103.848V150.678Z" fill="url(#Z)"/><path d="m365.462 376.342 37.519-20.687V222.556l-37.519 20.668v133.118Z" fill="url(#aa)"/><path d="m497.643 303.507 23.692-13.042V157.346l-23.692 13.061v133.1Z" fill="url(#ab)"/><path d="m486.527 309.627 3.733-2.053V174.475l-3.733 2.053v133.099Z" fill="url(#ac)"/><path d="m408.278 352.741 10.344-5.709V213.933l-10.344 5.709v133.099Z" fill="url(#ad)"/><path opacity=".5" d="m207.234 179.52 137.728 75.886v132.61L207.234 312.13V179.52Z" fill="url(#ae)"/><path opacity=".5" d="m222.937 320.772 38.27 21.098V209.259l-38.27-21.098v132.611Z" fill="url(#af)"/><path opacity=".5" d="m269.216 346.27 9.968 5.514v-132.63l-9.968-5.495V346.27Z" fill="url(#ag)"/><path d="M526.965 142.661 401.5 81.479c-4.65-2.522-10.407-2.522-15.057.02l-173.328 87.755c-6.799 3.696-10.908 15.134 1.772 22.33l119.647 64.76c7.299 3.95 16.288 3.93 23.566-.039l167.134-91.06c10.616-5.064 11.513-16.639 1.69-22.564l.041-.02Z" fill="url(#ah)"/><path d="M526.965 142.661 401.5 81.479c-4.65-2.522-10.407-2.522-15.057.02l-173.328 87.755c-6.799 3.696-10.908 15.134 1.772 22.33l119.647 64.76c7.299 3.95 16.288 3.93 23.566-.039l167.134-91.06c10.616-5.064 11.513-16.639 1.69-22.564l.041-.02Z" fill="url(#ai)"/><path d="m525.255 141.488-123.734-66.99c-4.651-2.522-10.407-2.522-15.057.02l-171.576 93.485c-6.799 3.695-6.778 12.905.02 16.581l118.98 64.408c7.716 4.185 17.226 4.165 24.922-.039l166.466-90.708c6.882-3.754 6.862-13.061-.021-16.776v.019Z" fill="url(#aj)"/><path d="M522.273 149.759 393.095 79.836l-171.096 93.23 129.177 69.923 171.097-93.23Z" fill="url(#ak)"/><path d="M288.631 211.607c-2.419-1.31-6.34-1.31-8.738 0-2.399 1.31-2.398 3.441.021 4.751 2.419 1.31 6.34 1.31 8.759 0 2.398-1.31 2.398-3.441-.042-4.751Z" fill="url(#al)"/><path d="M288.631 211.607c-2.419-1.31-6.34-1.31-8.738 0-2.399 1.31-2.398 3.441.021 4.751 2.419 1.31 6.34 1.31 8.759 0 2.398-1.31 2.398-3.441-.042-4.751Z" fill="url(#am)"/><path d="m525.255 141.605-123.734-66.99c-4.651-2.521-10.407-2.521-15.057.02L214.888 168.12c-6.799 3.695-6.778 12.905.02 16.581l118.98 64.409c7.716 4.184 17.226 4.164 24.922-.04l166.466-90.707c6.882-3.755 6.862-13.062-.021-16.777v.019Z" fill="url(#an)" opacity=".4"/><path d="M343.898 89.809V119.9l15.516-8.447c-6.757-6.413-15.329-13.941-15.516-21.626v-.02Z" fill="url(#ao)"/><path d="m349.904 185.854 15.329-8.349c2.523 3.265 3.065 6.081-.605 8.095-4.088 2.229-9.531 2.209-14.724.274m33.431-27.531c-1.981-3.109-2.002-5.788 1.668-7.783 3.963-2.151 8.614-2.151 13.264-.352l-14.932 8.135Zm55.079-20.688-8.593-4.653-11.011 6.002c-20.271-9.913-46.09-12.807-63.63-3.245-22.273 12.142-6.673 25.321 4.192 35.626l-17.414 9.483c-2.064-2.62-1.376-5.358 3.108-8.252l-28.614-15.486c-17.539 10.442-13.076 23.797 4.463 35.216l-11.178 6.081 8.592 4.654 10.887-5.945c23.816 12.006 49.176 11.869 64.568 3.481 21.898-11.928 5.464-25.4-5.006-35.939l17.248-9.405c1.522 2.151 1.001 4.673-3.066 7.332l28.863 15.623c16.872-10.5 14.057-22.955-4.421-34.609l11.012-6.003" fill="#999" style="mix-blend-mode:multiply" opacity=".15"/><path d="m349.904 125.923 15.329-8.349c2.523 3.266 3.065 6.081-.605 8.095-4.088 2.229-9.531 2.21-14.724.274m33.431-27.531c-1.981-3.109-2.002-5.788 1.668-7.782 3.963-2.151 8.614-2.151 13.264-.352l-14.932 8.134Zm55.079-20.688-8.593-4.653-11.011 6.003c-20.271-9.914-46.09-12.808-63.63-3.246-22.273 12.142-6.673 25.321 4.192 35.626l-17.414 9.483c-2.064-2.62-1.376-5.357 3.108-8.251L316.452 97.2c-17.539 10.441-13.076 23.796 4.463 35.215l-11.178 6.081 8.592 4.654 10.887-5.944c23.816 12.005 49.176 11.869 64.568 3.48 21.898-11.927 5.464-25.4-5.006-35.939l17.248-9.405c1.522 2.15 1.001 4.673-3.066 7.333l28.863 15.623c16.872-10.501 14.057-22.956-4.421-34.61l11.012-6.003" fill="#FFDA69" opacity=".8"/><path opacity=".5" d="M393.783 140.686c-15.37 8.388-40.751 8.506-64.568-3.48l-10.886 5.944-8.592-4.654 11.178-6.081c-9.739-6.335-15.433-13.257-15.579-19.944v51.542l99.271 52.716V127.39c0 4.497-2.899 9.014-10.803 13.316l-.021-.02Z" fill="url(#ap)"/><path d="M443.002 103.946c-.313 5.005-3.921 9.855-11.158 14.352l-28.863-15.623v18.575c1.918 3.852 2.377 7.783 0 11.654v10.774l40.063 18.556v-58.269h-.042v-.019Z" fill="url(#aq)"/><path d="m355.41 75.71 27.487 69.102a50.306 50.306 0 0 0 7.091-2.327l-27.717-69.727a43.151 43.151 0 0 0-6.861 2.952Z" fill="#FFDA69"/><path opacity=".5" d="m388.778 104.747 17.248-9.405c1.522 2.151 1.001 4.673-3.066 7.333l12.221 6.628-14.64-36.838c-13.139-3.246-26.841-3.52-38.291.313l27.717 69.727c1.314-.548 2.607-1.134 3.796-1.799 21.898-11.928 5.464-25.4-5.006-35.939l.021-.02Zm-3.774-14.137c3.962-2.15 8.613-2.15 13.263-.352l-14.932 8.134c-1.981-3.109-2.002-5.787 1.669-7.782ZM355.222 75.79c-5.13 2.795-8.238 5.65-9.865 8.524l8.78 22.096c1.773 1.74 3.588 3.421 5.277 5.025l-2.69 1.466 3.044 7.665 5.485-2.991c2.524 3.265 3.066 6.081-.604 8.095-.772.43-1.606.743-2.461.997l7.925 19.905c4.525-.176 8.821-.762 12.784-1.76L355.41 75.711s-.125.059-.188.098v-.02Z" fill="#FFDA69"/><path d="M348.548 221.089c0-.704-.604-1.251-1.334-1.251-.73 0-1.335.567-1.335 1.251 0 .685.605 1.252 1.335 1.252s1.334-.567 1.334-1.252ZM374.033 168.198c0-.704-.604-1.252-1.334-1.252-.73 0-1.335.567-1.335 1.252 0 .684.605 1.251 1.335 1.251s1.334-.567 1.334-1.251ZM363.522 159.575c0-.704-.605-1.252-1.334-1.252-.73 0-1.335.567-1.335 1.252 0 .684.605 1.251 1.335 1.251.729 0 1.334-.567 1.334-1.251ZM447.277 125.669c0-.704-.604-1.251-1.334-1.251-.73 0-1.335.567-1.335 1.251 0 .685.605 1.252 1.335 1.252s1.334-.567 1.334-1.252ZM484.733 151.303c0-.704-.605-1.251-1.335-1.251-.729 0-1.334.567-1.334 1.251 0 .685.605 1.252 1.334 1.252.73 0 1.335-.567 1.335-1.252ZM449.967 91.06c0-.704-.605-1.251-1.335-1.251s-1.334.567-1.334 1.251c0 .684.604 1.251 1.334 1.251.73 0 1.335-.567 1.335-1.251ZM417.892 34.277c0-.704-.605-1.252-1.335-1.252s-1.334.567-1.334 1.252c0 .684.604 1.251 1.334 1.251.73 0 1.335-.567 1.335-1.251ZM368.611 34.277c0-.704-.605-1.252-1.335-1.252s-1.335.567-1.335 1.252c0 .684.605 1.251 1.335 1.251s1.335-.567 1.335-1.251ZM319.956 1.251c0-.704-.605-1.251-1.335-1.251s-1.334.567-1.334 1.251c0 .685.604 1.252 1.334 1.252.73 0 1.335-.567 1.335-1.252ZM349.904 67.029c0-.704-.605-1.252-1.335-1.252s-1.335.567-1.335 1.252c0 .684.605 1.251 1.335 1.251s1.335-.567 1.335-1.251ZM276.243 162.371c0-.704-.605-1.252-1.335-1.252s-1.335.567-1.335 1.252c0 .684.605 1.251 1.335 1.251s1.335-.567 1.335-1.251ZM357.391 72.757c0-.704-.605-1.251-1.335-1.251-.729 0-1.334.567-1.334 1.251 0 .685.605 1.252 1.334 1.252.73 0 1.335-.567 1.335-1.252ZM478.393 157.874c0-.704-.604-1.252-1.334-1.252-.73 0-1.335.567-1.335 1.252 0 .684.605 1.251 1.335 1.251s1.334-.567 1.334-1.251ZM285.628 168.198c0-.704-.605-1.252-1.335-1.252s-1.335.567-1.335 1.252c0 .684.605 1.251 1.335 1.251s1.335-.567 1.335-1.251ZM279.434 106.213c0-.704-.605-1.251-1.335-1.251s-1.335.567-1.335 1.251c0 .685.605 1.252 1.335 1.252s1.335-.567 1.335-1.252Z" fill="#FFDA69"/><path opacity=".4" d="M284.293 94.912c0-.704-.605-1.252-1.335-1.252-.729 0-1.334.567-1.334 1.252 0 .684.605 1.251 1.334 1.251.73 0 1.335-.567 1.335-1.251ZM365.462 175.764c0-.704-.605-1.251-1.335-1.251s-1.335.567-1.335 1.251c0 .684.605 1.252 1.335 1.252s1.335-.568 1.335-1.252ZM323.96 162.683c0-.704-.605-1.251-1.335-1.251s-1.334.567-1.334 1.251c0 .684.604 1.251 1.334 1.251.73 0 1.335-.567 1.335-1.251ZM390.071 204.292c0-.704-.605-1.251-1.335-1.251s-1.335.567-1.335 1.251c0 .685.605 1.252 1.335 1.252s1.335-.567 1.335-1.252ZM410.864 146.982c0-.704-.605-1.252-1.335-1.252s-1.335.568-1.335 1.252.605 1.251 1.335 1.251 1.335-.567 1.335-1.251ZM412.22 155.664c0-.704-.605-1.252-1.335-1.252s-1.335.567-1.335 1.252c0 .684.605 1.251 1.335 1.251s1.335-.567 1.335-1.251ZM281.603 178.854c0-.704-.605-1.251-1.335-1.251s-1.335.567-1.335 1.251c0 .684.605 1.251 1.335 1.251s1.335-.567 1.335-1.251ZM352.99 228.657c0-.704-.605-1.252-1.334-1.252-.73 0-1.335.567-1.335 1.252 0 .684.605 1.251 1.335 1.251.729 0 1.334-.567 1.334-1.251ZM238.474 169.429c0-.704-.605-1.251-1.335-1.251s-1.334.567-1.334 1.251c0 .685.604 1.252 1.334 1.252.73 0 1.335-.567 1.335-1.252ZM303.167 128.641c0-.704-.604-1.251-1.334-1.251-.73 0-1.335.567-1.335 1.251 0 .684.605 1.251 1.335 1.251s1.334-.567 1.334-1.251ZM295.597 145.731c0-.704-.605-1.252-1.335-1.252s-1.335.568-1.335 1.252.605 1.251 1.335 1.251 1.335-.567 1.335-1.251ZM340.957 196.413c0-.704-.605-1.252-1.335-1.252s-1.335.567-1.335 1.252c0 .684.605 1.251 1.335 1.251s1.335-.567 1.335-1.251ZM440.541 184.603c0-.704-.605-1.251-1.335-1.251s-1.335.567-1.335 1.251c0 .684.605 1.251 1.335 1.251s1.335-.567 1.335-1.251ZM451.824 160.845c0-.704-.605-1.251-1.335-1.251s-1.335.567-1.335 1.251c0 .684.605 1.252 1.335 1.252s1.335-.568 1.335-1.252ZM439.206 127.332c0-.704-.605-1.252-1.335-1.252s-1.334.567-1.334 1.252c0 .684.604 1.251 1.334 1.251.73 0 1.335-.567 1.335-1.251ZM455.473 106.213c0-.704-.604-1.251-1.334-1.251-.73 0-1.335.567-1.335 1.251 0 .685.605 1.252 1.335 1.252s1.334-.567 1.334-1.252ZM365.462 54.886c0-.704-.605-1.251-1.335-1.251s-1.335.567-1.335 1.251c0 .684.605 1.252 1.335 1.252s1.335-.567 1.335-1.252ZM325.294 9.933c0-.704-.604-1.251-1.334-1.251-.73 0-1.335.567-1.335 1.251 0 .684.605 1.252 1.335 1.252s1.334-.568 1.334-1.252ZM313.032 72.62c0-.703-.605-1.25-1.335-1.25s-1.334.566-1.334 1.25c0 .685.604 1.252 1.334 1.252.73 0 1.335-.567 1.335-1.251ZM477.058 127.39c0-.704-.605-1.251-1.335-1.251-.729 0-1.334.567-1.334 1.251 0 .684.605 1.251 1.334 1.251.73 0 1.335-.567 1.335-1.251ZM417.892 51.445c0-.704-.605-1.252-1.335-1.252s-1.334.567-1.334 1.252c0 .684.604 1.251 1.334 1.251.73 0 1.335-.567 1.335-1.251Z" fill="#FFDA69"/><path d="M246.796 177.602c0-.704-.605-1.251-1.335-1.251s-1.335.567-1.335 1.251c0 .684.605 1.251 1.335 1.251s1.335-.567 1.335-1.251ZM456.829 82.593c0-.704-.605-1.251-1.335-1.251s-1.335.567-1.335 1.251c0 .685.605 1.252 1.335 1.252s1.335-.567 1.335-1.252Z" fill="#FFDA69"/><path d="M441.438 351.803c-19.291-10.442-50.47-10.442-69.636 0-19.166 10.441-19.061 27.374.23 37.816 19.291 10.441 50.469 10.441 69.635 0 19.166-10.442 19.083-27.375-.229-37.816Z" fill="#FFDA69" opacity=".4"/><path opacity=".7" d="M455.974 370.711c.042 6.844-4.734 13.687-14.307 18.908-19.166 10.441-50.324 10.441-69.636 0-9.635-5.221-14.494-12.064-14.536-18.908v7.469c.042 6.844 4.901 13.688 14.536 18.908 19.292 10.442 50.47 10.442 69.636 0 9.594-5.22 14.349-12.064 14.307-18.908v-7.469Z" fill="#FFDA69"/><path opacity=".5" d="M441.646 397.107c-19.166 10.442-50.323 10.442-69.635 0-9.635-5.22-14.495-12.064-14.536-18.908v95.147h98.478v-95.147c.042 6.844-4.734 13.688-14.307 18.908Z" fill="url(#ar)"/><path d="M436.495 354.501c-16.538-8.956-43.295-8.956-59.729 0-16.434 8.955-16.351 23.483.208 32.439 16.559 8.955 43.296 8.955 59.73 0 16.454-8.956 16.35-23.484-.188-32.439" fill="#FFDA69" opacity=".4"/><path opacity=".4" d="M376.035 357.571c16.851-8.956 44.234-8.956 61.169 0 5.86 3.089 9.698 6.863 11.533 10.813-.98-5.065-5.047-10.012-12.242-13.903-16.538-8.955-43.296-8.955-59.73 0-7.049 3.852-11.053 8.721-12.033 13.727 1.814-3.911 5.568-7.607 11.303-10.657v.02Z" fill="#FFDA69"/><path opacity=".4" d="m426.943 365.823-.918.469c-.688-.958-1.751-1.916-3.17-2.816l3.775-2.053v-2.991l-4.171 1.388.605.235-3.295 1.798c-6.319-2.874-13.952-3.109-19.166-.254-1.085.587-1.856 1.173-2.44 1.76l-1.126-.371v2.933c.083 2.053 2.273 4.047 4.358 5.924l-10.26 5.592c-2.169-1.681-1.752-3.324.396-4.692v-2.992l-3.087 1.31-2.627-1.427c-.835.449-1.502.938-2.023 1.447l-1.46-.157v3.187c.021 1.877 1.606 3.872 4.421 5.71l-3.775 2.053 3.045 1.642 3.817-2.072c6.903 3.128 14.744 2.62 19.27.156 2.544-1.388 3.524-2.757 3.545-4.106v-3.109l-.876.645c-.855-1.251-2.21-2.463-3.545-3.617l10.052-5.475c1.689 1.525 1.293 3.168-.396 4.282l5.714 3.09c2.336-1.486 3.379-3.109 3.275-4.713v-2.776h.062Zm-23.483 13.003c-2.419 1.329-5.964 1.525-9.26.254l9.469-5.162c1.751 1.799 2.461 3.461-.209 4.908Zm2.565-9.484c-1.752-1.799-2.398-3.48.292-4.947 2.837-1.544 6.215-1.388 9.114-.176l-9.406 5.123Z" fill="#FFDA69"/><path d="m394.201 376.107 9.468-5.162c1.752 1.799 2.461 3.461-.209 4.908-2.419 1.33-5.964 1.525-9.259.254Zm11.824-9.737c-1.751-1.799-2.398-3.481.292-4.947 2.837-1.545 6.215-1.388 9.114-.176l-9.406 5.123Zm20.605-7.919-3.044-1.643-3.817 2.093c-6.319-2.875-13.952-3.109-19.166-.255-6.569 3.579-2.711 7.079.813 10.266l-10.26 5.592c-2.169-1.682-1.752-3.324.396-4.693l-5.735-3.089c-5.256 2.874-4.255 6.804.959 10.187l-3.775 2.053 3.045 1.643 3.817-2.073c6.903 3.129 14.744 2.62 19.27.156 6.569-3.578 2.711-7.039-.855-10.187l10.052-5.475c1.689 1.525 1.293 3.168-.396 4.282l5.714 3.09c4.859-3.09 4.129-6.687-.813-9.855l3.775-2.053" fill="#FFDA69" opacity=".7"/><path opacity=".7" d="M386.046 380.546v2.991l-3.045-1.662v-2.991l3.045 1.662ZM423.669 373.331v-2.992l-5.714-3.089v2.972l5.714 3.109Z" fill="#FFDA69"/><path d="M699.959 241.19c-15.641-8.467-40.939-8.467-56.497 0-15.537 8.466-15.453 22.212.188 30.679 15.662 8.466 40.939 8.466 56.497 0 15.558-8.467 15.475-22.213-.188-30.679Z" fill="#FFDA69" opacity=".4"/><path opacity=".7" d="M711.763 256.52c.042 5.553-3.837 11.106-11.616 15.349-15.537 8.466-40.835 8.466-56.497 0-7.821-4.243-11.762-9.796-11.804-15.33v6.062c.042 5.553 3.963 11.106 11.804 15.329 15.662 8.467 40.939 8.467 56.497 0 7.779-4.243 11.637-9.796 11.616-15.349v-6.061Z" fill="#FFDA69"/><path opacity=".5" d="M700.147 277.93c-15.537 8.467-40.835 8.467-56.497 0-7.821-4.243-11.762-9.796-11.804-15.329v77.176h79.897v-77.176c.041 5.553-3.838 11.106-11.617 15.349l.021-.02Z" fill="url(#as)"/><path d="M695.955 243.361c-13.431-7.274-35.12-7.274-48.467 0-13.327 7.273-13.264 19.045.166 26.318 13.431 7.274 35.121 7.274 48.447 0 13.348-7.273 13.264-19.045-.167-26.318" fill="#FFDA69" opacity=".4"/><path opacity=".4" d="M646.925 245.863c13.66-7.273 35.871-7.273 49.614 0 4.755 2.503 7.863 5.554 9.343 8.78-.792-4.106-4.108-8.115-9.927-11.263-13.431-7.274-35.12-7.274-48.467 0-5.736 3.129-8.968 7.078-9.761 11.146 1.46-3.168 4.526-6.179 9.177-8.643l.021-.02Z" fill="#FFDA69"/><path opacity=".4" d="m688.218 252.57-.751.372c-.563-.782-1.418-1.545-2.565-2.288l3.065-1.662v-2.425l-3.378 1.135.48.195-2.67 1.466c-5.13-2.326-11.324-2.522-15.558-.215-.876.489-1.522.959-1.981 1.428l-.918-.313v2.385c.063 1.663 1.835 3.285 3.546 4.811l-8.322 4.536c-1.751-1.369-1.418-2.698.313-3.813v-2.425l-2.502 1.076-2.149-1.154a7.742 7.742 0 0 0-1.647 1.173l-1.189-.117v2.581c.021 1.525 1.293 3.148 3.587 4.634l-3.045 1.662 2.461 1.33 3.087-1.682c5.589 2.542 11.95 2.132 15.62.118 2.065-1.134 2.858-2.249 2.878-3.324v-2.523l-.709.528c-.688-1.017-1.793-1.994-2.878-2.933l8.155-4.438c1.376 1.231 1.043 2.581-.313 3.48l4.63 2.503c1.898-1.212 2.732-2.522 2.648-3.833v-2.248l.105-.02Zm-19.062 10.559c-1.96 1.075-4.838 1.232-7.508.196l7.675-4.185c1.418 1.467 2.002 2.796-.167 3.97v.019Zm2.086-7.704c-1.419-1.466-1.961-2.816.25-4.028 2.294-1.251 5.026-1.134 7.383-.137l-7.633 4.165Z" fill="#FFDA69"/><path d="m661.648 260.9 7.675-4.185c1.418 1.467 2.002 2.796-.167 3.97-1.96 1.075-4.838 1.231-7.508.195m9.594-7.899c-1.419-1.467-1.961-2.816.25-4.028 2.294-1.252 5.026-1.134 7.383-.137l-7.633 4.165Zm16.726-6.433-2.461-1.33-3.108 1.682c-5.13-2.327-11.324-2.523-15.558-.216-5.339 2.914-2.21 5.749.668 8.33l-8.322 4.537c-1.752-1.369-1.418-2.699.313-3.813l-4.651-2.523c-4.275 2.327-3.462 5.514.772 8.271l-3.045 1.662 2.461 1.33 3.087-1.682c5.589 2.542 11.95 2.132 15.62.118 5.339-2.914 2.211-5.71-.688-8.271l8.154-4.439c1.377 1.232 1.043 2.581-.312 3.481l4.63 2.502c3.941-2.502 3.336-5.416-.647-7.997l3.066-1.662M655.037 264.498v2.424l-2.461-1.329v-2.425l2.461 1.33Z" fill="#FFDA69" opacity=".7"/><path opacity=".7" d="M685.549 258.651v-2.425l-4.63-2.522v2.425l4.63 2.522Z" fill="#FFDA69"/><path opacity=".2" d="m75.2 294.297 121.648 65.738v80.951L75.199 375.247v-80.95Z" fill="url(#at)"/><path opacity=".4" d="M196.994 360.152 75.199 294.238l56.539-30.738 122.086 66.071-56.83 30.581Z" fill="#D7FFFE"/><path opacity=".3" d="m230.779 320.556-82.42-44.601c-.813-.45-2.231-.391-3.211.078-10.553 5.084-24.297 6.277-32.451 2.835-.876-.371-2.211-.273-3.107.215l-11.867 6.453c-.876.489-1.043 1.193-.417 1.682 4.213 3.245 2.21 8.623-5.005 12.553a1.548 1.548 0 0 0-.25.137l34.619 18.732c1.251-4.4 5.693-9.151 13.014-13.101 14.286-7.743 34.056-9.601 44.129-4.145 10.073 5.455 6.632 16.151-7.674 23.874-7.341 3.95-16.08 6.355-24.234 7.039l34.64 18.752s.146-.098.23-.137c7.257-3.91 17.185-4.986 23.191-2.698.897.332 2.211.254 3.086-.235l11.93-6.433c.896-.489 1.084-1.212.417-1.681-6.382-4.419-4.192-11.85 5.234-17.559.897-.548.981-1.291.146-1.74v-.02Z" fill="#D7FFFE"/><path opacity=".3" d="M137.056 297.073c-4.088 2.209-10.261 2.444-13.786.528-3.545-1.916-3.107-5.26.981-7.47 4.087-2.209 10.26-2.463 13.785-.547 3.545 1.916 3.107 5.26-.98 7.469v.02ZM202.479 332.484c-4.088 2.209-10.282 2.444-13.807.527-3.545-1.916-3.086-5.259 1.001-7.469 4.088-2.209 10.282-2.444 13.828-.528 3.545 1.916 3.086 5.26-1.002 7.47h-.02ZM152.906 319.559l7.862-4.282c1.439 1.506 2.044 2.874-.167 4.067-2.023 1.095-4.963 1.271-7.695.215Zm9.822-8.095c-1.439-1.505-2.002-2.894.251-4.126 2.356-1.29 5.151-1.153 7.57-.136l-7.821 4.262Zm17.123-6.589-2.524-1.369-3.17 1.721c-5.255-2.386-11.595-2.581-15.912-.215-5.465 2.972-2.253 5.885.667 8.525l-8.509 4.634c-1.794-1.388-1.46-2.757.313-3.891l-4.755-2.581c-4.359 2.385-3.546 5.651.792 8.466l-3.128 1.701 2.523 1.369 3.17-1.72c5.736 2.6 12.243 2.17 15.996.117 5.465-2.972 2.253-5.847-.709-8.467l8.363-4.556c1.418 1.271 1.064 2.64-.333 3.559l4.755 2.562c4.025-2.562 3.42-5.554-.668-8.174l3.129-1.701" fill="#D7FFFE"/><path opacity=".2" d="m253.824 329.844-56.976 30.307v80.834l56.976-30.308v-80.833Z" fill="url(#au)"/><path opacity=".2" d="m639.083 279.827-121.628 65.738v80.951l121.628-65.738v-80.951Z" fill="url(#av)"/><path opacity=".4" d="m517.309 345.682 121.774-65.914-56.517-30.738-122.087 66.071 56.83 30.581Z" fill="#D7FFFE"/><path opacity=".3" d="m483.503 306.086 82.42-44.601c.814-.45 2.232-.391 3.212.078 10.553 5.084 24.296 6.277 32.451 2.836.876-.372 2.21-.274 3.107.215l11.867 6.452c.876.489 1.043 1.193.417 1.682-4.213 3.246-2.211 8.623 5.005 12.553.084.039.167.078.25.137l-34.619 18.732c-1.252-4.399-5.694-9.151-13.014-13.101-14.286-7.743-34.057-9.6-44.13-4.145s-6.632 16.151 7.675 23.875c7.341 3.949 16.079 6.354 24.234 7.039l-34.641 18.751s-.146-.097-.229-.137c-7.258-3.91-17.185-4.986-23.191-2.698-.897.333-2.211.254-3.087-.235l-11.929-6.433c-.897-.488-1.084-1.212-.417-1.681 6.382-4.419 4.192-11.849-5.235-17.559-.896-.547-.98-1.29-.146-1.74v-.02Z" fill="#D7FFFE"/><path opacity=".3" d="M577.247 282.623c4.088 2.209 10.261 2.444 13.786.528 3.545-1.917 3.107-5.26-.98-7.47-4.088-2.209-10.261-2.464-13.786-.547-3.545 1.916-3.107 5.259.98 7.469v.02ZM511.804 318.034c4.088 2.21 10.282 2.444 13.806.528 3.546-1.916 3.087-5.26-1.001-7.469-4.088-2.21-10.282-2.444-13.827-.528s-3.086 5.26 1.001 7.469h.021Z" fill="#D7FFFE"/><path opacity=".2" d="m460.479 315.395 56.976 30.288v80.833l-56.976-30.308v-80.813Z" fill="url(#aw)"/><path d="M542.252 298.598c-2.461-1.33-2.231-2.913-.313-4.282l8.196 4.438c-2.857.822-5.526 1.115-7.862-.156m15.204 1.271c2.878-.802 5.484-1.134 7.799.117 2.107 1.134 2.461 2.816.438 4.341l-8.237-4.458Zm12.2-2.542c-5.714-3.089-11.22-1.29-16.205.372l-8.759-4.732c2.419-.782 5.047-.587 6.841.195l4.901-2.679c-4.943-2.287-10.637-1.955-15.683.352l-3.275-1.779-2.627 1.427 3.315 1.799c-4.546 2.972-4.88 6.551-.354 8.995 5.714 3.089 11.283 1.29 16.33-.352l8.926 4.83c-2.649 1.016-5.298.801-7.467-.196l-4.921 2.679c4.567 2.483 10.844 2.014 16.204-.43l3.274 1.779 2.628-1.427-3.316-1.799c4.943-3.227 4.109-6.922.188-9.053" fill="#D7FFFE" opacity=".3"/><path d="M257.391 302.353c0-.704-.605-1.251-1.335-1.251s-1.335.567-1.335 1.251c0 .684.605 1.251 1.335 1.251s1.335-.567 1.335-1.251Z" fill="#D7FFFE"/><path opacity=".4" d="M243.417 358.764c0-.704-.604-1.251-1.334-1.251-.73 0-1.335.567-1.335 1.251 0 .684.605 1.252 1.335 1.252s1.334-.568 1.334-1.252Z" fill="#D7FFFE"/><path opacity=".1" d="M223.96 410.62c0-.704-.605-1.252-1.335-1.252s-1.335.567-1.335 1.252c0 .684.605 1.251 1.335 1.251s1.335-.567 1.335-1.251ZM239.83 404.929c0-.704-.605-1.251-1.335-1.251s-1.334.567-1.334 1.251c0 .685.604 1.252 1.334 1.252.73 0 1.335-.567 1.335-1.252ZM226.671 392.474c0-.704-.605-1.251-1.335-1.251s-1.335.567-1.335 1.251c0 .684.605 1.251 1.335 1.251s1.335-.567 1.335-1.251ZM65.814 314.554c0-.704-.605-1.251-1.335-1.251s-1.334.567-1.334 1.251c0 .685.604 1.252 1.334 1.252.73 0 1.335-.567 1.335-1.252ZM55.95 305.364c0-.704-.605-1.252-1.335-1.252s-1.335.567-1.335 1.252c0 .684.605 1.251 1.335 1.251s1.335-.567 1.335-1.251ZM81.226 277.715c0-.704-.605-1.251-1.335-1.251s-1.334.567-1.334 1.251c0 .685.604 1.252 1.334 1.252.73 0 1.335-.567 1.335-1.252ZM293.449 441.788c0-.704-.605-1.252-1.335-1.252s-1.334.567-1.334 1.252c0 .684.604 1.251 1.334 1.251.73 0 1.335-.567 1.335-1.251ZM310.863 434.376c0-.703-.604-1.251-1.334-1.251-.73 0-1.335.567-1.335 1.251 0 .685.605 1.252 1.335 1.252s1.334-.567 1.334-1.252ZM478.394 422.507c0-.704-.605-1.251-1.335-1.251s-1.335.567-1.335 1.251c0 .685.605 1.252 1.335 1.252s1.335-.567 1.335-1.252ZM503.92 429.469c0-.704-.605-1.251-1.335-1.251-.729 0-1.334.567-1.334 1.251 0 .685.605 1.252 1.334 1.252.73 0 1.335-.567 1.335-1.252ZM517.664 372.959c0-.703-.605-1.251-1.335-1.251s-1.334.567-1.334 1.251c0 .685.604 1.252 1.334 1.252.73 0 1.335-.567 1.335-1.252ZM520.876 390.362c0-.704-.605-1.252-1.335-1.252s-1.335.567-1.335 1.252c0 .684.605 1.251 1.335 1.251s1.335-.567 1.335-1.251ZM612.993 368.384c0-.704-.605-1.251-1.335-1.251s-1.334.567-1.334 1.251c0 .685.604 1.252 1.334 1.252.73 0 1.335-.567 1.335-1.252ZM625.402 360.152c0-.704-.605-1.252-1.335-1.252s-1.335.567-1.335 1.252c0 .684.605 1.251 1.335 1.251s1.335-.567 1.335-1.251ZM611.638 347.814c0-.704-.605-1.252-1.335-1.252s-1.335.568-1.335 1.252.605 1.251 1.335 1.251 1.335-.567 1.335-1.251ZM714.454 294.316c0-.704-.605-1.252-1.335-1.252-.729 0-1.334.568-1.334 1.252s.605 1.251 1.334 1.251c.73 0 1.335-.567 1.335-1.251ZM347.339 390.362c0-.704-.605-1.252-1.335-1.252s-1.335.567-1.335 1.252c0 .684.605 1.251 1.335 1.251s1.335-.567 1.335-1.251Z" fill="#D7FFFE"/><path opacity=".4" d="M265.044 319.325c0-.704-.604-1.252-1.334-1.252-.73 0-1.335.567-1.335 1.252 0 .684.605 1.251 1.335 1.251s1.334-.567 1.334-1.251ZM354.326 336.239c0-.704-.605-1.252-1.335-1.252s-1.335.567-1.335 1.252c0 .684.605 1.251 1.335 1.251s1.335-.567 1.335-1.251ZM354.326 359.878c0-.704-.605-1.251-1.335-1.251s-1.335.567-1.335 1.251c0 .685.605 1.252 1.335 1.252s1.335-.567 1.335-1.252ZM459.52 312.677c0-.704-.605-1.251-1.335-1.251s-1.335.567-1.335 1.251c0 .685.605 1.252 1.335 1.252s1.335-.567 1.335-1.252ZM495.807 251.182c0-.704-.604-1.251-1.334-1.251-.73 0-1.335.567-1.335 1.251 0 .684.605 1.251 1.335 1.251s1.334-.567 1.334-1.251ZM502.586 281.313c0-.704-.605-1.251-1.335-1.251s-1.335.567-1.335 1.251c0 .684.605 1.251 1.335 1.251s1.335-.567 1.335-1.251ZM583.65 237.924c0-.704-.605-1.251-1.335-1.251s-1.335.567-1.335 1.251c0 .685.605 1.252 1.335 1.252s1.335-.567 1.335-1.252ZM684.589 218.665c0-.704-.604-1.252-1.334-1.252-.73 0-1.335.567-1.335 1.252 0 .684.605 1.251 1.335 1.251s1.334-.567 1.334-1.251ZM124 257.419c0-.704-.604-1.251-1.334-1.251-.73 0-1.335.567-1.335 1.251 0 .685.605 1.252 1.335 1.252s1.334-.567 1.334-1.252ZM104.459 209.475c0-.704-.605-1.251-1.335-1.251s-1.334.567-1.334 1.251c0 .684.604 1.251 1.334 1.251.73 0 1.335-.567 1.335-1.251Z" fill="#D7FFFE"/><path d="M309.508 371.024c0-.704-.605-1.252-1.335-1.252s-1.334.567-1.334 1.252c0 .684.604 1.251 1.334 1.251.73 0 1.335-.567 1.335-1.251ZM478.394 265.124c0-.704-.605-1.252-1.335-1.252s-1.335.567-1.335 1.252c0 .684.605 1.251 1.335 1.251s1.335-.567 1.335-1.251ZM496.225 271.849c0-.704-.605-1.251-1.335-1.251s-1.334.567-1.334 1.251c0 .684.604 1.251 1.334 1.251.73 0 1.335-.567 1.335-1.251ZM575.287 229.908c0-.704-.605-1.252-1.335-1.252-.729 0-1.334.567-1.334 1.252 0 .684.605 1.251 1.334 1.251.73 0 1.335-.567 1.335-1.251ZM89.026 262.816c0-.704-.605-1.252-1.334-1.252-.73 0-1.335.567-1.335 1.252 0 .684.605 1.251 1.335 1.251s1.334-.567 1.334-1.251ZM125.335 234.835c0-.704-.605-1.251-1.335-1.251s-1.334.567-1.334 1.251c0 .685.604 1.252 1.334 1.252.73 0 1.335-.567 1.335-1.252ZM105.814 189.1c0-.704-.605-1.251-1.334-1.251-.73 0-1.335.567-1.335 1.251 0 .684.605 1.251 1.335 1.251.729 0 1.334-.567 1.334-1.251ZM93.364 273.121c0-.704-.605-1.252-1.335-1.252s-1.335.567-1.335 1.252c0 .684.605 1.251 1.335 1.251s1.335-.567 1.335-1.251ZM316.014 361.619c0-.704-.604-1.252-1.334-1.252-.73 0-1.335.567-1.335 1.252 0 .684.605 1.251 1.335 1.251s1.334-.567 1.334-1.251ZM457.309 337.784c0-.704-.605-1.252-1.335-1.252s-1.335.567-1.335 1.252c0 .684.605 1.251 1.335 1.251s1.335-.567 1.335-1.251ZM444.504 319.325c0-.704-.605-1.252-1.335-1.252s-1.335.567-1.335 1.252c0 .684.605 1.251 1.335 1.251s1.335-.567 1.335-1.251ZM568.363 197.274c0-.704-.605-1.252-1.335-1.252s-1.334.568-1.334 1.252.604 1.251 1.334 1.251c.73 0 1.335-.567 1.335-1.251ZM584.985 219.936c0-.704-.605-1.251-1.335-1.251s-1.335.567-1.335 1.251c0 .684.605 1.251 1.335 1.251s1.335-.567 1.335-1.251ZM667.467 204.606c0-.704-.604-1.252-1.334-1.252-.73 0-1.335.568-1.335 1.252s.605 1.251 1.335 1.251 1.334-.567 1.334-1.251Z" fill="#D7FFFE"/><defs><linearGradient id="L" x1="208.172" y1="477.941" x2="424.316" y2="76.823" gradientUnits="userSpaceOnUse"><stop stop-color="#151121" stop-opacity="0"/><stop offset=".07" stop-color="#241E25" stop-opacity=".07"/><stop offset=".72" stop-color="#C0A455" stop-opacity=".73"/><stop offset="1" stop-color="#FFDA69"/></linearGradient><linearGradient id="aw" x1="505.339" y1="343.238" x2="478.658" y2="394.598" gradientUnits="userSpaceOnUse"><stop stop-color="#D7FFFE"/><stop offset=".28" stop-color="#A3BFC2" stop-opacity=".73"/><stop offset=".93" stop-color="#222130" stop-opacity=".07"/><stop offset="1" stop-color="#151121" stop-opacity="0"/></linearGradient><linearGradient id="av" x1="557.894" y1="320.83" x2="587.378" y2="374.078" gradientUnits="userSpaceOnUse"><stop stop-color="#D7FFFE"/><stop offset=".28" stop-color="#A3BFC2" stop-opacity=".73"/><stop offset=".93" stop-color="#222130" stop-opacity=".07"/><stop offset="1" stop-color="#151121" stop-opacity="0"/></linearGradient><linearGradient id="au" x1="208.944" y1="357.707" x2="235.625" y2="409.047" gradientUnits="userSpaceOnUse"><stop stop-color="#D7FFFE"/><stop offset=".28" stop-color="#A3BFC2" stop-opacity=".73"/><stop offset=".93" stop-color="#222130" stop-opacity=".07"/><stop offset="1" stop-color="#151121" stop-opacity="0"/></linearGradient><linearGradient id="at" x1="156.389" y1="335.3" x2="126.904" y2="388.547" gradientUnits="userSpaceOnUse"><stop stop-color="#D7FFFE"/><stop offset=".28" stop-color="#A3BFC2" stop-opacity=".73"/><stop offset=".93" stop-color="#222130" stop-opacity=".07"/><stop offset="1" stop-color="#151121" stop-opacity="0"/></linearGradient><linearGradient id="as" x1="660.877" y1="322.101" x2="680.944" y2="278.432" gradientUnits="userSpaceOnUse"><stop stop-color="#151121" stop-opacity="0"/><stop offset=".07" stop-color="#241E25" stop-opacity=".07"/><stop offset=".72" stop-color="#C0A455" stop-opacity=".73"/><stop offset="1" stop-color="#FFDA69"/></linearGradient><linearGradient id="ar" x1="393.262" y1="451.563" x2="417.965" y2="397.726" gradientUnits="userSpaceOnUse"><stop stop-color="#151121" stop-opacity="0"/><stop offset=".07" stop-color="#241E25" stop-opacity=".07"/><stop offset=".72" stop-color="#C0A455" stop-opacity=".73"/><stop offset="1" stop-color="#FFDA69"/></linearGradient><linearGradient id="aq" x1="417.475" y1="147.1" x2="433.29" y2="99.51" gradientUnits="userSpaceOnUse"><stop stop-color="#151121" stop-opacity="0"/><stop offset=".07" stop-color="#241E25" stop-opacity=".07"/><stop offset=".72" stop-color="#C0A455" stop-opacity=".73"/><stop offset="1" stop-color="#FFDA69"/></linearGradient><linearGradient id="i" x1="277.558" y1="515.307" x2="493.702" y2="114.208" gradientUnits="userSpaceOnUse"><stop stop-color="#151121" stop-opacity="0"/><stop offset=".07" stop-color="#241E25" stop-opacity=".07"/><stop offset=".72" stop-color="#C0A455" stop-opacity=".73"/><stop offset="1" stop-color="#FFDA69"/></linearGradient><linearGradient id="j" x1="60.371" y1="398.281" x2="276.515" y2="-2.819" gradientUnits="userSpaceOnUse"><stop stop-color="#151121" stop-opacity="0"/><stop offset=".07" stop-color="#241E25" stop-opacity=".07"/><stop offset=".72" stop-color="#C0A455" stop-opacity=".73"/><stop offset="1" stop-color="#FFDA69"/></linearGradient><linearGradient id="k" x1="158.391" y1="451.114" x2="374.534" y2="49.995" gradientUnits="userSpaceOnUse"><stop stop-color="#151121" stop-opacity="0"/><stop offset=".07" stop-color="#241E25" stop-opacity=".07"/><stop offset=".72" stop-color="#C0A455" stop-opacity=".73"/><stop offset="1" stop-color="#FFDA69"/></linearGradient><linearGradient id="l" x1="350.446" y1="554.59" x2="566.59" y2="153.49" gradientUnits="userSpaceOnUse"><stop stop-color="#151121" stop-opacity="0"/><stop offset=".07" stop-color="#241E25" stop-opacity=".07"/><stop offset=".72" stop-color="#C0A455" stop-opacity=".73"/><stop offset="1" stop-color="#FFDA69"/></linearGradient><linearGradient id="m" x1="367.443" y1="563.761" x2="583.567" y2="162.644" gradientUnits="userSpaceOnUse"><stop stop-color="#151121" stop-opacity="0"/><stop offset=".07" stop-color="#241E25" stop-opacity=".07"/><stop offset=".72" stop-color="#C0A455" stop-opacity=".73"/><stop offset="1" stop-color="#FFDA69"/></linearGradient><linearGradient id="n" x1="139.183" y1="440.751" x2="355.326" y2="39.652" gradientUnits="userSpaceOnUse"><stop stop-color="#151121" stop-opacity="0"/><stop offset=".07" stop-color="#241E25" stop-opacity=".07"/><stop offset=".72" stop-color="#C0A455" stop-opacity=".73"/><stop offset="1" stop-color="#FFDA69"/></linearGradient><linearGradient id="o" x1="150.632" y1="446.93" x2="366.776" y2="45.812" gradientUnits="userSpaceOnUse"><stop stop-color="#151121" stop-opacity="0"/><stop offset=".07" stop-color="#241E25" stop-opacity=".07"/><stop offset=".72" stop-color="#C0A455" stop-opacity=".73"/><stop offset="1" stop-color="#FFDA69"/></linearGradient><linearGradient id="p" x1="338.726" y1="548.275" x2="554.869" y2="147.175" gradientUnits="userSpaceOnUse"><stop stop-color="#151121" stop-opacity="0"/><stop offset=".07" stop-color="#241E25" stop-opacity=".07"/><stop offset=".72" stop-color="#C0A455" stop-opacity=".73"/><stop offset="1" stop-color="#FFDA69"/></linearGradient><linearGradient id="q" x1="233.344" y1="491.491" x2="449.488" y2="90.392" gradientUnits="userSpaceOnUse"><stop stop-color="#151121" stop-opacity="0"/><stop offset=".07" stop-color="#241E25" stop-opacity=".07"/><stop offset=".72" stop-color="#C0A455" stop-opacity=".73"/><stop offset="1" stop-color="#FFDA69"/></linearGradient><linearGradient id="r" x1="131.737" y1="436.743" x2="347.881" y2="35.644" gradientUnits="userSpaceOnUse"><stop stop-color="#151121" stop-opacity="0"/><stop offset=".07" stop-color="#241E25" stop-opacity=".07"/><stop offset=".72" stop-color="#C0A455" stop-opacity=".73"/><stop offset="1" stop-color="#FFDA69"/></linearGradient><linearGradient id="s" x1="57.701" y1="396.834" x2="273.825" y2="-4.264" gradientUnits="userSpaceOnUse"><stop stop-color="#151121" stop-opacity="0"/><stop offset=".07" stop-color="#241E25" stop-opacity=".07"/><stop offset=".72" stop-color="#C0A455" stop-opacity=".73"/><stop offset="1" stop-color="#FFDA69"/></linearGradient><linearGradient id="t" x1="75.658" y1="406.533" x2="291.801" y2="5.414" gradientUnits="userSpaceOnUse"><stop stop-color="#151121" stop-opacity="0"/><stop offset=".07" stop-color="#241E25" stop-opacity=".07"/><stop offset=".72" stop-color="#C0A455" stop-opacity=".73"/><stop offset="1" stop-color="#FFDA69"/></linearGradient><linearGradient id="u" x1="-4.99" y1="363.066" x2="211.134" y2="-38.051" gradientUnits="userSpaceOnUse"><stop stop-color="#151121" stop-opacity="0"/><stop offset=".07" stop-color="#241E25" stop-opacity=".07"/><stop offset=".72" stop-color="#C0A455" stop-opacity=".73"/><stop offset="1" stop-color="#FFDA69"/></linearGradient><linearGradient id="v" x1="163.625" y1="453.93" x2="379.768" y2="52.811" gradientUnits="userSpaceOnUse"><stop stop-color="#151121" stop-opacity="0"/><stop offset=".07" stop-color="#241E25" stop-opacity=".07"/><stop offset=".72" stop-color="#C0A455" stop-opacity=".73"/><stop offset="1" stop-color="#FFDA69"/></linearGradient><linearGradient id="w" x1="144.188" y1="443.449" x2="360.332" y2="42.35" gradientUnits="userSpaceOnUse"><stop stop-color="#151121" stop-opacity="0"/><stop offset=".07" stop-color="#241E25" stop-opacity=".07"/><stop offset=".72" stop-color="#C0A455" stop-opacity=".73"/><stop offset="1" stop-color="#FFDA69"/></linearGradient><linearGradient id="x" x1="62.269" y1="399.298" x2="278.393" y2="-1.8" gradientUnits="userSpaceOnUse"><stop stop-color="#151121" stop-opacity="0"/><stop offset=".07" stop-color="#241E25" stop-opacity=".07"/><stop offset=".72" stop-color="#C0A455" stop-opacity=".73"/><stop offset="1" stop-color="#FFDA69"/></linearGradient><linearGradient id="y" x1="301.019" y1="527.959" x2="517.164" y2="126.859" gradientUnits="userSpaceOnUse"><stop stop-color="#151121" stop-opacity="0"/><stop offset=".07" stop-color="#241E25" stop-opacity=".07"/><stop offset=".72" stop-color="#C0A455" stop-opacity=".73"/><stop offset="1" stop-color="#FFDA69"/></linearGradient><linearGradient id="z" x1="212.76" y1="480.405" x2="428.884" y2="79.288" gradientUnits="userSpaceOnUse"><stop stop-color="#151121" stop-opacity="0"/><stop offset=".07" stop-color="#241E25" stop-opacity=".07"/><stop offset=".72" stop-color="#C0A455" stop-opacity=".73"/><stop offset="1" stop-color="#FFDA69"/></linearGradient><linearGradient id="A" x1="309.987" y1="532.808" x2="526.131" y2="131.689" gradientUnits="userSpaceOnUse"><stop stop-color="#151121" stop-opacity="0"/><stop offset=".07" stop-color="#241E25" stop-opacity=".07"/><stop offset=".72" stop-color="#C0A455" stop-opacity=".73"/><stop offset="1" stop-color="#FFDA69"/></linearGradient><linearGradient id="B" x1="94.073" y1="416.447" x2="310.216" y2="15.328" gradientUnits="userSpaceOnUse"><stop stop-color="#151121" stop-opacity="0"/><stop offset=".07" stop-color="#241E25" stop-opacity=".07"/><stop offset=".72" stop-color="#C0A455" stop-opacity=".73"/><stop offset="1" stop-color="#FFDA69"/></linearGradient><linearGradient id="C" x1="301.937" y1="528.467" x2="518.08" y2="127.349" gradientUnits="userSpaceOnUse"><stop stop-color="#151121" stop-opacity="0"/><stop offset=".07" stop-color="#241E25" stop-opacity=".07"/><stop offset=".72" stop-color="#C0A455" stop-opacity=".73"/><stop offset="1" stop-color="#FFDA69"/></linearGradient><linearGradient id="D" x1="385.546" y1="573.518" x2="601.689" y2="172.399" gradientUnits="userSpaceOnUse"><stop stop-color="#151121" stop-opacity="0"/><stop offset=".07" stop-color="#241E25" stop-opacity=".07"/><stop offset=".72" stop-color="#C0A455" stop-opacity=".73"/><stop offset="1" stop-color="#FFDA69"/></linearGradient><linearGradient id="E" x1="418.413" y1="591.214" x2="634.557" y2="190.115" gradientUnits="userSpaceOnUse"><stop stop-color="#151121" stop-opacity="0"/><stop offset=".07" stop-color="#241E25" stop-opacity=".07"/><stop offset=".72" stop-color="#C0A455" stop-opacity=".73"/><stop offset="1" stop-color="#FFDA69"/></linearGradient><linearGradient id="F" x1="437.58" y1="601.557" x2="653.723" y2="200.439" gradientUnits="userSpaceOnUse"><stop stop-color="#151121" stop-opacity="0"/><stop offset=".07" stop-color="#241E25" stop-opacity=".07"/><stop offset=".72" stop-color="#C0A455" stop-opacity=".73"/><stop offset="1" stop-color="#FFDA69"/></linearGradient><linearGradient id="G" x1="490.052" y1="629.831" x2="706.195" y2="228.713" gradientUnits="userSpaceOnUse"><stop stop-color="#151121" stop-opacity="0"/><stop offset=".07" stop-color="#241E25" stop-opacity=".07"/><stop offset=".72" stop-color="#C0A455" stop-opacity=".73"/><stop offset="1" stop-color="#FFDA69"/></linearGradient><linearGradient id="H" x1="434.139" y1="599.7" x2="650.283" y2="198.601" gradientUnits="userSpaceOnUse"><stop stop-color="#151121" stop-opacity="0"/><stop offset=".07" stop-color="#241E25" stop-opacity=".07"/><stop offset=".72" stop-color="#C0A455" stop-opacity=".73"/><stop offset="1" stop-color="#FFDA69"/></linearGradient><linearGradient id="I" x1="395.994" y1="579.129" x2="612.138" y2="178.03" gradientUnits="userSpaceOnUse"><stop stop-color="#151121" stop-opacity="0"/><stop offset=".07" stop-color="#241E25" stop-opacity=".07"/><stop offset=".72" stop-color="#C0A455" stop-opacity=".73"/><stop offset="1" stop-color="#FFDA69"/></linearGradient><linearGradient id="J" x1="249.236" y1="500.056" x2="465.36" y2="98.939" gradientUnits="userSpaceOnUse"><stop stop-color="#151121" stop-opacity="0"/><stop offset=".07" stop-color="#241E25" stop-opacity=".07"/><stop offset=".72" stop-color="#C0A455" stop-opacity=".73"/><stop offset="1" stop-color="#FFDA69"/></linearGradient><linearGradient id="K" x1="285.628" y1="519.668" x2="501.772" y2="118.569" gradientUnits="userSpaceOnUse"><stop stop-color="#151121" stop-opacity="0"/><stop offset=".07" stop-color="#241E25" stop-opacity=".07"/><stop offset=".72" stop-color="#C0A455" stop-opacity=".73"/><stop offset="1" stop-color="#FFDA69"/></linearGradient><linearGradient id="ap" x1="348.965" y1="175.569" x2="368.747" y2="134.294" gradientUnits="userSpaceOnUse"><stop stop-color="#151121" stop-opacity="0"/><stop offset=".07" stop-color="#241E25" stop-opacity=".07"/><stop offset=".72" stop-color="#C0A455" stop-opacity=".73"/><stop offset="1" stop-color="#FFDA69"/></linearGradient><linearGradient id="M" x1="376.724" y1="568.767" x2="592.867" y2="167.648" gradientUnits="userSpaceOnUse"><stop stop-color="#151121" stop-opacity="0"/><stop offset=".07" stop-color="#241E25" stop-opacity=".07"/><stop offset=".72" stop-color="#C0A455" stop-opacity=".73"/><stop offset="1" stop-color="#FFDA69"/></linearGradient><linearGradient id="N" x1="331.405" y1="544.345" x2="547.549" y2="143.226" gradientUnits="userSpaceOnUse"><stop stop-color="#151121" stop-opacity="0"/><stop offset=".07" stop-color="#241E25" stop-opacity=".07"/><stop offset=".72" stop-color="#C0A455" stop-opacity=".73"/><stop offset="1" stop-color="#FFDA69"/></linearGradient><linearGradient id="O" x1="172.113" y1="458.506" x2="388.257" y2="57.387" gradientUnits="userSpaceOnUse"><stop stop-color="#151121" stop-opacity="0"/><stop offset=".07" stop-color="#241E25" stop-opacity=".07"/><stop offset=".72" stop-color="#C0A455" stop-opacity=".73"/><stop offset="1" stop-color="#FFDA69"/></linearGradient><linearGradient id="P" x1="226.858" y1="487.992" x2="442.983" y2="86.894" gradientUnits="userSpaceOnUse"><stop stop-color="#151121" stop-opacity="0"/><stop offset=".07" stop-color="#241E25" stop-opacity=".07"/><stop offset=".72" stop-color="#C0A455" stop-opacity=".73"/><stop offset="1" stop-color="#FFDA69"/></linearGradient><linearGradient id="Q" x1="363.669" y1="362.264" x2="363.669" y2="236.321" gradientUnits="userSpaceOnUse"><stop stop-color="#FFDA69"/><stop offset=".28" stop-color="#C0A455" stop-opacity=".73"/><stop offset=".93" stop-color="#241E25" stop-opacity=".07"/><stop offset="1" stop-color="#151121" stop-opacity="0"/></linearGradient><linearGradient id="R" x1="363.668" y1="346.681" x2="363.668" y2="262.504" gradientUnits="userSpaceOnUse"><stop stop-color="#FFDA69"/><stop offset=".28" stop-color="#C0A455" stop-opacity=".73"/><stop offset=".93" stop-color="#241E25" stop-opacity=".07"/><stop offset="1" stop-color="#151121" stop-opacity="0"/></linearGradient><linearGradient id="S" x1="363.669" y1="333.99" x2="363.669" y2="265.397" gradientUnits="userSpaceOnUse"><stop stop-color="#FFDA69"/><stop offset=".28" stop-color="#C0A455" stop-opacity=".73"/><stop offset=".93" stop-color="#241E25" stop-opacity=".07"/><stop offset="1" stop-color="#151121" stop-opacity="0"/></linearGradient><linearGradient id="ao" x1="337.891" y1="115.638" x2="351.747" y2="98.428" gradientUnits="userSpaceOnUse"><stop stop-color="#151121" stop-opacity="0"/><stop offset=".07" stop-color="#241E25" stop-opacity=".07"/><stop offset=".72" stop-color="#C0A455" stop-opacity=".73"/><stop offset="1" stop-color="#FFDA69"/></linearGradient><linearGradient id="an" x1="375.077" y1="158.871" x2="237.032" y2="297.437" gradientUnits="userSpaceOnUse"><stop stop-color="#FFDA69"/><stop offset=".28" stop-color="#C0A455" stop-opacity=".73"/><stop offset=".93" stop-color="#241E25" stop-opacity=".07"/><stop offset="1" stop-color="#151121" stop-opacity="0"/></linearGradient><linearGradient id="V" x1="156.931" y1="231.491" x2="165.323" y2="192.598" gradientUnits="userSpaceOnUse"><stop stop-color="#151121" stop-opacity="0"/><stop offset=".07" stop-color="#241E25" stop-opacity=".07"/><stop offset=".72" stop-color="#C0A455" stop-opacity=".73"/><stop offset="1" stop-color="#FFDA69"/></linearGradient><linearGradient id="W" x1="515.558" y1="216.299" x2="535.606" y2="172.631" gradientUnits="userSpaceOnUse"><stop stop-color="#151121" stop-opacity="0"/><stop offset=".07" stop-color="#241E25" stop-opacity=".07"/><stop offset=".72" stop-color="#C0A455" stop-opacity=".73"/><stop offset="1" stop-color="#FFDA69"/></linearGradient><linearGradient id="X" x1="309.091" y1="153.65" x2="338.555" y2="206.895" gradientUnits="userSpaceOnUse"><stop stop-color="#D7FFFE"/><stop offset=".28" stop-color="#A3BFC2" stop-opacity=".73"/><stop offset=".93" stop-color="#222130" stop-opacity=".07"/><stop offset="1" stop-color="#151121" stop-opacity="0"/></linearGradient><linearGradient id="Y" x1="256.514" y1="176.058" x2="229.834" y2="227.417" gradientUnits="userSpaceOnUse"><stop stop-color="#D7FFFE"/><stop offset=".28" stop-color="#A3BFC2" stop-opacity=".73"/><stop offset=".93" stop-color="#222130" stop-opacity=".07"/><stop offset="1" stop-color="#151121" stop-opacity="0"/></linearGradient><linearGradient id="Z" x1="460.52" y1="305.638" x2="403.566" y2="194.744" gradientUnits="userSpaceOnUse"><stop stop-color="#151121" stop-opacity="0"/><stop offset=".07" stop-color="#241E25" stop-opacity=".07"/><stop offset=".72" stop-color="#C0A455" stop-opacity=".73"/><stop offset="1" stop-color="#FFDA69"/></linearGradient><linearGradient id="aa" x1="399.039" y1="340.208" x2="354.071" y2="199.587" gradientUnits="userSpaceOnUse"><stop stop-color="#151121" stop-opacity="0"/><stop offset=".07" stop-color="#241E25" stop-opacity=".07"/><stop offset=".72" stop-color="#C0A455" stop-opacity=".73"/><stop offset="1" stop-color="#FFDA69"/></linearGradient><linearGradient id="ab" x1="507.695" y1="270.325" x2="512.444" y2="149.831" gradientUnits="userSpaceOnUse"><stop stop-color="#151121" stop-opacity="0"/><stop offset=".07" stop-color="#241E25" stop-opacity=".07"/><stop offset=".72" stop-color="#C0A455" stop-opacity=".73"/><stop offset="1" stop-color="#FFDA69"/></linearGradient><linearGradient id="ac" x1="491.866" y1="276.308" x2="480.635" y2="150.19" gradientUnits="userSpaceOnUse"><stop stop-color="#151121" stop-opacity="0"/><stop offset=".07" stop-color="#241E25" stop-opacity=".07"/><stop offset=".72" stop-color="#C0A455" stop-opacity=".73"/><stop offset="1" stop-color="#FFDA69"/></linearGradient><linearGradient id="ad" x1="424.003" y1="319.051" x2="390.514" y2="190.12" gradientUnits="userSpaceOnUse"><stop stop-color="#151121" stop-opacity="0"/><stop offset=".07" stop-color="#241E25" stop-opacity=".07"/><stop offset=".72" stop-color="#C0A455" stop-opacity=".73"/><stop offset="1" stop-color="#FFDA69"/></linearGradient><linearGradient id="ae" x1="255.847" y1="317.468" x2="308.889" y2="217.03" gradientUnits="userSpaceOnUse"><stop stop-color="#151121" stop-opacity="0"/><stop offset=".07" stop-color="#241E25" stop-opacity=".07"/><stop offset=".72" stop-color="#C0A455" stop-opacity=".73"/><stop offset="1" stop-color="#FFDA69"/></linearGradient><linearGradient id="af" x1="232.239" y1="284.011" x2="276.338" y2="187.138" gradientUnits="userSpaceOnUse"><stop stop-color="#151121" stop-opacity="0"/><stop offset=".07" stop-color="#241E25" stop-opacity=".07"/><stop offset=".72" stop-color="#C0A455" stop-opacity=".73"/><stop offset="1" stop-color="#FFDA69"/></linearGradient><linearGradient id="ag" x1="267.339" y1="295.451" x2="308.011" y2="209.611" gradientUnits="userSpaceOnUse"><stop stop-color="#151121" stop-opacity="0"/><stop offset=".07" stop-color="#241E25" stop-opacity=".07"/><stop offset=".72" stop-color="#C0A455" stop-opacity=".73"/><stop offset="1" stop-color="#FFDA69"/></linearGradient><linearGradient id="ah" x1="494.014" y1="157.835" x2="283.205" y2="180.337" gradientUnits="userSpaceOnUse"><stop stop-color="#D7FFFE"/><stop offset="1" stop-color="#FFFEFF"/></linearGradient><linearGradient id="ai" x1="494.014" y1="157.835" x2="283.205" y2="180.337" gradientUnits="userSpaceOnUse"><stop stop-color="#151121" stop-opacity="0"/><stop offset=".14" stop-color="#1D172D" stop-opacity=".17"/><stop offset=".53" stop-color="#34264C" stop-opacity=".62"/><stop offset=".83" stop-color="#423060" stop-opacity=".9"/><stop offset="1" stop-color="#483468"/></linearGradient><linearGradient id="aj" x1="292.281" y1="214.755" x2="431.244" y2="109.904" gradientUnits="userSpaceOnUse"><stop stop-color="#D7FFFE"/><stop offset="1" stop-color="#FFFEFF"/></linearGradient><linearGradient id="ak" x1="408.487" y1="96.593" x2="312.513" y2="291.301" gradientUnits="userSpaceOnUse"><stop stop-color="#151121"/><stop offset=".35" stop-color="#191326"/><stop offset=".78" stop-color="#241A34"/><stop offset="1" stop-color="#2D203F"/></linearGradient><linearGradient id="al" x1="281.311" y1="217.277" x2="286.08" y2="211.264" gradientUnits="userSpaceOnUse"><stop stop-color="#D7FFFE"/><stop offset="1" stop-color="#FFFEFF"/></linearGradient><linearGradient id="am" x1="281.311" y1="217.277" x2="286.08" y2="211.264" gradientUnits="userSpaceOnUse"><stop stop-color="#151121" stop-opacity="0"/><stop offset=".14" stop-color="#1D172D" stop-opacity=".17"/><stop offset=".53" stop-color="#34264C" stop-opacity=".62"/><stop offset=".83" stop-color="#423060" stop-opacity=".9"/><stop offset="1" stop-color="#483468"/></linearGradient><radialGradient id="U" cx="0" cy="0" r="1" gradientUnits="userSpaceOnUse" gradientTransform="matrix(91.1791 0 0 48.7276 363.669 244.812)"><stop stop-color="#151121" stop-opacity="0"/><stop offset=".23" stop-color="#171221" stop-opacity="0"/><stop offset=".36" stop-color="#1F1924" stop-opacity=".04"/><stop offset=".48" stop-color="#2C2428" stop-opacity=".1"/><stop offset=".57" stop-color="#3E342D" stop-opacity=".18"/><stop offset=".67" stop-color="#574935" stop-opacity=".28"/><stop offset=".75" stop-color="#74633E" stop-opacity=".41"/><stop offset=".83" stop-color="#988149" stop-opacity=".56"/><stop offset=".91" stop-color="#C1A556" stop-opacity=".74"/><stop offset=".98" stop-color="#EECB63" stop-opacity=".93"/><stop offset="1" stop-color="#FFDA69"/></radialGradient><radialGradient id="T" cx="0" cy="0" r="1" gradientUnits="userSpaceOnUse" gradientTransform="matrix(68.1966 0 0 36.4454 363.669 294.011)"><stop stop-color="#FFDA69"/><stop offset=".28" stop-color="#C0A455" stop-opacity=".73"/><stop offset=".93" stop-color="#241E25" stop-opacity=".07"/><stop offset="1" stop-color="#151121" stop-opacity="0"/></radialGradient><radialGradient id="b" cx="0" cy="0" r="1" gradientUnits="userSpaceOnUse" gradientTransform="matrix(147.572 0 0 78.8647 292.907 357.892)"><stop stop-color="#FFDA69"/><stop offset=".28" stop-color="#C0A455" stop-opacity=".73"/><stop offset=".93" stop-color="#241E25" stop-opacity=".07"/><stop offset="1" stop-color="#151121" stop-opacity="0"/></radialGradient><radialGradient id="h" cx="0" cy="0" r="1" gradientUnits="userSpaceOnUse" gradientTransform="matrix(156.873 0 0 83.8355 361.792 289.302)"><stop stop-color="#FFDA69"/><stop offset=".28" stop-color="#C0A455" stop-opacity=".73"/><stop offset=".93" stop-color="#241E25" stop-opacity=".07"/><stop offset="1" stop-color="#151121" stop-opacity="0"/></radialGradient><radialGradient id="g" cx="0" cy="0" r="1" gradientUnits="userSpaceOnUse" gradientTransform="matrix(1.04276 0 0 .55727 556.976 214.185)"><stop stop-color="#FFDA69"/><stop offset=".28" stop-color="#C0A455" stop-opacity=".73"/><stop offset=".93" stop-color="#241E25" stop-opacity=".07"/><stop offset="1" stop-color="#151121" stop-opacity="0"/></radialGradient><radialGradient id="f" cx="0" cy="0" r="1" gradientUnits="userSpaceOnUse" gradientTransform="matrix(97.7068 0 0 52.2161 137.994 332.627)"><stop stop-color="#CFFFFF"/><stop offset=".28" stop-color="#9DBFC3" stop-opacity=".73"/><stop offset=".93" stop-color="#212130" stop-opacity=".07"/><stop offset="1" stop-color="#151121" stop-opacity="0"/></radialGradient><radialGradient id="e" cx="0" cy="0" r="1" gradientUnits="userSpaceOnUse" gradientTransform="matrix(128.698 0 0 68.7781 519.52 367.331)"><stop stop-color="#D7FFFE"/><stop offset=".28" stop-color="#A3BFC2" stop-opacity=".73"/><stop offset=".93" stop-color="#222130" stop-opacity=".07"/><stop offset="1" stop-color="#151121" stop-opacity="0"/></radialGradient><radialGradient id="d" cx="0" cy="0" r="1" gradientUnits="userSpaceOnUse" gradientTransform="matrix(35.4956 0 0 18.9694 599.083 385.66)"><stop stop-color="#CFFFFF"/><stop offset=".28" stop-color="#9DBFC3" stop-opacity=".73"/><stop offset=".93" stop-color="#212130" stop-opacity=".07"/><stop offset="1" stop-color="#151121" stop-opacity="0"/></radialGradient><radialGradient id="c" cx="0" cy="0" r="1" gradientUnits="userSpaceOnUse" gradientTransform="matrix(62.2738 0 0 33.2801 286.608 435.09)"><stop stop-color="#FFDA69"/><stop offset=".28" stop-color="#C0A455" stop-opacity=".73"/><stop offset=".93" stop-color="#241E25" stop-opacity=".07"/><stop offset="1" stop-color="#151121" stop-opacity="0"/></radialGradient><radialGradient id="a" cx="0" cy="0" r="1" gradientUnits="userSpaceOnUse" gradientTransform="matrix(98.8539 0 0 52.8291 164.522 248.385)"><stop stop-color="#FFDA69"/><stop offset=".28" stop-color="#C0A455" stop-opacity=".73"/><stop offset=".93" stop-color="#241E25" stop-opacity=".07"/><stop offset="1" stop-color="#151121" stop-opacity="0"/></radialGradient></defs></svg>